SplineFontDB: 3.0
FontName: Dhyana
FullName: Dhyana
FamilyName: Dhyana
Weight: Book
Copyright: Copyright (c) 2010 by Vernon Adams. All rights reserved.
Version: 1.00, 2005
ItalicAngle: 0
UnderlinePosition: -188
UnderlineWidth: 48
Ascent: 1638
Descent: 410
sfntRevision: 0x00010000
LayerCount: 2
Layer: 0 0 "Back"  1
Layer: 1 0 "Fore"  0
XUID: [1021 332 469972825 6151813]
FSType: 0
OS2Version: 2
OS2_WeightWidthSlopeOnly: 0
OS2_UseTypoMetrics: 1
CreationTime: 1283952577
ModificationTime: 1332235136
PfmFamily: 17
TTFWeight: 400
TTFWidth: 5
LineGap: -224
VLineGap: 0
Panose: 2 0 8 3 5 0 0 2 0 4
OS2TypoAscent: -24
OS2TypoAOffset: 1
OS2TypoDescent: -92
OS2TypoDOffset: 1
OS2TypoLinegap: -224
OS2WinAscent: 0
OS2WinAOffset: 1
OS2WinDescent: 0
OS2WinDOffset: 1
HheadAscent: -1408
HheadAOffset: 1
HheadDescent: 154
HheadDOffset: 1
OS2SubXSize: 1331
OS2SubYSize: 1433
OS2SubXOff: 0
OS2SubYOff: 286
OS2SupXSize: 1331
OS2SupYSize: 1433
OS2SupXOff: 0
OS2SupYOff: 983
OS2StrikeYSize: 102
OS2StrikeYPos: 512
OS2Vendor: 'newt'
OS2CodePages: 00000001.00000000
OS2UnicodeRanges: 82000067.1000200a.00000000.00000000
Lookup: 1 0 0 "'liga' Standard Ligatures lookup 0"  {"'liga' Standard Ligatures lookup 0 subtable"  } ['liga' ('lao ' <'dflt' > 'latn' <'dflt' > ) ]
Lookup: 4 0 1 "'liga' Standard Ligatures lookup 1"  {"'liga' Standard Ligatures lookup 1 subtable"  } ['liga' ('lao ' <'dflt' > 'latn' <'dflt' > ) ]
Lookup: 262 0 0 "'mkmk' Mark to Mark lookup 1"  {"'mkmk' Mark to Mark lookup 1-1"  } ['mkmk' ('DFLT' <'dflt' > 'lao ' <'dflt' > 'latn' <'dflt' > ) ]
Lookup: 258 0 0 "'kern' Horizontal Kerning in Latin lookup 0"  {"'kern' Horizontal Kerning in Latin lookup 0 subtable"  } ['kern' ('DFLT' <'dflt' > 'latn' <'dflt' > ) ]
Lookup: 258 0 0 "'kern' Horizontal Kerning lookup 2"  {"'kern' Horizontal Kerning lookup 2 per glyph data 0"  "'kern' Horizontal Kerning lookup 2 kerning class 1"  } ['kern' ('DFLT' <'dflt' > ) ]
MarkAttachClasses: 1
DEI: 91125

StartChar: exclam
Encoding: 3 33 4
Width: 448
VWidth: 0
GlyphClass: 2
Flags: HW
HStem: -16 202<118 327> 1559 20G<140 314>
VStem: 118 209<-16 186> 140 174<399 1579>
LayerCount: 2
Fore
SplineSet
327 186 m 1xe0
 327 -16 l 1
 118 -16 l 1
 118 186 l 1
 327 186 l 1xe0
314 399 m 1xd0
 140 399 l 1
 140 1579 l 1
 314 1579 l 1
 314 399 l 1xd0
EndSplineSet
EndChar

StartChar: quotedbl
Encoding: 4 34 5
Width: 796
VWidth: 0
GlyphClass: 2
Flags: HW
HStem: 1058 521<175.333 283.333 513.333 621.333>
VStem: 115 228<1400.48 1579> 453 228<1400.48 1579>
LayerCount: 2
Fore
SplineSet
453 1508 m 2
 452 1515 451.666666667 1522.77777778 451.666666667 1530.85185185 c 0
 451.666666667 1547 453 1564.33333333 453 1579 c 1
 681 1579 l 1
 681 1564.33333333 682.333333333 1547 682.333333333 1530.85185185 c 0
 682.333333333 1522.77777778 682 1515 681 1508 c 2
 621 1058 l 1
 513 1058 l 1
 453 1508 l 2
115 1508 m 2
 114 1515 113.666666667 1522.77777778 113.666666667 1530.85185185 c 0
 113.666666667 1547 115 1564.33333333 115 1579 c 1
 343 1579 l 1
 343 1564.33333333 344.333333333 1547 344.333333333 1530.85185185 c 0
 344.333333333 1522.77777778 344 1515 343 1508 c 2
 283 1058 l 1
 175 1058 l 1
 115 1508 l 2
EndSplineSet
EndChar

StartChar: numbersign
Encoding: 5 35 6
Width: 1056
VWidth: 0
GlyphClass: 2
Flags: HW
HStem: 561 123<106 272 425 599 751 927> 905 125<134 309 462 634 790 950>
VStem: 239 141<295 436> 354 139<1170 1309> 567 141<295 436> 679 142<1165 1307>
DStem2: 239 295 380 295 0.11269 0.99363<15.8893 268.024 407.482 614.003 755.448 1020.5> 567 295 708 295 0.11097 0.993824<15.6468 267.908 407.016 613.667 755.207 1018.18>
LayerCount: 2
Fore
SplineSet
599 561 m 1xc8
 413 561 l 1
 380 295 l 1
 239 295 l 1xe8
 272 561 l 1
 106 561 l 1
 106 684 l 1
 282 684 l 1
 309 905 l 1
 134 905 l 1
 134 1030 l 1
 323 1030 l 1
 354 1309 l 1
 493 1309 l 1
 462 1030 l 1
 651 1030 l 1
 679 1307 l 1
 821 1307 l 1xd4
 790 1030 l 1
 950 1030 l 1
 950 905 l 1
 778 905 l 1
 751 684 l 1
 927 684 l 1
 927 561 l 1
 739 561 l 1
 708 295 l 1
 567 295 l 1
 599 561 l 1xc8
425 684 m 1
 608 684 l 1
 634 905 l 1
 452 905 l 1
 425 684 l 1
EndSplineSet
EndChar

StartChar: dollar
Encoding: 6 36 7
Width: 1019
VWidth: 0
GlyphClass: 2
Flags: HW
HStem: -20 149<270.146 473 576 709.881> 572 173<327.372 473>
VStem: 60 163<829.288 1042.74> 473 103<-178 -16.1745 134 539 745 1098 1240 1390> 797 165<210.202 444.458>
LayerCount: 2
Fore
SplineSet
576 1236 m 1
 617.762210723 1235.05085885 907 1215.22619158 907 1172 c 2
 907 1171 l 1
 855 1040 l 1
 767 1077 670 1092 576 1098 c 1
 576 709 l 1
 763 646 962 568 962 340 c 0
 962 101 793 0 576 -18 c 1
 576 -178 l 1
 473 -178 l 1
 473 -20 l 1
 347 -11 244 23 124 63 c 1
 173 207 l 1
 274 169 365 142 473 129 c 1
 473 572 l 1
 259 618 60 664 60 929 c 0
 60 1156 285 1234 473 1240 c 1
 473 1390 l 1
 576 1390 l 1
 576 1236 l 1
473 745 m 1
 473 1100 l 1
 348 1100 223 1078 223 924 c 0
 223 805 380 759 473 745 c 1
576 539 m 1
 576 134 l 1
 692 137 797 204 797 329 c 0
 797 464 679 498 576 539 c 1
EndSplineSet
EndChar

StartChar: percent
Encoding: 7 37 8
Width: 1671
VWidth: 0
GlyphClass: 2
Flags: HW
HStem: -21 110<1175.65 1406.54> 678 110<264.647 495.539 1166.05 1415.95> 1391 104<265.334 494.666>
VStem: 59 133<868.189 1309.69> 568 133<867.968 1309.69> 970 133<169.189 610.692> 1479 133<168.968 610.692>
DStem2: 425 37 555 -22 0.423225 0.906025<1.56382 1605.33>
LayerCount: 2
Fore
SplineSet
1103 393 m 0
 1103 520 1129 692 1291 692 c 0
 1453 692 1479 520 1479 393 c 0
 1479 263 1457 89 1291 89 c 0
 1125 89 1103 263 1103 393 c 0
970 372 m 0
 970 172 1065 -21 1291 -21 c 0
 1518 -21 1612 171 1612 372 c 0
 1612 589 1542 796 1291 796 c 0
 1040 796 970 589 970 372 c 0
192 1092 m 0
 192 1219 218 1391 380 1391 c 0
 542 1391 568 1219 568 1092 c 0
 568 962 546 788 380 788 c 0
 214 788 192 962 192 1092 c 0
59 1071 m 0
 59 871 154 678 380 678 c 0
 607 678 701 870 701 1071 c 0
 701 1288 631 1495 380 1495 c 0
 129 1495 59 1288 59 1071 c 0
425 37 m 1
 1107 1497 l 1
 1236 1430 l 1
 555 -22 l 1
 425 37 l 1
EndSplineSet
EndChar

StartChar: ampersand
Encoding: 8 38 9
Width: 1536
VWidth: 0
GlyphClass: 2
Flags: HW
HStem: -39 139<386.518 930.668> -7 21G<1379.16 1419.86> 1310 135<424.519 762.303>
VStem: 64 182<233.51 593.14> 196 166<1006.98 1248.01> 836 160<993.921 1240.11> 1146 164<397.328 796>
DStem2: 637 781 492 726 0.779114 -0.626883<0 630.146 815.433 1090.78>
LayerCount: 2
Fore
SplineSet
631 -39 m 0xae
 353 -39 64 75 64 396 c 0xb6
 64 621 184 761 398 822 c 1
 307 879 196 1001 196 1113 c 0
 196 1345 386 1445 595 1445 c 0
 803 1445 996 1346 996 1115 c 0
 996 899 813 836 637 781 c 1
 1132 391 l 1
 1141 526 1146 661 1146 796 c 1
 1310 796 l 1
 1310 624 1296 446 1263 277 c 1
 1489 95 l 1
 1403 -7 l 1x6e
 1192 170 l 1
 1105 6 797 -39 631 -39 c 0xae
246 418 m 0
 246 161 398 100 631 100 c 0
 777 100 992 118 1080 256 c 1
 492 726 l 1
 328 691 246 585 246 418 c 0
836 1119 m 0
 836 1258 718 1310 595 1310 c 0
 465 1310 362 1269 362 1121 c 0x2e
 362 1026 467 925 547 883 c 1
 679 922 836 953 836 1119 c 0
EndSplineSet
EndChar

StartChar: quotesingle
Encoding: 9 39 10
Width: 353
VWidth: 0
GlyphClass: 2
Flags: HW
HStem: 1058 521<121.333 229.333>
VStem: 61 228<1400.48 1579>
LayerCount: 2
Fore
SplineSet
61 1508 m 2
 60 1515 59.6666666667 1522.77777778 59.6666666667 1530.85185185 c 0
 59.6666666667 1547 61 1564.33333333 61 1579 c 1
 289 1579 l 1
 289 1564.33333333 290.333333333 1547 290.333333333 1530.85185185 c 0
 290.333333333 1522.77777778 290 1515 289 1508 c 2
 229 1058 l 1
 121 1058 l 1
 61 1508 l 2
EndSplineSet
EndChar

StartChar: parenleft
Encoding: 10 40 11
Width: 467
VWidth: 0
GlyphClass: 2
Flags: HW
HStem: 1575 20G<248.5 401.765>
VStem: 3 186<353.21 1032.29>
LayerCount: 2
Fore
SplineSet
491 1493 m 1
 280 1307 189 965 189 694 c 0
 189 450 268 64 475 -97 c 1
 392 -205 l 1
 117 -30 3 392 3 696 c 0
 3 1003 117 1406 380 1595 c 1
 491 1493 l 1
EndSplineSet
EndChar

StartChar: parenright
Encoding: 11 41 12
Width: 469
VWidth: 0
GlyphClass: 2
Flags: HW
HStem: 1579 20G<63.6296 214.5>
VStem: 281 187<360.608 1043.82>
LayerCount: 2
Fore
SplineSet
281 694 m 0
 281 947 202 1319 -4 1491 c 1
 79 1599 l 1
 350 1413 468 1021 468 710 c 0
 468 382 363 -7 79 -205 c 1
 -21 -99 l 1
 188 81 281 430 281 694 c 0
EndSplineSet
EndChar

StartChar: asterisk
Encoding: 12 42 13
Width: 1017
VWidth: 0
GlyphClass: 2
Flags: HW
HStem: 1090 202<407 609> 1145 92<113 422 594 903>
DStem2: 252 872 354 815 0.4956 0.868551<1.04376 316.218> 594 1145 508 1090 0.4956 -0.868551<5.14873 320.323>
LayerCount: 2
Fore
SplineSet
508 1292 m 1x80
 647 1567 l 1
 750 1509 l 1
 592 1237 l 1
 903 1237 l 1
 903 1145 l 1
 594 1145 l 1x40
 764 872 l 1
 662 815 l 1
 508 1090 l 1x80
 354 815 l 1
 252 872 l 1
 422 1145 l 1
 113 1145 l 1
 113 1237 l 1
 424 1237 l 1x40
 266 1509 l 1
 369 1567 l 1
 508 1292 l 1x80
EndSplineSet
EndChar

StartChar: plus
Encoding: 13 43 14
Width: 1005
VWidth: 0
GlyphClass: 2
Flags: HW
HStem: 518 133<118 431 572 886>
VStem: 431 141<174 518 651 995>
LayerCount: 2
Fore
SplineSet
886 518 m 1
 572 518 l 1
 572 174 l 1
 431 174 l 1
 431 518 l 1
 118 518 l 1
 118 651 l 1
 431 651 l 1
 431 995 l 1
 572 995 l 1
 572 651 l 1
 886 651 l 1
 886 518 l 1
EndSplineSet
EndChar

StartChar: comma
Encoding: 14 44 15
Width: 522
VWidth: 0
GlyphClass: 2
Flags: HW
HStem: -253 94<165.222 206.056>
VStem: 121 281<2.0899 293> 252 150<-111.85 0>
LayerCount: 2
Fore
SplineSet
121 0 m 1xc0
 121 293 l 1
 402 293 l 1
 402 44 l 2xc0
 402 -110 319 -211 173 -253 c 1
 122 -159 l 1
 207 -130 253 -95 252 0 c 1xa0
 121 0 l 1xc0
EndSplineSet
EndChar

StartChar: hyphen
Encoding: 15 45 16
Width: 923
VWidth: 0
GlyphClass: 2
Flags: HW
HStem: 508 157<123 799>
VStem: 123 676<508 665>
LayerCount: 2
Fore
SplineSet
799 508 m 1
 123 508 l 1
 123 665 l 1
 799 665 l 1
 799 508 l 1
EndSplineSet
EndChar

StartChar: period
Encoding: 16 46 17
Width: 456
VWidth: 0
GlyphClass: 2
Flags: HW
HStem: -17 230<141.535 316.618>
VStem: 118 220<6.29114 189.709>
LayerCount: 2
Fore
SplineSet
230 213 m 0
 295 213 338 160 338 98 c 0
 338 36 295 -17 230 -17 c 0
 166 -17 118 35 118 98 c 0
 118 160 167 213 230 213 c 0
EndSplineSet
EndChar

StartChar: slash
Encoding: 17 47 18
Width: 727
VWidth: 0
GlyphClass: 2
Flags: HW
DStem2: -33 -117 137 -179 0.320377 0.94729<0 1946.24>
LayerCount: 2
Fore
SplineSet
-33 -117 m 1
 592 1731 l 1
 761 1669 l 1
 137 -179 l 1
 -33 -117 l 1
EndSplineSet
EndChar

StartChar: zero
Encoding: 18 48 19
Width: 1374
VWidth: 0
GlyphClass: 2
Flags: HW
HStem: -31 142<496.058 873.404> 1069 141<493.899 874.328>
VStem: 118 186<335.074 852.554> 1070 186<333.277 851.37>
LayerCount: 2
Fore
SplineSet
685 1069 m 0
 395 1069 304 846 304 592 c 0
 304 336 399 111 685 111 c 0
 985 111 1070 348 1070 606 c 0
 1070 857 966 1069 685 1069 c 0
1256 590 m 0
 1256 238 1055 -31 685 -31 c 0
 318 -31 118 244 118 590 c 0
 118 945 311 1210 685 1210 c 0
 1057 1210 1256 942 1256 590 c 0
EndSplineSet
EndChar

StartChar: one
Encoding: 19 49 20
Width: 650
VWidth: 0
GlyphClass: 2
Flags: HW
HStem: 0 21G<348 535>
VStem: 348 187<0 1057>
DStem2: 88 1083 141 957 0.907442 0.420177<0 225.01>
LayerCount: 2
Fore
SplineSet
348 0 m 1
 348 1057 l 1
 141 957 l 1
 88 1083 l 1
 345 1202 l 1
 535 1202 l 1
 535 0 l 1
 348 0 l 1
EndSplineSet
EndChar

StartChar: two
Encoding: 20 50 21
Width: 1054
VWidth: 0
GlyphClass: 2
Flags: HW
HStem: 0 152<337 933> 1059 139<282.477 680.67>
VStem: 771 162<693.437 973.616>
LayerCount: 2
Fore
SplineSet
337 152 m 1
 933 152 l 1
 933 0 l 1
 118 0 l 1
 118 146 l 1
 526 480 l 2
 644 577 771 682 771 846 c 0
 771 1007 635 1059 495 1059 c 0
 408 1059 308 1030 230 992 c 1
 177 1108 l 1
 277 1178 396 1198 517 1198 c 0
 751 1198 933 1098 933 845 c 0
 933 548 533 310 337 152 c 1
EndSplineSet
EndChar

StartChar: three
Encoding: 21 51 22
Width: 988
VWidth: 0
GlyphClass: 2
Flags: HW
HStem: -198 139<216.244 647.093> 1063 143<199.5 634.811>
VStem: 724 165<711.899 982.732> 748 180<36.7947 333.835>
LayerCount: 2
Fore
SplineSet
724 843 m 0xe0
 724 1022 590 1063 435 1063 c 0
 331 1063 231 1037 138 992 c 1
 88 1125 l 1
 193 1172 327 1206 441 1206 c 0
 659 1206 889 1121 889 866 c 0xe0
 889 704 772 546 600 545 c 1
 798 504 928 377 928 166 c 0
 928 -88 681 -198 460 -198 c 0
 320 -198 180 -163 55 -102 c 1
 109 31 l 1
 210 -23 350 -59 464 -59 c 0
 628 -59 748 9 748 186 c 0xd0
 748 384 584 452 412 471 c 1
 412 614 l 1
 562 614 724 664 724 843 c 0xe0
EndSplineSet
EndChar

StartChar: four
Encoding: 22 52 23
Width: 1253
VWidth: 0
GlyphClass: 2
Flags: HW
HStem: 68 137<295 785 956 1142>
VStem: 785 171<-260 68 207 930>
DStem2: 110 205 295 205 0.563414 0.826175<104.231 979.281>
LayerCount: 2
Fore
SplineSet
794 1208 m 1
 956 1169 l 1
 956 207 l 1
 1142 207 l 1
 1142 68 l 1
 956 68 l 1
 956 -260 l 1
 785 -260 l 1
 785 68 l 1
 138 68 l 1
 110 205 l 1
 794 1208 l 1
785 930 m 1
 295 205 l 1
 785 205 l 1
 785 930 l 1
EndSplineSet
EndChar

StartChar: five
Encoding: 23 53 24
Width: 990
VWidth: 0
GlyphClass: 2
Flags: HW
HStem: -207 151<208.036 635.66> 562 136<281.94 630.947> 1018 151<239 842>
VStem: 94 145<622 1018> 758 172<62.9517 433.497>
LayerCount: 2
Fore
SplineSet
441 -56 m 0
 642 -56 758 36 758 244 c 0
 758 435 660 562 461 562 c 0
 363 562 248 510 162 468 c 1
 94 537 l 1
 94 1169 l 1
 842 1169 l 1
 842 1018 l 1
 239 1018 l 1
 239 622 l 1
 290 679 409 698 479 698 c 0
 748 698 930 518 930 248 c 0
 930 -49 723 -207 439 -207 c 0
 297 -207 186 -165 58 -114 c 1
 109 31 l 1
 207 -19 331 -56 441 -56 c 0
EndSplineSet
EndChar

StartChar: six
Encoding: 24 54 25
Width: 1235
VWidth: 0
GlyphClass: 2
Flags: HW
HStem: -156 142<452.765 788.266> 657 136<452.338 812.168> 1174 145<738.399 835.251>
VStem: 116 178<158.092 535.2> 945 176<144.664 517.815>
LayerCount: 2
Fore
SplineSet
945 335 m 0
 945 138 828 -14 621 -14 c 0
 371 -14 294 184 294 401 c 0
 294 442 294 483 300 523 c 1
 369 600 555 657 655 657 c 0
 846 657 945 516 945 335 c 0
116 425 m 0
 116 99 268 -156 621 -156 c 0
 916 -156 1121 38 1121 335 c 0
 1121 612 930 793 655 793 c 0
 524 793 400 752 314 649 c 1
 366 931 604 1117 874 1174 c 1
 831 1319 l 1
 393 1216 116 878 116 425 c 0
EndSplineSet
EndChar

StartChar: seven
Encoding: 25 55 26
Width: 1114
VWidth: 0
GlyphClass: 2
Flags: HW
HStem: 1074 155<116 794>
DStem2: 269 -100 437 -176 0.407195 0.913341<0 1286.04>
LayerCount: 2
Fore
SplineSet
952 1229 m 1
 1009 1107 l 1
 437 -176 l 1
 269 -100 l 1
 794 1074 l 1
 116 1074 l 1
 116 1229 l 1
 952 1229 l 1
EndSplineSet
EndChar

StartChar: eight
Encoding: 26 56 27
Width: 1186
VWidth: 0
GlyphClass: 2
Flags: HW
HStem: -148 139<399.632 795.404> 575 116<442.615 751.468> 1199 135<404.585 790.372>
VStem: 120 178<87.2418 426.614 825.502 1101.89> 888 178<81.4445 426.834 818.484 1106.38>
LayerCount: 2
Fore
SplineSet
599 1334 m 0
 372 1334 120 1231 120 968 c 0
 120 798 227 687 382 636 c 1
 196 578 120 418 120 233 c 0
 120 -41 358 -148 599 -148 c 0
 841 -148 1066 -41 1066 231 c 0
 1066 416 990 576 804 634 c 1
 959 687 1066 795 1066 966 c 0
 1066 1227 828 1334 599 1334 c 0
599 -9 m 0
 409 -9 298 54 298 255 c 0
 298 430 418 575 599 575 c 0
 778 575 888 422 888 253 c 0
 888 54 791 -9 599 -9 c 0
599 691 m 0
 445 691 298 805 298 966 c 0
 298 1145 445 1199 599 1199 c 0
 755 1199 888 1140 888 964 c 0
 888 806 752 691 599 691 c 0
EndSplineSet
EndChar

StartChar: nine
Encoding: 27 57 28
Width: 1235
VWidth: 0
GlyphClass: 2
Flags: HW
HStem: -161 145<400.749 504.653> 365 136<423.638 789.699> 1172 142<447.733 783.235>
VStem: 115 176<639.773 1013.34> 942 178<622.788 999.908>
LayerCount: 2
Fore
SplineSet
291 823 m 0
 291 1020 408 1172 615 1172 c 0
 865 1172 942 974 942 757 c 0
 942 716 942 675 936 635 c 1
 869 556 680 501 581 501 c 0
 390 501 291 642 291 823 c 0
1120 733 m 0
 1120 1059 968 1314 615 1314 c 0
 320 1314 115 1120 115 823 c 0
 115 544 305 365 581 365 c 0
 712 365 836 406 922 509 c 1
 870 229 632 39 362 -16 c 1
 405 -161 l 1
 843 -59 1120 280 1120 733 c 0
EndSplineSet
EndChar

StartChar: colon
Encoding: 28 58 29
Width: 528
VWidth: 0
GlyphClass: 2
Flags: HW
HStem: 0 281<129 399> 583 281<129 399>
VStem: 129 270<0 281 583 864>
LayerCount: 2
Fore
SplineSet
129 281 m 1
 399 281 l 1
 399 0 l 1
 129 0 l 1
 129 281 l 1
129 864 m 1
 399 864 l 1
 399 583 l 1
 129 583 l 1
 129 864 l 1
EndSplineSet
EndChar

StartChar: semicolon
Encoding: 29 59 30
Width: 535
VWidth: 0
GlyphClass: 2
Flags: HW
HStem: -253 94<171.222 212.056> 583 281<128 408>
VStem: 127 281<2.0899 293 583 864> 258 150<-111.85 0>
LayerCount: 2
Fore
SplineSet
128 864 m 1xe0
 408 864 l 1
 408 583 l 1
 128 583 l 1
 128 864 l 1xe0
127 0 m 1
 127 293 l 1
 408 293 l 1
 408 44 l 2xe0
 408 -110 325 -211 179 -253 c 1
 128 -159 l 1
 213 -130 259 -95 258 0 c 1xd0
 127 0 l 1
EndSplineSet
EndChar

StartChar: less
Encoding: 30 60 31
Width: 868
VWidth: 0
GlyphClass: 2
Flags: HW
VStem: 52 206<560 766>
DStem2: 258 663 52 663 0.735707 -0.6773<0 738.744> 52 663 258 663 0.735707 0.6773<151.556 890.3>
LayerCount: 2
Fore
SplineSet
52 663 m 1
 707 1266 l 1
 809 1156 l 1
 258 663 l 1
 809 170 l 1
 707 60 l 1
 52 663 l 1
EndSplineSet
EndChar

StartChar: equal
Encoding: 31 61 32
Width: 835
VWidth: 0
GlyphClass: 2
Flags: HW
HStem: 280 131<123 711> 508 131<123 711>
VStem: 123 588<280 411 508 639>
LayerCount: 2
Fore
SplineSet
711 508 m 1
 123 508 l 1
 123 639 l 1
 711 639 l 1
 711 508 l 1
711 280 m 1
 123 280 l 1
 123 411 l 1
 711 411 l 1
 711 280 l 1
EndSplineSet
EndChar

StartChar: greater
Encoding: 32 62 33
Width: 694
VWidth: 0
GlyphClass: 2
Flags: HW
VStem: 524 206<560 766>
DStem2: 75 1266 -27 1156 0.735707 -0.6773<0 738.744> -27 170 75 60 0.735707 0.6773<0.539146 739.283>
LayerCount: 2
Fore
SplineSet
730 663 m 1
 75 1266 l 1
 -27 1156 l 1
 524 663 l 1
 -27 170 l 1
 75 60 l 1
 730 663 l 1
EndSplineSet
EndChar

StartChar: question
Encoding: 33 63 34
Width: 971
VWidth: 0
GlyphClass: 2
Flags: HW
HStem: -40 209<204.501 371.705> 1332 21G<81.7483 134.5> 1418 161<174.918 645.344>
VStem: 183 209<-20.4883 148.515> 206 180<292 688.197> 729 191<1053.84 1336.84>
LayerCount: 2
Fore
SplineSet
386 675 m 1xec
 386 292 l 1
 206 292 l 1
 206 777 l 1
 396 841 729 947 729 1197 c 0
 729 1392 581 1418 418 1418 c 0
 315 1418 179 1388 90 1332 c 1
 31 1475 l 1
 144 1540 309 1579 437 1579 c 0
 678 1579 920 1499 920 1216 c 0
 920 896 647 767 386 675 c 1xec
287 -40 m 0
 227 -40 183 12 183 70 c 0
 183 127 237 169 291 169 c 0
 346 169 392 118 392 64 c 0xf4
 392 7 344 -40 287 -40 c 0
EndSplineSet
EndChar

StartChar: at
Encoding: 34 64 35
Width: 1873
VWidth: 0
GlyphClass: 2
Flags: HW
HStem: -155 139<652.384 1248.65> 199 131<679.917 991.734 1355 1503.04> 1008 120<842.911 1203.61> 1317 139<710.218 1257.63>
VStem: 108 159<340.507 859.727> 448 155<406.697 762.018> 1207 148<627.845 987> 1228 127<322.143 548> 1609 160<507.541 998.602>
LayerCount: 2
Fore
SplineSet
1207 987 m 1xfe80
 1150 999 1090 1008 1031 1008 c 0
 788 1008 603 814 603 573 c 0
 603 422 670 330 828 330 c 0
 1168 330 1205 734 1207 987 c 1xfe80
1440 134 m 1
 1531 42 l 1
 1395 -109 1136 -155 943 -155 c 0
 475 -155 108 78 108 578 c 0
 108 1072 459 1456 960 1456 c 0
 1396 1456 1769 1230 1769 756 c 0
 1769 490 1630 199 1328 199 c 0
 1238.11740891 199 1220.28644954 289.610385353 1220.28644954 383.463432985 c 0
 1220.28644954 445.192283106 1228 508.32388664 1228 548 c 1xfd80
 1186 343 1025 199 812 199 c 0
 574 199 448 361 448 590 c 0
 448 886 728 1128 1015 1128 c 0
 1108 1128 1208 1111 1300 1096 c 1
 1355 987 l 1xfe80
 1355 317 l 2xfd80
 1355.84770753 316.99262863 1356.6926167 316.988952183 1357.53473663 316.988952183 c 0
 1585.17658685 316.988952183 1609 585.637623491 1609 758 c 0
 1609 1158 1331 1317 966 1317 c 0
 527 1317 267 1004 267 578 c 0
 267 159 565 -16 953 -16 c 0
 1138 -16 1295 20 1440 134 c 1
EndSplineSet
EndChar

StartChar: A
Encoding: 35 65 36
Width: 1501
VWidth: 0
GlyphClass: 2
Flags: HW
HStem: 0 21G<84 283.423 1216.58 1416> 383 102<433 1067> 1460 119<600 900>
VStem: 84 193<0 193> 1223 193<0 193>
DStem2: 84 0 277 0 0.310624 0.950533<59.9504 462.211 569.416 1594.65> 900 1579 750 1460 0.310624 -0.950533<66.5199 1091.76 1198.96 1601.22>
LayerCount: 2
Fore
SplineSet
1067 485 m 1
 750 1460 l 1
 433 485 l 1
 1067 485 l 1
1100 383 m 1
 400 383 l 1
 277 0 l 1
 84 0 l 1
 600 1579 l 1
 900 1579 l 1
 1416 0 l 1
 1223 0 l 1
 1100 383 l 1
EndSplineSet
EndChar

StartChar: B
Encoding: 36 66 37
Width: 1350
VWidth: 0
GlyphClass: 2
Flags: HW
HStem: 0 143<317 895.375> 786 129<317 827.021> 1436 143<317 856.88>
VStem: 123 194<143 786 915 1436> 996 165<1031.41 1325.7> 1061 182<290.725 642.231>
LayerCount: 2
Fore
SplineSet
996 1188 m 0xf8
 996 1424.70344828 736.442425684 1436.1305113 546.21278642 1436.1305113 c 0
 525.882901308 1436.1305113 506.344827586 1436 488 1436 c 2
 317 1436 l 1
 317 915 l 1
 576 915 l 2
 783 915 996 935 996 1188 c 0xf8
543 143 m 2
 792 143 1061 152 1061 466 c 0xf4
 1061 759 818 786 580 786 c 2
 317 786 l 1
 317 143 l 1
 543 143 l 2
836 862 m 1
 1092 833 1243 699 1243 434 c 0xf4
 1243 46 844 0 543 0 c 2
 123 0 l 1
 123 1579 l 1
 484 1579 l 2
 783 1579 1161 1570 1161 1188 c 0xf8
 1161 976 1038 892 836 862 c 1
EndSplineSet
EndChar

StartChar: C
Encoding: 37 67 38
Width: 1328
VWidth: 0
GlyphClass: 2
Flags: HW
HStem: -41 152<578.267 1007.26> 1458 152<583.967 1068.51>
VStem: 114 201<436.269 1137.53>
LayerCount: 2
Fore
SplineSet
794 1458 m 0
 390 1458 315 1119 315 784 c 0
 315 446 394 111 794 111 c 0
 925 111 1049 171 1168 218 c 1
 1224 79 l 1
 1074 18 942 -41 774 -41 c 0
 270 -41 114 348 114 788 c 0
 114 1252 291 1610 794 1610 c 0
 955 1610 1046 1574 1196 1530 c 1
 1151 1385 l 1
 1031 1430 924 1458 794 1458 c 0
EndSplineSet
EndChar

StartChar: D
Encoding: 38 68 39
Width: 1469
VWidth: 0
GlyphClass: 2
Flags: HW
HStem: 0 143<317 906.759> 1436 143<317 907.093>
VStem: 123 194<143 1436> 1156 201<441.069 1135.94>
LayerCount: 2
Fore
SplineSet
698 1436 m 2
 317 1436 l 1
 317 143 l 1
 698 143 l 2
 1091 143 1156 465 1156 789 c 0
 1156 1111 1087 1436 698 1436 c 2
698 1579 m 2
 1195 1579 1357 1238 1357 788 c 0
 1357 338 1194 0 698 0 c 2
 123 0 l 1
 123 1579 l 1
 698 1579 l 2
EndSplineSet
EndChar

StartChar: E
Encoding: 39 69 40
Width: 1219
VWidth: 0
GlyphClass: 2
Flags: HW
HStem: 0 143<317 1106> 776 115<317 995> 1436 143<317 1093>
VStem: 123 194<143 776 891 1436>
LayerCount: 2
Fore
SplineSet
1106 0 m 1
 123 0 l 1
 123 1579 l 1
 1093 1579 l 1
 1093 1436 l 1
 317 1436 l 1
 317 891 l 1
 995 891 l 1
 995 776 l 1
 317 776 l 1
 317 143 l 1
 1106 143 l 1
 1106 0 l 1
EndSplineSet
EndChar

StartChar: F
Encoding: 40 70 41
Width: 1154
VWidth: 0
GlyphClass: 2
Flags: HW
HStem: 0 21G<123 319> 762 117<319 983> 1436 143<319 1044>
VStem: 123 196<0 762 879 1436>
LayerCount: 2
Fore
SplineSet
319 762 m 1
 319 0 l 1
 123 0 l 1
 123 1579 l 1
 1044 1579 l 1
 1044 1436 l 1
 319 1436 l 1
 319 879 l 1
 983 879 l 1
 983 762 l 1
 319 762 l 1
EndSplineSet
EndChar

StartChar: G
Encoding: 41 71 42
Width: 1473
VWidth: 0
GlyphClass: 2
Flags: HW
HStem: -41 152<578.41 1009.11> 0 21G<1260.02 1353> 684 127<766 1168> 1458 152<578.453 1030.73>
VStem: 114 201<451.909 1142.49> 1168 185<249.32 684> 1265 88<0 57.6145>
LayerCount: 2
Fore
SplineSet
745 -41 m 0xba
 284 -41 114 388 114 786 c 0
 114 1243 289 1610 788 1610 c 0
 952 1610 1094 1562 1230 1476 c 1
 1164 1341 l 1
 1070 1420 905 1458 786 1458 c 0
 383 1458 315 1112 315 782 c 0
 315 449 387 111 792 111 c 0
 978 111 1168 183 1168 399 c 2
 1168 684 l 1xbc
 766 684 l 1
 766 811 l 1
 1353 811 l 1
 1353 0 l 1
 1265 0 l 1x7a
 1212 213 l 1
 1162 10 925 -41 745 -41 c 0xba
EndSplineSet
EndChar

StartChar: H
Encoding: 42 72 43
Width: 1467
VWidth: 0
GlyphClass: 2
Flags: HW
HStem: 0 21G<123 317 1149 1343> 764 115<317 1149> 1559 20G<123 317 1149 1343>
VStem: 123 194<0 764 879 1579> 1149 194<0 764 879 1579>
LayerCount: 2
Fore
SplineSet
1149 0 m 1
 1149 764 l 1
 317 764 l 1
 317 0 l 1
 123 0 l 1
 123 1579 l 1
 317 1579 l 1
 317 879 l 1
 1149 879 l 1
 1149 1579 l 1
 1343 1579 l 1
 1343 0 l 1
 1149 0 l 1
EndSplineSet
EndChar

StartChar: I
Encoding: 43 73 44
Width: 823
VWidth: 0
GlyphClass: 2
Flags: HW
HStem: 0 112<114 318 501 707> 1461 118<114 318 501 707>
VStem: 318 183<112 1461>
LayerCount: 2
Fore
SplineSet
114 112 m 1
 318 112 l 1
 318 1461 l 1
 114 1461 l 1
 114 1579 l 1
 707 1579 l 1
 707 1461 l 1
 501 1461 l 1
 501 112 l 1
 707 112 l 1
 707 0 l 1
 114 0 l 1
 114 112 l 1
EndSplineSet
EndChar

StartChar: J
Encoding: 44 74 45
Width: 727
VWidth: 0
GlyphClass: 2
Flags: HW
HStem: -90 127<136 251.851> 1559 20G<411 603>
VStem: 411 192<182.955 1579>
LayerCount: 2
Fore
SplineSet
136 -90 m 1
 89 37 l 5
 397 83 411 203 411 479 c 2
 411 1579 l 1
 603 1579 l 1
 603 514 l 2
 603 168 544 -90 136 -90 c 1
EndSplineSet
EndChar

StartChar: K
Encoding: 45 75 46
Width: 1366
VWidth: 0
GlyphClass: 2
Flags: HW
HStem: 0 21G<123 317 1072.14 1290> 747 107<317 532> 1559 20G<123 317 1016.48 1223>
VStem: 123 194<0 747 854 1579> 1030 193<1386 1579> 1087 203<0 203>
DStem2: 694 798 532 747 0.598392 -0.801203<0 874.528> 540 854 694 798 0.560801 0.82795<39.9982 875.057>
LayerCount: 2
Fore
SplineSet
317 747 m 1xf4
 317 0 l 1
 123 0 l 1
 123 1579 l 1
 317 1579 l 1
 317 854 l 1
 540 854 l 1
 1030 1579 l 1
 1223 1579 l 1xf8
 694 798 l 1
 1290 0 l 1
 1087 0 l 1
 532 747 l 1
 317 747 l 1xf4
EndSplineSet
EndChar

StartChar: L
Encoding: 46 76 47
Width: 1175
VWidth: 0
GlyphClass: 2
Flags: HW
HStem: 0 143<317 1063> 1559 20G<123 317>
VStem: 123 194<143 1579>
LayerCount: 2
Fore
SplineSet
1063 0 m 1
 123 0 l 1
 123 1579 l 1
 317 1579 l 1
 317 143 l 1
 1063 143 l 1
 1063 0 l 1
EndSplineSet
EndChar

StartChar: M
Encoding: 47 77 48
Width: 1779
VWidth: 0
GlyphClass: 2
Flags: HW
HStem: 0 178<791 987> 1559 20G<123 420.781 1357.22 1655>
VStem: 123 155<0 1469> 1500 155<0 1469>
DStem2: 414 1579 278 1469 0.329692 -0.944089<59.0116 1479.27> 889 178 987 0 0.329692 0.944089<0 1420.26>
LayerCount: 2
Fore
SplineSet
791 0 m 1
 278 1469 l 1
 278 0 l 1
 123 0 l 1
 123 1579 l 1
 414 1579 l 1
 889 178 l 1
 1364 1579 l 1
 1655 1579 l 1
 1655 0 l 1
 1500 0 l 1
 1500 1469 l 1
 987 0 l 1
 791 0 l 1
EndSplineSet
EndChar

StartChar: N
Encoding: 48 78 49
Width: 1500
VWidth: 0
GlyphClass: 2
Flags: HW
HStem: 0 21G<123 285 1102.44 1376> 1559 20G<123 396.562 1214 1376>
VStem: 123 162<0 1434> 1214 162<145 1579>
DStem2: 385 1579 285 1434 0.500489 -0.865743<75.4838 1656.38>
LayerCount: 2
Fore
SplineSet
1214 145 m 1
 1214 1579 l 1
 1376 1579 l 1
 1376 0 l 1
 1114 0 l 1
 285 1434 l 1
 285 0 l 1
 123 0 l 1
 123 1579 l 1
 385 1579 l 1
 1214 145 l 1
EndSplineSet
EndChar

StartChar: O
Encoding: 49 79 50
Width: 1536
VWidth: 0
GlyphClass: 2
Flags: HW
HStem: -41 152<577.227 976.309> 1458 152<568.803 968.993>
VStem: 114 200<428.509 1133.63> 1224 200<428.504 1145.64>
LayerCount: 2
Fore
SplineSet
1424 784 m 0
 1424 344 1270 -41 768 -41 c 0
 270 -41 114 335 114 784 c 0
 114 1214 269 1610 754 1610 c 0
 1265 1610 1424 1236 1424 784 c 0
1224 784 m 0
 1224 1103 1160 1458 770 1458 c 0
 377 1458 314 1101 314 784 c 0
 314 458 385 111 779 111 c 0
 1160 111 1224 480 1224 784 c 0
EndSplineSet
EndChar

StartChar: P
Encoding: 50 80 51
Width: 1330
VWidth: 0
GlyphClass: 2
Flags: HW
HStem: 0 21G<123 317> 639 145<317 797.251> 1436 143<317 879.98>
VStem: 123 194<0 639 784 1436> 1038 182<928.851 1293.44>
LayerCount: 2
Fore
SplineSet
487 784 m 2
 708 784 1038 790 1038 1084 c 0
 1038 1422 831 1436 532 1436 c 2
 317 1436 l 1
 317 784 l 1
 487 784 l 2
1220 1108 m 0
 1220 660.698181818 777.577838017 638.739728926 427.401879754 638.739728926 c 0
 389.277884298 638.739728926 352.247272727 639 317 639 c 1
 317 0 l 1
 123 0 l 1
 123 1579 l 1
 520 1579 l 2
 874 1579 1220 1536 1220 1108 c 0
EndSplineSet
EndChar

StartChar: Q
Encoding: 51 81 52
Width: 1549
VWidth: 0
GlyphClass: 2
Flags: HW
HStem: 1458 152<571.479 980.409>
VStem: 112 201<433.715 1138.6> 1239 200<429.814 1137.11>
LayerCount: 2
Fore
SplineSet
776 1458 m 0
 383 1458 313 1103 313 784 c 0
 313 466 385 111 776 111 c 0
 1169 111 1239 465 1239 784 c 0
 1239 1101 1166 1458 776 1458 c 0
1439 784 m 0
 1439 414 1327 37 911 -29 c 1
 1290 -293 l 1
 1171 -424 l 1
 678 -35 l 1
 233 15 112 399 112 792 c 0
 112 1228 285 1610 776 1610 c 0
 1270 1610 1439 1230 1439 784 c 0
EndSplineSet
EndChar

StartChar: R
Encoding: 52 82 53
Width: 1333
VWidth: 0
GlyphClass: 2
Flags: HW
HStem: 0 21G<123 317 1032 1214> 733 129<317 795.717> 1436 143<317 906.985>
VStem: 123 194<0 733 862 1436> 1046 170<0 498.793 1002.65 1312.16>
LayerCount: 2
Fore
SplineSet
803 797 m 1
 1053 770 1214 668 1214 397 c 2
 1214 0 l 1
 1032 0 l 1
 1032 120.960099751 1036.38410831 224.334506626 1036.38410831 311.97088722 c 0
 1036.38410831 619.190558516 982.506234414 733 497 733 c 2
 317 733 l 1
 317 0 l 1
 123 0 l 1
 123 1579 l 1
 499 1579 l 2
 813 1579 1216 1579 1216 1160 c 0
 1216 926 1021 797 803 797 c 1
317 862 m 1
 558 862 l 2
 758 862 1046 885 1046 1150 c 0
 1046 1416.01876676 822.059268736 1436.70119098 612.082089669 1436.70119098 c 0
 573.419624952 1436.70119098 535.230563003 1436 499 1436 c 2
 317 1436 l 1
 317 862 l 1
EndSplineSet
EndChar

StartChar: S
Encoding: 53 83 54
Width: 1096
VWidth: 0
GlyphClass: 2
Flags: HW
HStem: -41 152<239.415 752.136> 1458 152<307.102 801.902>
VStem: 1 183<1093.57 1354.33> 911 184<247.307 556.92>
LayerCount: 2
Fore
SplineSet
70 72 m 1
 90 222 l 1
 233 147 335 111 500 111 c 0
 712 111 911 166 911 416 c 0
 911 866 1 654 1 1217 c 0
 1 1494 258 1610 500 1610 c 0
 672 1610 843 1569 993 1484 c 1
 963 1337 l 1
 850 1409 696 1458 562 1458 c 0
 381 1458 184 1429 184 1208 c 0
 184 820 1095 1050 1095 426 c 0
 1095 91 838 -41 532 -41 c 0
 388 -41 193 -5 70 72 c 1
EndSplineSet
EndChar

StartChar: T
Encoding: 54 84 55
Width: 1341
VWidth: 0
GlyphClass: 2
Flags: HW
HStem: 0 21G<576 766> 1436 143<116 576 766 1224>
VStem: 576 190<0 1436>
LayerCount: 2
Fore
SplineSet
1224 1436 m 1
 766 1436 l 1
 766 0 l 1
 576 0 l 1
 576 1436 l 1
 116 1436 l 1
 116 1579 l 1
 1224 1579 l 1
 1224 1436 l 1
EndSplineSet
EndChar

StartChar: U
Encoding: 55 85 56
Width: 1499
VWidth: 0
GlyphClass: 2
Flags: HW
HStem: -41 141<527.174 970.102> 1559 20G<122 314 1182 1378>
VStem: 122 192<362.256 1579> 1182 196<362.696 1579>
LayerCount: 2
Fore
SplineSet
748 -41 m 0
 262 -41 122 278 122 715 c 2
 122 1579 l 1
 314 1579 l 1
 314 711 l 2
 314 373 359 100 748 100 c 0
 1139 100 1182 375 1182 711 c 2
 1182 1579 l 1
 1378 1579 l 1
 1378 715 l 2
 1378 279 1238 -41 748 -41 c 0
EndSplineSet
EndChar

StartChar: V
Encoding: 56 86 57
Width: 1406
VWidth: 0
GlyphClass: 2
Flags: HW
HStem: 0 180<582 826> 1559 20G<86 276.204 1131.8 1320>
VStem: 86 184<1395 1579> 1138 182<1397 1579>
DStem2: 270 1579 86 1579 0.299685 -0.954038<0 1464.76> 704 180 826 0 0.298585 0.954383<0 1464.77>
LayerCount: 2
Fore
SplineSet
582 0 m 1
 86 1579 l 1
 270 1579 l 1
 704 180 l 1
 1138 1579 l 1
 1320 1579 l 1
 826 0 l 1
 582 0 l 1
EndSplineSet
EndChar

StartChar: W
Encoding: 57 87 58
Width: 2020
VWidth: 0
GlyphClass: 2
Flags: HW
HStem: 0 21G<439.491 715.486 1304.51 1579.51> 1333 156<873 1147> 1559 20G<88 273.416 1746.58 1931>
VStem: 88 181<1398 1579> 1751 180<1399 1579>
DStem2: 269 1579 88 1579 0.219939 -0.975514<0 1437.8> 579 175 711 0 0.218868 0.975755<0 1224.26> 1147 1489 1010 1333 0.218868 -0.975755<122.233 1346.49> 1441 175 1575 0 0.219939 0.975514<0 1437.8>
LayerCount: 2
Fore
SplineSet
1147 1489 m 1
 1441 175 l 1
 1751 1579 l 1
 1931 1579 l 1
 1575 0 l 1
 1309 0 l 1
 1010 1333 l 1
 711 0 l 1
 444 0 l 1
 88 1579 l 1
 269 1579 l 1
 579 175 l 1
 873 1489 l 1
 1147 1489 l 1
EndSplineSet
EndChar

StartChar: X
Encoding: 58 88 59
Width: 1404
VWidth: 0
GlyphClass: 2
Flags: HW
HStem: 0 21G<96 378.333 1077.6 1308> 1559 20G<98 306.439 1097.56 1306>
VStem: 96 218<0 218> 98 196<1383 1579> 1090 218<0 218> 1110 196<1383 1579>
DStem2: 96 0 314 0 0.531974 0.846761<115.97 852.448 1103.94 1876.46> 294 1579 98 1579 0.531974 -0.846761<0 772.52 1024.01 1760.49> 811 800 702 626 0.531974 -0.846761<89.3512 825.829>
LayerCount: 2
Fore
SplineSet
314 0 m 1xe8
 96 0 l 1xe8
 593 800 l 1
 98 1579 l 1
 294 1579 l 1
 702 923 l 1
 1110 1579 l 1
 1306 1579 l 1xd4
 811 800 l 1
 1308 0 l 1
 1090 0 l 1
 702 626 l 1
 572 418 443 209 314 0 c 1xe8
EndSplineSet
EndChar

StartChar: Y
Encoding: 59 89 60
Width: 1383
VWidth: 0
GlyphClass: 2
Flags: HW
HStem: 0 21G<596 786> 1559 20G<82 346 1099.84 1300>
VStem: 596 190<0 485>
DStem2: 279 1579 82 1579 0.425239 -0.905081<0 993.708> 696 677 786 485 0.425239 0.905081<0 992.007>
LayerCount: 2
Fore
SplineSet
696 677 m 1
 1109 1579 l 1
 1300 1579 l 1
 786 485 l 1
 786 0 l 1
 596 0 l 1
 596 485 l 1
 82 1579 l 1
 279 1579 l 1
 413 1276 552 975 696 677 c 1
EndSplineSet
EndChar

StartChar: Z
Encoding: 60 90 61
Width: 1270
VWidth: 0
GlyphClass: 2
Flags: HW
HStem: 0 143<316 1151> 1447 132<119 948>
DStem2: 119 180 316 143 0.546648 0.837362<76.7073 1514.11>
LayerCount: 2
Fore
SplineSet
1149 1579 m 1
 1149 1419 l 1
 316 143 l 1
 1151 143 l 1
 1151 0 l 1
 119 0 l 1
 119 180 l 1
 948 1447 l 1
 119 1447 l 1
 119 1579 l 1
 1149 1579 l 1
EndSplineSet
EndChar

StartChar: bracketleft
Encoding: 61 91 62
Width: 900
VWidth: 0
GlyphClass: 2
Flags: HW
HStem: 0 143<314 785> 1436 143<314 785>
VStem: 121 193<143 1436>
LayerCount: 2
Fore
SplineSet
121 1579 m 1
 785 1579 l 1
 785 1436 l 1
 314 1436 l 1
 314 143 l 1
 785 143 l 1
 785 0 l 1
 121 0 l 1
 121 1579 l 1
EndSplineSet
EndChar

StartChar: backslash
Encoding: 62 92 63
Width: 714
VWidth: 0
GlyphClass: 2
Flags: HW
DStem2: 125 1731 -33 1679 0.318071 -0.948067<0 1947.34>
LayerCount: 2
Fore
SplineSet
125 1731 m 1
 748 -114 l 1
 588 -172 l 1
 -33 1679 l 1
 125 1731 l 1
EndSplineSet
EndChar

StartChar: bracketright
Encoding: 63 93 64
Width: 900
VWidth: 0
GlyphClass: 2
Flags: HW
HStem: 0 143<116 587> 1436 143<116 587>
VStem: 587 193<143 1436>
LayerCount: 2
Fore
SplineSet
116 1579 m 1
 780 1579 l 1
 780 0 l 1
 116 0 l 1
 116 143 l 1
 587 143 l 1
 587 1436 l 1
 116 1436 l 1
 116 1579 l 1
EndSplineSet
EndChar

StartChar: asciicircum
Encoding: 64 94 65
Width: 877
VWidth: 0
GlyphClass: 2
Flags: HW
HStem: 809 202<289 587>
DStem2: 98 510 226 432 0.503549 0.863966<0 429.533> 486 1011 438 809 0.503549 -0.863966<150.351 579.884>
LayerCount: 2
Fore
SplineSet
438 809 m 1
 650 432 l 1
 778 510 l 1
 486 1011 l 1
 390 1011 l 1
 98 510 l 1
 226 432 l 1
 438 809 l 1
EndSplineSet
EndChar

StartChar: underscore
Encoding: 65 95 66
Width: 1187
VWidth: 0
GlyphClass: 2
Flags: HW
HStem: -111 144<123 1063>
LayerCount: 2
Fore
SplineSet
1063 -111 m 1
 123 -111 l 1
 123 33 l 1
 1063 33 l 1
 1063 -111 l 1
EndSplineSet
EndChar

StartChar: grave
Encoding: 66 96 67
Width: 458
VWidth: 0
GlyphClass: 2
Flags: HW
HStem: 330 644
VStem: 29 395
LayerCount: 2
Fore
SplineSet
424 356 m 1
 357 330 l 1
 29 885 l 1
 271 974 l 1
 424 356 l 1
EndSplineSet
EndChar

StartChar: a
Encoding: 67 97 68
Width: 1193
VWidth: 0
GlyphClass: 2
Flags: HW
HStem: -20 137<375.58 718.876> 0 21G<931.854 1075> 590 125<396.247 868.783> 1047 143<389.891 796.383>
VStem: 110 191<190.815 502.903> 885 190<232.157 575.598 665 950.077> 935 140<0 91.136>
LayerCount: 2
Fore
SplineSet
549 117 m 4xbc
 678 117 793 185 885 271 c 1
 885 569 l 1
 798 583 711 590 623 590 c 0
 451 590 301 556 301 356 c 0
 301 182 381 117 549 117 c 4xbc
885 665 m 1
 885 713 l 2
 885 925 857 1047 613 1047 c 0
 495 1047 350 999 250 935 c 1
 183 1057 l 1
 316 1132 446 1190 603 1190 c 0
 974 1190 1075 1043 1075 686 c 2xbc
 1075 0 l 1
 935 0 l 1x7a
 907 178 l 1
 809 44 669 -20 502 -20 c 0
 263 -20 110 97 110 343 c 0
 110 603 318 715 554 715 c 0
 640 715 804 694 885 665 c 1
EndSplineSet
EndChar

StartChar: b
Encoding: 68 98 69
Width: 1252
VWidth: 0
GlyphClass: 2
Flags: HW
HStem: -20 137<486.544 811.536> 0 21G<126 269.146> 1047 143<487.761 816.004>
VStem: 126 190<234.802 938.211 1030 1579> 126 140<0 91.136> 958 182<300.873 865>
LayerCount: 2
Fore
SplineSet
664 -20 m 0xb4
 517 -20 386 70 294 178 c 1
 266 0 l 1
 126 0 l 1x6c
 126 1579 l 1
 316 1614 l 1
 316 1030 l 1
 401 1115 543 1190 664 1190 c 0
 1010 1190 1140 881 1140 580 c 0
 1140 277 1009 -20 664 -20 c 0xb4
958 584 m 0
 958 779 921 1047 671 1047 c 0
 555 1047 400 982 316 902 c 1
 316 273 l 1
 413 177 536 117 671 117 c 4xb4
 918 117 958 390 958 584 c 0
EndSplineSet
EndChar

StartChar: c
Encoding: 69 99 70
Width: 1115
VWidth: 0
GlyphClass: 2
Flags: HW
HStem: -20 137<467.201 831.14> 1040 150<467.381 839.527>
VStem: 111 190<310.521 841.648>
LayerCount: 2
Fore
SplineSet
301 580 m 0
 301 810 369 1040 639 1040 c 0
 755 1040 865 1000 953 924 c 1
 1010 1057 l 1
 896 1138 763 1190 622 1190 c 0
 269 1190 111 903 111 580 c 0
 111 260 269 -20 619 -20 c 0
 761 -20 896 31 1010 111 c 1
 953 245 l 1
 863 155 745 117 624 117 c 0
 368 117 301 360 301 580 c 0
EndSplineSet
EndChar

StartChar: d
Encoding: 70 100 71
Width: 1253
VWidth: 0
GlyphClass: 2
Flags: HW
HStem: -20 137<443.441 769.95> 0 21G<985.872 1130> 1047 143<441.314 774.562>
VStem: 113 182<304.171 860.582> 940 190<233.414 934.733 1028 1579> 989 141<0 91.648>
LayerCount: 2
Fore
SplineSet
113 584 m 0xb4
 113 870 243 1190 575 1190 c 0
 702 1190 859 1129 940 1028 c 1
 940 1614 l 1
 1130 1579 l 1xb8
 1130 0 l 1
 989 0 l 1x74
 961 179 l 1
 878 71 737 -20 597 -20 c 0
 247 -20 113 275 113 584 c 0xb4
295 587 m 0
 295 381 337 117 593 117 c 4
 715 117 857 181 940 275 c 1
 940 903 l 1
 839 980 717 1047 587 1047 c 0
 337 1047 295 787 295 587 c 0
EndSplineSet
EndChar

StartChar: e
Encoding: 71 101 72
Width: 1182
VWidth: 0
GlyphClass: 2
Flags: HW
HStem: -20 137<471.039 836.059> 563 119<304 903> 1057 133<462.982 782.95>
VStem: 113 187<317.841 563 682 848.249> 903 168<682 919.729>
LayerCount: 2
Fore
SplineSet
903 717 m 2
 903 898 834 1057 629 1057 c 0
 401 1057 321 882 304 682 c 1
 903 682 l 1
 903 717 l 2
300 563 m 1
 302 326 383 117 649 117 c 4
 762 117 870 165 955 244 c 1
 1017 99 l 1
 918 30 759 -20 637 -20 c 0
 275 -20 113 246 113 578 c 0
 113 897 276 1190 628 1190 c 0
 934 1190 1071 957 1071 676 c 0
 1071 638 1066 600 1060 563 c 1
 300 563 l 1
EndSplineSet
EndChar

StartChar: f
Encoding: 72 102 73
Width: 898
VWidth: 0
GlyphClass: 2
Flags: HW
HStem: 0 21G<262 452> 1064 105<67 262 452 800> 1516 143<489.418 735.931>
VStem: 262 190<0 1064 1169 1472.95>
LayerCount: 2
Fore
SplineSet
617 1516 m 0
 470.253968254 1516 446.960947342 1430.28168304 446.960947342 1324.02853464 c 0
 446.960947342 1274.60846561 452 1220.74603175 452 1169 c 1
 800 1169 l 1
 800 1064 l 1
 452 1064 l 1
 452 0 l 1
 262 0 l 1
 262 1064 l 1
 67 1064 l 1
 67 1169 l 1
 262 1169 l 1
 262 1421 289 1659 593 1659 c 0
 674 1659 770 1615 835 1567 c 1
 772 1442 l 1
 730 1480 676 1516 617 1516 c 0
EndSplineSet
EndChar

StartChar: g
Encoding: 73 103 74
Width: 1225
VWidth: 0
GlyphClass: 2
Flags: HW
HStem: -427 150<303.698 873.708> 76 134<288.689 749.412> 1026 145<908.46 1144> 1058 132<365.445 754.839>
VStem: 82 158<-218.71 13.2212> 129 139<212.468 380.599 703.549 962.923> 822 167<668.574 990.554> 954 162<-208.239 11.3793>
LayerCount: 2
Fore
SplineSet
240 -110 m 0xc9
 240 -37 274 37 337 76 c 1
 659 76 l 2
 796 76 954 65 954 -111 c 0
 954 -270.347368421 733.429695291 -277.056731302 604.883599359 -277.056731302 c 0
 593.063268698 -277.056731302 582.021052632 -277 572 -277 c 0
 561.528795812 -277 550.4821688 -277.056138812 539.030005004 -277.056138812 c 0
 413.771963488 -277.056138812 240 -270.340314136 240 -110 c 0xc9
279 845 m 0
 279 1009 414 1058 555 1058 c 0
 698 1058 822 1031 822 860 c 0xd2
 822 593 685 580 462 552 c 1
 353 599 279 729 279 845 c 0
248 107 m 1
 149 62 82 -12 82 -125 c 0
 82 -407 378 -427 592 -427 c 0
 799 -427 1116 -372 1116 -106 c 0xd9
 1116 175.771681416 832.233474822 217.164689482 574.625000482 217.164689482 c 0
 467.449544992 217.164689482 364.801769912 210 289 210 c 1
 278 246 268 284 268 322 c 0
 268 511 989 296 989 812 c 0
 989 888 979 983 906 1026 c 1
 1144 1026 l 1
 1144 1171 l 1xe6
 1035 1170 938 1165 839 1114 c 1
 760 1175 656 1190 559 1190 c 0
 356 1190 118 1089 118 854 c 0
 118 718 186 578 315 521 c 1
 215 506 129 424 129 320 c 0xd6
 129 235 179 154 248 107 c 1
EndSplineSet
EndChar

StartChar: h
Encoding: 74 104 75
Width: 1229
VWidth: 0
GlyphClass: 2
Flags: HW
HStem: 0 21G<123 313 920 1110> 1047 143<504.775 829.64>
VStem: 123 190<0 924.901 1011 1579> 920 190<0 943.113>
LayerCount: 2
Fore
SplineSet
688 1047 m 0
 564 1047 399 979 313 888 c 1
 313 0 l 1
 123 0 l 1
 123 1579 l 1
 313 1616 l 1
 313 1011 l 1
 419 1108 539 1190 702 1190 c 4
 995 1190 1110 1018 1110 727 c 2
 1110 0 l 1
 920 0 l 1
 920 727 l 2
 920 892 882 1047 688 1047 c 0
EndSplineSet
EndChar

StartChar: i
Encoding: 75 105 76
Width: 468
VWidth: 0
GlyphClass: 2
Flags: HW
HStem: 0 21G<142 324> 1149 20G<142 324> 1347 230<148.535 323.618>
VStem: 125 220<1370.29 1553.71> 142 182<0 1169>
LayerCount: 2
Fore
SplineSet
324 0 m 1xe8
 142 0 l 1
 142 1169 l 1
 324 1169 l 1
 324 0 l 1xe8
237 1577 m 0
 302 1577 345 1524 345 1462 c 0
 345 1400 302 1347 237 1347 c 0
 173 1347 125 1399 125 1462 c 0xf0
 125 1524 174 1577 237 1577 c 0
EndSplineSet
EndChar

StartChar: j
Encoding: 76 106 77
Width: 606
VWidth: 0
GlyphClass: 2
Flags: HW
HStem: 1149 20G<281 471> 1347 230<286.535 461.618>
VStem: 263 220<1370.29 1553.71> 281 190<-95.0117 1169>
LayerCount: 2
Fore
SplineSet
93 -258 m 1xd0
 267 -147 281 -14 281 176 c 2
 281 1169 l 1
 471 1169 l 1
 471 154 l 2
 471 -68 378 -315 140 -373 c 1
 93 -258 l 1xd0
375 1577 m 0
 440 1577 483 1524 483 1462 c 0
 483 1400 440 1347 375 1347 c 0
 311 1347 263 1399 263 1462 c 0xe0
 263 1524 312 1577 375 1577 c 0
EndSplineSet
EndChar

StartChar: k
Encoding: 77 107 78
Width: 1213
VWidth: 0
GlyphClass: 2
Flags: HW
HStem: 0 21G<125 315 893.703 1132> 1149 20G<853.373 1099>
VStem: 125 190<0 459 627 1579> 874 225<944 1169> 911 221<0 221>
DStem2: 315 627 546 648 0.717939 0.696106<180.462 778.617> 546 648 431 555 0.670733 -0.741698<0 725.438>
LayerCount: 2
Fore
SplineSet
1099 1169 m 1xf0
 546 648 l 1
 1132 0 l 1
 911 0 l 1xe8
 431 555 l 1
 315 459 l 1
 315 0 l 1
 125 0 l 1
 125 1579 l 1
 315 1614 l 1
 315 627 l 1
 874 1169 l 1
 1099 1169 l 1xf0
EndSplineSet
EndChar

StartChar: l
Encoding: 78 108 79
Width: 437
VWidth: 0
GlyphClass: 2
Flags: HW
HStem: 0 21G<123 313>
VStem: 123 190<0 1579>
LayerCount: 2
Fore
SplineSet
123 0 m 1
 123 1579 l 1
 313 1614 l 1
 313 0 l 1
 123 0 l 1
EndSplineSet
EndChar

StartChar: m
Encoding: 79 109 80
Width: 1901
VWidth: 0
GlyphClass: 2
Flags: HW
HStem: 0 21G<123 313 845 1035 1591 1781> 1047 143<495.957 780.013 1225.09 1523.84> 1149 20G<123 266.621>
VStem: 123 190<0 901.636> 123 141<1059.62 1169> 845 190<0 896.518> 1591 190<0 973.419>
LayerCount: 2
Fore
SplineSet
1005 967 m 1xce
 1097 1101 1262 1190 1425 1190 c 0
 1674 1190 1781 992 1781 766 c 2
 1781 0 l 1
 1591 0 l 1
 1591 768 l 2
 1591 912 1568 1047 1397 1047 c 0
 1254 1047 1130 957 1035 858 c 1
 1035 0 l 1
 845 0 l 1
 845 768 l 2
 845 912 825 1047 653 1047 c 0
 521 1047 401 948 313 860 c 1
 313 0 l 1
 123 0 l 1xd6
 123 1169 l 1
 264 1169 l 1xae
 291 963 l 1
 375 1097 524 1190 684 1190 c 0
 834 1190 958 1112 1005 967 c 1xce
EndSplineSet
EndChar

StartChar: n
Encoding: 80 110 81
Width: 1227
VWidth: 0
GlyphClass: 2
Flags: HW
HStem: 0 21G<123 313 917 1107> 1047 141<527.602 830.242> 1149 20G<123 265.567>
VStem: 123 190<0 912.658> 123 140<1057.3 1169> 917 190<0 951.477>
LayerCount: 2
Fore
SplineSet
313 880 m 1xd4
 313 0 l 1
 123 0 l 1xd4
 123 1169 l 1
 263 1169 l 1xac
 287 982 l 1
 381 1101 587 1188 736 1188 c 0
 1011 1188 1107 975 1107 727 c 2
 1107 0 l 1
 917 0 l 1
 917 727 l 2
 917 884 884 1047 693 1047 c 0
 582 1047 395 956 313 880 c 1xd4
EndSplineSet
EndChar

StartChar: o
Encoding: 81 111 82
Width: 1285
VWidth: 0
GlyphClass: 2
Flags: HW
HStem: -20 137<473.592 810.869> 1051 139<473.381 810.835>
VStem: 112 182<322.632 842.405> 990 183<322.197 842.623>
LayerCount: 2
Fore
SplineSet
294 582 m 4
 294 352 372 117 642 117 c 4
 914 117 990 351 990 582 c 4
 990 812 913 1051 642 1051 c 4
 371 1051 294 812 294 582 c 4
112 582 m 4
 112 914 283 1190 642 1190 c 4
 1002 1190 1173 915 1173 582 c 4
 1173 248 1001 -20 642 -20 c 4
 283 -20 112 249 112 582 c 4
EndSplineSet
EndChar

StartChar: p
Encoding: 82 112 83
Width: 1256
VWidth: 0
GlyphClass: 2
Flags: HW
HStem: -487 21G<126 298.727> -20 143<492.067 815.768> 1047 143<500.78 809.589> 1149 20G<126 270.333>
VStem: 126 190<-465 164 243.999 927.665> 126 141<1082.98 1169> 962 182<311.969 856.984>
LayerCount: 2
Fore
SplineSet
675 -20 m 0xe6
 536 -20 403 58 316 164 c 1
 316 -465 l 1xea
 126 -487 l 1
 126 1169 l 1
 267 1169 l 1xd6
 300 971 l 1
 387 1088 523 1190 674 1190 c 0
 1018 1190 1144 882 1144 584 c 0
 1144 291 1012 -20 675 -20 c 0xe6
962 543 m 0
 962 735 931 1047 675 1047 c 0
 565 1047 393 972 316 890 c 1
 316 285 l 1
 381 202 555 117 656 117 c 4
 898 117 962 331 962 543 c 0
EndSplineSet
EndChar

StartChar: q
Encoding: 83 113 84
Width: 1245
VWidth: 0
GlyphClass: 2
Flags: HW
HStem: -502 21G<936 1101.22> -20 143<433.138 762.396> 1047 143<427.719 748.155> 1149 20G<983.566 1126>
VStem: 109 182<309.443 868.397> 936 190<-479 164 231.456 929.267> 987 139<1085.51 1169>
LayerCount: 2
Fore
SplineSet
570 1190 m 0xec
 719 1190 872 1093 953 971 c 1
 987 1169 l 1
 1126 1169 l 1xda
 1126 -479 l 1
 936 -502 l 1
 936 164 l 1
 852 57 718 -20 580 -20 c 0
 240 -20 109 288 109 584 c 0
 109 878 228 1190 570 1190 c 0xec
291 584 m 0
 291 385 333 117 580 117 c 4
 694 117 854 184 936 268 c 1
 936 891 l 1
 852 975 690 1047 570 1047 c 0xec
 324 1047 291 774 291 584 c 0
EndSplineSet
EndChar

StartChar: r
Encoding: 84 114 85
Width: 831
VWidth: 0
GlyphClass: 2
Flags: HW
HStem: 0 21G<123 313> 1030 160<473.094 718> 1149 20G<123 269.125>
VStem: 123 190<0 926.95> 123 143<1077.25 1169>
LayerCount: 2
Fore
SplineSet
618 1190 m 0xc8
 652 1190 686 1187 718 1178 c 1
 718 1026 l 1
 698 1030 676 1030 656 1030 c 0
 555 1030 388 966 313 894 c 1
 313 0 l 1
 123 0 l 1xd0
 123 1169 l 1
 266 1169 l 1xa8
 296 977 l 1
 372 1076 483 1190 618 1190 c 0xc8
EndSplineSet
EndChar

StartChar: s
Encoding: 85 115 86
Width: 1007
VWidth: 0
GlyphClass: 2
Flags: HW
HStem: -20 137<301.497 670.097> 1042 148<311.902 687.886>
VStem: 89 160<795.405 982.627> 749 172<193.31 424.221>
LayerCount: 2
Fore
SplineSet
99 100 m 1
 163 245 l 1
 246 174 381 117 490 117 c 4
 602 117 749 156 749 314 c 0
 749 622 89 441 89 891 c 0
 89 1102 304 1190 486 1190 c 0
 590 1190 787 1135 868 1067 c 1
 806 924 l 1
 718 995 611 1042 497 1042 c 0
 388 1042 249 1015 249 880 c 0
 249 652 921 759 921 309 c 0
 921 64 695 -20 483 -20 c 0
 374 -20 184 32 99 100 c 1
EndSplineSet
EndChar

StartChar: t
Encoding: 86 116 87
Width: 915
VWidth: 0
GlyphClass: 2
Flags: HW
HStem: -14 145<509.048 785.283> 1065 104<96 279 469 802>
VStem: 279 190<173.312 1065> 307 162<1169 1530>
LayerCount: 2
Fore
SplineSet
815 40 m 1xe0
 741 5 660 -14 578 -14 c 0
 389 -14 279 116 279 300 c 2
 279 1065 l 1xe0
 96 1065 l 1
 96 1169 l 1
 307 1169 l 1
 307 1530 l 1
 469 1576 l 1
 469 1169 l 1xd0
 802 1169 l 1
 802 1065 l 1
 469 1065 l 1
 469 298 l 2
 469 206 512 125 610 125 c 4
 668 125 727 144 779 169 c 5
 815 40 l 1xe0
EndSplineSet
EndChar

StartChar: u
Encoding: 87 117 88
Width: 1210
VWidth: 0
GlyphClass: 2
Flags: HW
HStem: -20 143<405.375 729.009> 0 21G<942.932 1087> 1149 20G<121 311 897 1087>
VStem: 121 190<221.375 1169> 897 190<237.529 1169> 946 141<0 93.4495>
LayerCount: 2
Fore
SplineSet
543 117 m 4xb4
 678 117 800 179 897 274 c 1
 897 1169 l 1
 1087 1169 l 1xb8
 1087 0 l 1
 946 0 l 1x74
 919 176 l 1
 815 59 694 -20 533 -20 c 0
 238 -20 121 163 121 442 c 2
 121 1169 l 1
 311 1169 l 1
 311 442 l 2
 311 276 349 117 543 117 c 4xb4
EndSplineSet
EndChar

StartChar: v
Encoding: 88 118 89
Width: 1229
VWidth: 0
GlyphClass: 2
Flags: HW
HStem: 0 21G<513.677 714.357> 1149 20G<93 287.928 940.196 1137>
DStem2: 281 1169 93 1169 0.343806 -0.939041<0 1026.39> 617 199 707 0 0.345222 0.938521<0 1024.29>
LayerCount: 2
Fore
SplineSet
707 0 m 1
 521 0 l 1
 93 1169 l 1
 281 1169 l 1
 617 199 l 1
 947 1169 l 1
 1137 1169 l 1
 707 0 l 1
EndSplineSet
EndChar

StartChar: w
Encoding: 89 119 90
Width: 1751
VWidth: 0
GlyphClass: 2
Flags: HW
HStem: 0 21G<416.371 632.98 1124.9 1341.47> 1149 20G<93 281.921 773.059 985.167 1472.4 1656>
VStem: 93 184<985 1169> 1477 179<990 1169>
DStem2: 527 153 628 0 0.239837 0.970813<0 902.099> 980 1169 876 996 0.250137 -0.96821<141.486 1051.42>
LayerCount: 2
Fore
SplineSet
876 996 m 1
 628 0 l 1
 422 0 l 1
 93 1169 l 1
 277 1169 l 1
 527 153 l 1
 778 1169 l 1
 980 1169 l 1
 1243 151 l 1
 1477 1169 l 1
 1656 1169 l 1
 1336 0 l 1
 1130 0 l 1
 876 996 l 1
EndSplineSet
EndChar

StartChar: x
Encoding: 90 120 91
Width: 1183
VWidth: 0
GlyphClass: 2
Flags: HW
HStem: 0 21G<96 320.075 866.176 1082> 1149 20G<92 320.077 867.58 1090>
LayerCount: 2
Fore
SplineSet
92 1169 m 1
 308 1169 l 1
 590 702 l 1
 880 1169 l 1
 1090 1169 l 1
 684 584 l 1
 1082 0 l 1
 878 0 l 1
 596 477 l 1
 308 0 l 1
 96 0 l 1
 504 584 l 1
 92 1169 l 1
EndSplineSet
EndChar

StartChar: y
Encoding: 91 121 92
Width: 1209
VWidth: 0
GlyphClass: 2
Flags: HW
HStem: -459 125<249 332.979> 1149 20G<87 276.717 918.457 1120>
DStem2: 269 1169 87 1169 0.366205 -0.930534<0 986.094> 624 249 683 -37 0.340679 0.94018<-547.063 -241.779 0 846.49> 925 1169 1120 1169 0.340679 0.94018<-1559.28 -1209.29 -846.49 0>
LayerCount: 2
Fore
SplineSet
624 249 m 1
 925 1169 l 1
 1120 1169 l 1
 683 -37 l 2
 603 -259 526 -459 249 -459 c 1
 198 -334 l 1
 428 -295 476 -186 538 23 c 1
 87 1169 l 1
 269 1169 l 1
 624 249 l 1
EndSplineSet
EndChar

StartChar: z
Encoding: 92 122 93
Width: 1034
VWidth: 0
GlyphClass: 2
Flags: HW
HStem: 0 145<290 916> 1029 140<144 752>
DStem2: 114 166 290 145 0.59447 0.804118<87.7402 1073.23>
LayerCount: 2
Fore
SplineSet
916 1169 m 1
 916 1004 l 1
 290 145 l 1
 916 145 l 1
 916 0 l 1
 114 0 l 1
 114 166 l 1
 752 1029 l 1
 144 1029 l 1
 144 1169 l 1
 916 1169 l 1
EndSplineSet
EndChar

StartChar: braceleft
Encoding: 93 123 94
Width: 766
VWidth: 0
GlyphClass: 2
Flags: HW
HStem: -209 169<549.263 704> 571 188<57 201.411> 1370 169<549.263 704>
VStem: 57 167<571 759>
CounterMasks: 1 e0
LayerCount: 2
Fore
SplineSet
57 571 m 2
 57.2945688104 571.000638978 57.5887530091 571.000958263 57.8825531413 571.000958263 c 0
 517.091971851 571.000958263 38.0395734873 -209.000958263 702.722810843 -209.000958263 c 0
 703.148072206 -209.000958263 703.573801743 -209.000638978 704 -209 c 2
 705 -40 l 1
 703.843911022 -40.0076058485 702.693504094 -40.0114000952 701.548750454 -40.0114000952 c 0
 251.16453935 -40.0114000952 675.85151687 547.299163376 224 665 c 1
 675.85151687 782.700836624 251.16453935 1370.0114001 701.548750454 1370.0114001 c 0
 702.693504094 1370.0114001 703.843911022 1370.00760585 705 1370 c 1
 704 1539 l 1
 702.722810843 1539.00095826 l 2
 38.0395734873 1539.00095826 517.091971851 758.999041737 57.8825531413 758.999041737 c 0
 57.5887530091 758.999041737 57.2945688104 758.999361022 57 759 c 2
 57 571 l 2
EndSplineSet
EndChar

StartChar: bar
Encoding: 94 124 95
Width: 436
VWidth: 0
GlyphClass: 2
Flags: HW
VStem: 129 178<-111 1696>
LayerCount: 2
Fore
SplineSet
129 -111 m 1
 129 1696 l 1
 307 1696 l 1
 307 -111 l 1
 129 -111 l 1
EndSplineSet
EndChar

StartChar: braceright
Encoding: 95 125 96
Width: 766
VWidth: 0
GlyphClass: 2
Flags: HW
HStem: -209 169<63 217.737> 571 188<565.849 710> 1370 169<63 217.465>
VStem: 63 647
CounterMasks: 1 e0
LayerCount: 2
Fore
SplineSet
710 571 m 2
 709.706070167 571.000638978 709.412523722 571.000958263 709.119360119 571.000958263 c 0
 250.904836932 571.000958263 727.963617729 -209.000958263 64.275275896 -209.000958263 c 0
 63.8506510634 -209.000958263 63.4255592793 -209.000638978 63 -209 c 2
 62 -40 l 1
 63.1560889784 -40.0076058485 64.3064959061 -40.0114000952 65.4512495455 -40.0114000952 c 0
 515.83546065 -40.0114000952 91.1484831299 547.299163376 543 665 c 1
 92.145947847 782.700836624 514.845582499 1370.0114001 65.4437014481 1370.0114001 c 0
 64.3014446234 1370.0114001 63.1535536955 1370.00760585 62 1370 c 1
 63 1539 l 1
 64.275275896 1539.00095826 l 2
 727.963617729 1539.00095826 250.904836932 758.999041737 709.119360119 758.999041737 c 0
 709.412523722 758.999041737 709.706070167 758.999361022 710 759 c 2
 710 571 l 2
EndSplineSet
EndChar

StartChar: asciitilde
Encoding: 96 126 97
Width: 972
VWidth: 0
GlyphClass: 2
Flags: HW
HStem: 390 139<531.373 701.107> 509 145<271.654 440.707>
VStem: 107 156<394 503.847> 711 156<534.584 640>
LayerCount: 2
Fore
SplineSet
675 390 m 0xb0
 529 390 397 509 322 509 c 0
 264 509 263 436 263 394 c 1
 107 394 l 1
 107 531 151 654 308 654 c 0x70
 453 654 550 529 652 529 c 0
 706 529 711 601 711 640 c 1
 867 640 l 1
 867 521 812 390 675 390 c 0xb0
EndSplineSet
EndChar

StartChar: exclamdown
Encoding: 98 161 99
Width: 410
VWidth: 0
GlyphClass: 2
Flags: HW
LayerCount: 2
Fore
SplineSet
281 1393 m 1
 281 1595 l 1
 72 1595 l 1
 72 1393 l 1
 281 1393 l 1
296 1180 m 1
 122 1180 l 1
 122 0 l 1
 296 0 l 1
 296 1180 l 1
EndSplineSet
EndChar

StartChar: cent
Encoding: 99 162 100
Width: 1014
VWidth: 0
GlyphClass: 2
Flags: HW
HStem: -22 151<410.051 537 640 843.484> 1037 152<420.451 537 640 821.548>
VStem: 63 190<317.679 844.894>
LayerCount: 2
Fore
SplineSet
537 -159 m 1
 640 -159 l 1
 640 -19 l 1
 740 -18 862 23 951 68 c 1
 905 205 l 1
 827 158 731 130 640 130 c 1
 640 1038 l 1
 730 1037 833 997 905 944 c 1
 962 1077 l 1
 873 1131 744 1185 640 1186 c 1
 640 1329 l 1
 537 1329 l 1
 537 1189 l 1
 202 1156 63 895 63 580 c 0
 63 272 203 -2 537 -22 c 1
 537 -159 l 1
537 129 m 1
 307 153 253 385 253 580 c 0
 253 781 303 1007 537 1037 c 1
 537 129 l 1
EndSplineSet
EndChar

StartChar: sterling
Encoding: 100 163 101
Width: 1009
VWidth: 0
GlyphClass: 2
Flags: HW
HStem: 1180 142<385.079 787.28>
VStem: 118 182<802.52 1102.26> 258 158<320.476 603>
LayerCount: 2
Fore
SplineSet
116 126 m 1xa0
 116 0 l 1
 913 0 l 1
 913 132 l 1
 297 132 l 1
 383 249 416 464 416 603 c 1
 844 603 l 1
 844 706 l 1
 416 706 l 1xa0
 351 775 300 862 300 959 c 0
 300 1126 417 1180 568 1180 c 0
 687 1180 793 1139 898 1088 c 1
 948 1219 l 1
 830 1294 644 1322 509 1322 c 0
 305 1322 118 1167 118 956 c 0xc0
 118 875 167 757 233 706 c 1
 61 706 l 1
 61 603 l 1
 258 603 l 1
 258 463 215 236 116 126 c 1xa0
EndSplineSet
EndChar

StartChar: currency
Encoding: 101 164 102
Width: 1180
VWidth: 0
GlyphClass: 2
Flags: HW
HStem: 558 141<438.75 726.068> 1266 143<448.701 743.414>
VStem: 163 143<828.792 1123.29> 872 142<845.381 1136.23>
DStem2: 168 1526 44 1402 0.707107 -0.707107<0 283.728 1078.44 1373.91> 44 555 168 430 0.707107 0.707107<0 275.895 1100.14 1373.91>
LayerCount: 2
Fore
SplineSet
306 975 m 0
 306 829 434 699 580 699 c 0
 732 699 872 840 872 992 c 0
 872 1138 744 1266 598 1266 c 0
 444 1266 306 1130 306 975 c 0
231 742 m 1
 187 809 163 887 163 967 c 0
 163 1053 190 1137 238 1208 c 1
 44 1402 l 1
 168 1526 l 1
 362 1333 l 1
 434 1382 518 1409 605 1409 c 0
 685 1409 763 1385 830 1341 c 1
 1016 1526 l 1
 1140 1402 l 1
 953 1215 l 1
 994 1150 1014 1076 1014 1000 c 0
 1014 913 987 829 938 757 c 1
 1140 555 l 1
 1016 430 l 1
 813 633 l 1
 742 584 659 558 573 558 c 0
 497 558 422 578 357 619 c 1
 168 430 l 1
 44 555 l 1
 231 742 l 1
EndSplineSet
EndChar

StartChar: yen
Encoding: 102 165 103
Width: 1060
VWidth: 0
GlyphClass: 2
Flags: HW
HStem: 0 788<45 1023> 389 99<137 439 629 925> 584 104<137 398 662 925> 1559 20G<-85 119.619 938.381 1143>
VStem: 439 190<0 389 488 584>
DStem2: 109 1579 -85 1579 0.476569 -0.879137<0 895.556> 529 788 662 688 0.475042 0.879963<0 895.568>
LayerCount: 2
Fore
SplineSet
398 688 m 1x78
 -85 1579 l 1
 109 1579 l 1
 529 788 l 1x98
 949 1579 l 1
 1143 1579 l 1
 662 688 l 1
 925 688 l 1
 925 584 l 1
 629 584 l 1
 629 488 l 1
 925 488 l 1
 925 389 l 1
 629 389 l 1x78
 629 0 l 1
 439 0 l 1x98
 439 389 l 1
 137 389 l 1
 137 488 l 1
 439 488 l 1
 439 584 l 1
 137 584 l 1
 137 688 l 1
 398 688 l 1x78
EndSplineSet
EndChar

StartChar: brokenbar
Encoding: 103 166 104
Width: 430
VWidth: 0
GlyphClass: 2
Flags: HW
HStem: 0 21G<122 310> 1559 20G<122 310>
VStem: 122 188<0 690 889 1579>
LayerCount: 2
Fore
SplineSet
122 889 m 1
 122 1579 l 1
 310 1579 l 1
 310 889 l 1
 122 889 l 1
122 0 m 1
 122 690 l 1
 310 690 l 1
 310 0 l 1
 122 0 l 1
EndSplineSet
EndChar

StartChar: section
Encoding: 104 167 105
Width: 924
VWidth: 0
GlyphClass: 2
Flags: HW
HStem: -96 146<251.586 630.601> 1424 145<284.512 652.939>
VStem: 79 154<651.302 857.853 1193.97 1373.07> 700 169<116.508 329.569 648.673 862.866>
LayerCount: 2
Fore
SplineSet
89 20 m 1
 150 158 l 1
 223 93 344 50 441 50 c 0
 555 50 700 82 700 223 c 0
 700 513 79 349 79 771 c 0
 79 913 210 980 334 995 c 1
 187 1051 79 1115 79 1285 c 0
 79 1487 283 1569 456 1569 c 0
 552 1569 745 1516 818 1452 c 1
 760 1316 l 1
 676 1381 573 1424 466 1424 c 0
 365 1424 235 1402 235 1275 c 0
 235 1062 867 1151 867 746 c 0
 867 610 741 531 618 522 c 1
 769 470 869 386 869 219 c 0
 869 -16 654 -96 453 -96 c 0
 352 -96 168 -45 89 20 c 1
468 600 m 0
 568 600 707 624 707 751 c 0
 707 889 576 906 468 906 c 0
 361 906 233 886 233 753 c 0
 233 623 364 600 468 600 c 0
EndSplineSet
EndChar

StartChar: dieresis
Encoding: 105 168 106
Width: 820
VWidth: 0
GlyphClass: 2
Flags: HW
HStem: 381 230<84.5349 259.618 574.535 749.618>
VStem: 61 220<404.291 587.709> 551 220<404.291 587.709>
LayerCount: 2
Fore
SplineSet
173 611 m 0
 238 611 281 558 281 496 c 0
 281 434 238 381 173 381 c 0
 109 381 61 433 61 496 c 0
 61 558 110 611 173 611 c 0
663 611 m 0
 728 611 771 558 771 496 c 0
 771 434 728 381 663 381 c 0
 599 381 551 433 551 496 c 0
 551 558 600 611 663 611 c 0
EndSplineSet
EndChar

StartChar: copyright
Encoding: 106 169 107
Width: 1817
VWidth: 0
GlyphClass: 2
Flags: HW
HStem: -23 124<651.832 1167.8> 336 128<720.486 1152.47> 1198 128<720.486 1152.47> 1562 125<666.759 1153.04>
VStem: 35 148<570.987 1072.89> 425 162<597.649 1064.35> 1637 148<571.358 1072.69>
LayerCount: 2
Fore
SplineSet
947 336 m 0
 1045 336 1141 370 1227 414 c 1
 1227 540 l 1
 1136 494 1036 464 933 464 c 0
 673 464 587 575 587 831 c 0
 587 1087 673 1198 933 1198 c 0
 1036 1198 1136 1168 1227 1122 c 1
 1227 1248 l 1
 1141 1292 1045 1326 947 1326 c 0
 614 1326 425 1168 425 831 c 0
 425 494 614 336 947 336 c 0
35 830 m 0
 35 342 429 -23 910 -23 c 0
 1389 -23 1785 344 1785 830 c 0
 1785 1308 1383 1687 910 1687 c 0
 437 1687 35 1308 35 830 c 0
183 829 m 0
 183 1230 507 1562 910 1562 c 0
 1312 1562 1637 1229 1637 829 c 0
 1637 410 1329 101 910 101 c 0
 491 101 183 410 183 829 c 0
EndSplineSet
EndChar

StartChar: ordfeminine
Encoding: 107 170 108
Width: 913
VWidth: 0
GlyphClass: 2
Flags: HW
HStem: 446 129<121 805> 668 113<259.774 553.277> 1158 100<286.56 646.903> 1513 125<224.083 601.836>
VStem: 57 161<824.07 1094.04> 650 161<856.361 1147.45 1218 1465.05> 695 116<686 761.397>
LayerCount: 2
Fore
SplineSet
121 575 m 1xf8
 805 575 l 1
 805 446 l 1
 121 446 l 1
 121 575 l 1xf8
412 781 m 0
 500 781 598 831 650 903 c 1
 650 1141 l 1xfc
 592 1150 533 1158 474 1158 c 0
 346 1158 218 1123 218 971 c 0
 218 828 270 781 412 781 c 0
57 960 m 0
 57 1169 227 1258 416 1258 c 0
 494 1258 576 1243 650 1218 c 1
 650 1276 l 2
 650 1426 628 1513 458 1513 c 0
 365 1513 250 1488 167 1443 c 1
 114 1552 l 1
 208 1607 343 1638 450 1638 c 0
 738 1638 811 1506 811 1235 c 2xfc
 811 686 l 1
 695 686 l 1xfa
 668 828 l 1
 620 720 484 668 374 668 c 0
 188 668 57 766 57 960 c 0
EndSplineSet
EndChar

StartChar: guillemotleft
Encoding: 108 171 109
Width: 1273
VWidth: 0
GlyphClass: 2
Flags: HW
HStem: 99 207<416 623 1024 1231> 842 207<416 623 1024 1231>
DStem2: 15 666 187 577 0.846117 0.532998<98.0953 608.247> 187 577 15 481 0.846744 -0.532<0 513.353> 623 666 794 577 0.846117 0.532998<97.2491 608.247> 794 577 623 481 0.846744 -0.532<0 514.199>
LayerCount: 2
Fore
SplineSet
1231 842 m 1
 794 577 l 1
 1231 306 l 1
 1231 99 l 1
 623 481 l 1
 623 666 l 1
 1231 1049 l 1
 1231 842 l 1
623 842 m 1
 187 577 l 1
 623 306 l 1
 623 99 l 1
 15 481 l 1
 15 666 l 1
 623 1049 l 1
 623 842 l 1
EndSplineSet
EndChar

StartChar: logicalnot
Encoding: 109 172 110
Width: 1452
VWidth: 0
GlyphClass: 2
Flags: HW
LayerCount: 2
Fore
SplineSet
1355 338 m 1
 1355 1174 l 1
 1 1174 l 1
 1 1023 l 1
 1179 1023 l 1
 1179 338 l 1
 1355 338 l 1
EndSplineSet
EndChar

StartChar: uni00AD
Encoding: 110 173 111
Width: 591
VWidth: 0
GlyphClass: 2
Flags: HW
HStem: 508 131<68 536>
VStem: 68 468<508 639>
LayerCount: 2
Fore
SplineSet
536 508 m 1
 68 508 l 1
 68 639 l 1
 536 639 l 1
 536 508 l 1
EndSplineSet
EndChar

StartChar: registered
Encoding: 111 174 112
Width: 1233
VWidth: 0
GlyphClass: 2
Flags: HW
HStem: 542 99<412.055 820.66> 1068 82<546 586> 1326 82<546 730.272> 1572 102<412.656 820.677>
VStem: 28 108<907.666 1304.98> 437 106<807 1068 1150 1326> 742 104<1170.55 1310.06> 1099 108<908.509 1298.96>
LayerCount: 2
Fore
SplineSet
594 1150 m 2
 671 1150 742 1164 742 1256 c 0
 742 1320.72340426 641.472159348 1326.23177909 578.682546257 1326.23177909 c 0
 565.802625622 1326.23177909 554.510638298 1326 546 1326 c 1
 546 1150 l 1
 594 1150 l 2
846 1261 m 0
 846 1146 784 1111 680 1086 c 1
 860 836 l 1
 826 823 792 802 760 785 c 1
 586 1068 l 1
 543 1068 l 1
 543 807 l 1
 437 807 l 1
 437 1408 l 1
 557 1408 l 2
 649 1408 846 1394 846 1261 c 0
617 542 m 0
 297 542 28 781 28 1108 c 0
 28 1433 300 1674 617 1674 c 0
 935 1674 1207 1434 1207 1108 c 0
 1207 781 936 542 617 542 c 0
616 641 m 0
 880 641 1099 837 1099 1106 c 0
 1099 1376 881 1572 616 1572 c 0
 350 1572 136 1375 136 1105 c 0
 136 834 350 641 616 641 c 0
EndSplineSet
EndChar

StartChar: macron
Encoding: 112 175 113
Width: 836
VWidth: 0
GlyphClass: 2
Flags: HW
HStem: 98 117<88 770>
LayerCount: 2
Fore
SplineSet
770 98 m 1
 88 98 l 1
 88 215 l 1
 770 215 l 1
 770 98 l 1
EndSplineSet
EndChar

StartChar: degree
Encoding: 113 176 114
Width: 565
VWidth: 0
GlyphClass: 2
Flags: HW
HStem: 660 90<183.658 387.207> 1048 91<183.068 386.993>
VStem: 43 97<791.935 1006.34> 426 97<788.4 1009.49>
LayerCount: 2
Fore
SplineSet
285 1048 m 0
 202 1048 140 980 140 899 c 0
 140 819 204 750 285 750 c 0
 369 750 426 817 426 899 c 0
 426 981 369 1048 285 1048 c 0
287 1139 m 0
 424 1139 523 1035 523 899 c 0
 523 762 425 660 287 660 c 0
 149 660 43 759 43 899 c 0
 43 1039 148 1139 287 1139 c 0
EndSplineSet
EndChar

StartChar: plusminus
Encoding: 114 177 115
Width: 852
VWidth: 0
GlyphClass: 2
Flags: HW
HStem: -55 143<85 786> 518 133<51 364 505 819>
VStem: 364 141<174 518 651 995>
LayerCount: 2
Fore
SplineSet
819 518 m 1
 505 518 l 1
 505 174 l 1
 364 174 l 1
 364 518 l 1
 51 518 l 1
 51 651 l 1
 364 651 l 1
 364 995 l 1
 505 995 l 1
 505 651 l 1
 819 651 l 1
 819 518 l 1
786 -55 m 1
 85 -55 l 1
 85 88 l 1
 786 88 l 1
 786 -55 l 1
EndSplineSet
EndChar

StartChar: uni00B2
Encoding: 115 178 116
Width: 777
VWidth: 0
GlyphClass: 2
Flags: HW
HStem: 668 152<283 689> 1443 145<68 213> 1495 143<94.7924 502.323>
VStem: 545 172<1234.64 1450.3>
LayerCount: 2
Fore
SplineSet
283 820 m 1xb0
 689 820 l 1
 689 668 l 1
 51 668 l 1
 51 805 l 1
 151 894 545 1177 545 1354 c 0
 545 1460 446 1495 356 1495 c 0xb0
 260 1495 160 1468 68 1443 c 1
 68 1588 l 1xd0
 165 1625 271 1638 374 1638 c 0
 549 1638 717 1551 717 1357 c 0
 717 1129 434 948 283 820 c 1xb0
EndSplineSet
EndChar

StartChar: uni00B3
Encoding: 116 179 117
Width: 797
VWidth: 0
GlyphClass: 2
Flags: HW
HStem: 540 132<140.921 506.08> 1541 136<129.038 505.504>
VStem: 559 154<1276.11 1489.32> 578 166<743.034 978.393>
LayerCount: 2
Fore
SplineSet
559 1383 m 0xe0
 559 1511 442 1541 335 1541 c 0
 255 1541 173 1520 101 1484 c 1
 54 1611 l 1
 137 1652 248 1677 340 1677 c 0
 517 1677 713 1601 713 1394 c 0xe0
 713 1263 602 1143 468 1142 c 1
 627 1111 744 1006 744 835 c 0
 744 628 533 540 355 540 c 0
 257 540 110 564 27 618 c 1
 78 745 l 1
 165 701 260 672 358 672 c 0
 466 672 578 733 578 853 c 0xd0
 578 1005 447 1057 316 1072 c 1
 316 1207 l 1
 423 1207 559 1255 559 1383 c 0xe0
EndSplineSet
EndChar

StartChar: acute
Encoding: 117 180 118
Width: 430
VWidth: 0
GlyphClass: 2
Flags: HW
HStem: 328 637
VStem: 39 391
LayerCount: 2
Fore
SplineSet
96 328 m 1
 39 354 l 1
 198 965 l 1
 430 874 l 1
 96 328 l 1
EndSplineSet
EndChar

StartChar: uni00B5
Encoding: 118 181 119
Width: 1320
GlyphClass: 2
Flags: HW
HStem: -20 143<457.36 805.168> 1149 20G<185 359 958 1166>
VStem: 185 174<-291 113 229.619 1169> 958 208<232.308 1169> 1020 146<16 107.989>
LayerCount: 2
Fore
SplineSet
611 123 m 0
 760 123 892 194 958 274 c 1
 958 1169 l 1
 1166 1169 l 1
 1166 16 l 1
 1020 16 l 1
 996 170 l 1
 882 43 750 -20 599 -20 c 0
 481 -20 410 47 359 113 c 1
 359 -291 l 1
 185 -291 l 1
 185 1169 l 1
 359 1169 l 1
 359 442 l 2
 359 229 443 123 611 123 c 0
EndSplineSet
EndChar

StartChar: paragraph
Encoding: 119 182 120
Width: 1086
VWidth: 0
GlyphClass: 2
Flags: HW
VStem: -33 679<1078.39 1419.67>
LayerCount: 2
Fore
SplineSet
501 1578 m 2
 268 1578 -33 1551 -33 1250 c 0
 -33 971 226 905 456 905 c 1
 456 0 l 1
 646 0 l 1
 646 1428 l 1
 781 1428 l 1
 781 0 l 1
 967 0 l 1
 967 1578 l 1
 501 1578 l 2
EndSplineSet
EndChar

StartChar: periodcentered
Encoding: 120 183 121
Width: 329
VWidth: 0
GlyphClass: 2
Flags: HW
HStem: 535 230<84.5349 259.618>
VStem: 61 220<558.291 741.709>
LayerCount: 2
Fore
SplineSet
173 765 m 0
 238 765 281 712 281 650 c 0
 281 588 238 535 173 535 c 0
 109 535 61 587 61 650 c 0
 61 712 110 765 173 765 c 0
EndSplineSet
EndChar

StartChar: cedilla
Encoding: 121 184 122
Width: 502
VWidth: 0
GlyphClass: 2
Flags: HW
HStem: -578 114<69.3377 351.277> -540 117<67 184> -186 88<238 324.469>
VStem: 117 121<-98 76> 370 133<-444.677 -228.545>
LayerCount: 2
Fore
SplineSet
67 -540 m 1x78
 67 -423 l 1x78
 107 -437 192 -464 231 -464 c 0
 333 -464 370 -437 370 -328 c 0
 370 -189 222 -186 117 -186 c 1
 117 76 l 1
 238 76 l 1
 238 -98 l 1
 405 -98 503 -166 503 -342 c 0
 503 -506 409 -578 251 -578 c 0xb8
 188 -578 126 -560 67 -540 c 1x78
EndSplineSet
EndChar

StartChar: uni00B9
Encoding: 122 185 123
Width: 454
VWidth: 0
GlyphClass: 2
Flags: HW
VStem: 179 169<478 1304>
DStem2: -29 1345 8 1232 0.928206 0.372066<0 177.812>
LayerCount: 2
Fore
SplineSet
179 478 m 1
 179 1304 l 1
 8 1232 l 1
 -29 1345 l 1
 208 1440 l 1
 348 1414 l 1
 348 478 l 1
 179 478 l 1
EndSplineSet
EndChar

StartChar: ordmasculine
Encoding: 123 186 124
Width: 956
VWidth: 0
GlyphClass: 2
Flags: HW
HStem: 446 129<141 825> 670 127<332.044 626.408> 1512 126<332.23 625.782>
VStem: 55 157<930.613 1375.81> 746 158<930.189 1375.6>
LayerCount: 2
Fore
SplineSet
141 575 m 1
 825 575 l 1
 825 446 l 1
 141 446 l 1
 141 575 l 1
212 1154 m 0
 212 977 271 797 479 797 c 0
 688 797 746 976 746 1154 c 0
 746 1330 686 1512 479 1512 c 0
 271 1512 212 1331 212 1154 c 0
55 1152 m 0
 55 1417 193 1638 479 1638 c 0
 766 1638 904 1417 904 1152 c 0
 904 885 767 670 479 670 c 0
 192 670 55 886 55 1152 c 0
EndSplineSet
EndChar

StartChar: guillemotright
Encoding: 124 187 125
Width: 1280
VWidth: 0
GlyphClass: 2
Flags: HW
HStem: 99 207<59 266 666 873> 842 207<59 266 666 873>
DStem2: 59 1049 59 842 0.846511 -0.532371<110.201 629.67> 59 306 59 99 0.847138 0.531374<0 522.673> 666 1049 666 842 0.846511 -0.532371<110.201 629.67> 666 306 666 99 0.847138 0.531374<0 522.673>
LayerCount: 2
Fore
SplineSet
59 842 m 1
 506 577 l 1
 59 306 l 1
 59 99 l 1
 668 481 l 1
 668 666 l 1
 59 1049 l 1
 59 842 l 1
666 842 m 1
 1113 577 l 1
 666 306 l 1
 666 99 l 1
 1275 481 l 1
 1275 666 l 1
 666 1049 l 1
 666 842 l 1
EndSplineSet
EndChar

StartChar: onequarter
Encoding: 125 188 126
Width: 1442
VWidth: 0
GlyphClass: 2
Flags: HW
HStem: 34 110<784 1172 1317 1468>
VStem: 158 160<568 1413> 1172 145<-227 34 145 703>
DStem2: 20 -30 140 -123 0.598068 0.801445<0 1737.84> 188 1529 158 1413 0.928746 0.370718<-255.444 -70.8656> 625 144 784 144 0.575241 0.817984<91.4633 771.91>
LayerCount: 2
Fore
SplineSet
1189 946 m 1
 1317 915 l 1
 1317 145 l 1
 1468 145 l 1
 1468 34 l 1
 1317 34 l 1
 1317 -227 l 1
 1172 -250 l 1
 1172 34 l 1
 647 34 l 1
 625 144 l 1
 1189 946 l 1
784 144 m 1
 1172 144 l 1
 1172 703 l 1
 1049 513 919 326 784 144 c 1
158 568 m 1
 158 1413 l 1
 -12 1341 l 1
 -50 1434 l 1
 188 1529 l 1
 318 1503 l 1
 318 568 l 1
 158 568 l 1
20 -30 m 1
 1059 1365 l 1
 1181 1272 l 1
 140 -123 l 1
 20 -30 l 1
EndSplineSet
EndChar

StartChar: onehalf
Encoding: 126 189 127
Width: 1638
VWidth: 0
GlyphClass: 2
Flags: HW
HStem: -172 152<1192 1598> 603 145<977 1122> 655 143<1003.79 1411.32>
VStem: 158 160<568 1413> 1454 172<394.64 610.3>
DStem2: 20 -30 140 -123 0.598068 0.801445<0 1737.84> 188 1529 158 1413 0.928746 0.370718<-255.444 -70.8656>
LayerCount: 2
Fore
SplineSet
1192 -20 m 1xb8
 1598 -20 l 1
 1598 -172 l 1
 960 -172 l 1
 960 -35 l 1
 1060 54 1454 337 1454 514 c 0
 1454 620 1355 655 1265 655 c 0xb8
 1169 655 1069 628 977 603 c 1
 977 748 l 1xd8
 1074 785 1180 798 1283 798 c 0
 1458 798 1626 711 1626 517 c 0
 1626 289 1343 108 1192 -20 c 1xb8
20 -30 m 1
 1059 1365 l 1
 1181 1272 l 1
 140 -123 l 1
 20 -30 l 1
158 568 m 1
 158 1413 l 1
 -12 1341 l 1
 -50 1434 l 1
 188 1529 l 1
 318 1503 l 1
 318 568 l 1
 158 568 l 1
EndSplineSet
EndChar

StartChar: threequarters
Encoding: 127 190 128
Width: 1758
VWidth: 0
GlyphClass: 2
Flags: HW
HStem: 34 110<1101 1489 1634 1785> 540 132<102.228 468.08> 1541 136<91.0377 467.504>
VStem: 521 154<1276.11 1489.32> 540 166<743.034 978.393> 1489 145<-227 34 145 703>
DStem2: 337 -30 457 -123 0.598068 0.801445<0 1734.03> 942 144 1101 144 0.575241 0.817984<91.4633 771.91>
LayerCount: 2
Fore
SplineSet
1506 946 m 1xe4
 1634 915 l 1
 1634 145 l 1
 1785 145 l 1
 1785 34 l 1
 1634 34 l 1
 1634 -227 l 1
 1489 -250 l 1
 1489 34 l 1
 964 34 l 1
 942 144 l 1
 1506 946 l 1xe4
521 1383 m 0xf4
 521 1511 404 1541 297 1541 c 0
 217 1541 135 1520 63 1484 c 1
 16 1611 l 1
 99 1652 210 1677 302 1677 c 0
 479 1677 675 1601 675 1394 c 0xf4
 675 1263 564 1143 430 1142 c 1
 589 1111 706 1006 706 835 c 0
 706 628 495 540 317 540 c 0
 203 540 90 566 -11 618 c 1
 40 745 l 1
 127 701 222 672 320 672 c 0
 428 672 540 733 540 853 c 0xec
 540 1005 409 1057 278 1072 c 1
 278 1207 l 1
 385 1207 521 1255 521 1383 c 0xf4
337 -30 m 1
 1367 1365 l 1
 1498 1272 l 1
 457 -123 l 1
 337 -30 l 1
1101 144 m 1
 1489 144 l 1
 1489 703 l 1
 1373 510 1235 325 1101 144 c 1
EndSplineSet
EndChar

StartChar: questiondown
Encoding: 128 191 129
Width: 862
VWidth: 0
GlyphClass: 2
Flags: HW
HStem: -114 161<291.306 762.477> 1153 20G<551 731> 1296 209<565.001 732.499>
VStem: 17 191<127.718 411.752> 545 209<1316.4 1485.49> 551 180<776.7 1173>
LayerCount: 2
Fore
SplineSet
551 790 m 1xf4
 551 1173 l 1
 731 1173 l 1
 731 688 l 1
 541 622 208 518 208 268 c 0
 208 71 354 47 519 47 c 0
 622 47 758 77 847 133 c 1
 906 -10 l 1
 796 -77 626 -114 500 -114 c 0
 259 -114 17 -34 17 249 c 0
 17 573 289 697 551 790 c 1xf4
650 1505 m 0
 710 1505 754 1453 754 1395 c 0
 754 1338 700 1296 646 1296 c 0
 590 1296 545 1346 545 1401 c 0xf8
 545 1458 593 1505 650 1505 c 0
EndSplineSet
EndChar

StartChar: AE
Encoding: 135 198 136
Width: 1805
VWidth: 0
GlyphClass: 2
Flags: HW
HStem: 0 143<1095 1769> 371 122<438 928> 764 127<1095 1698> 1436 143<1093 1741>
VStem: 928 167<143 371 493 764 891 1436>
DStem2: -23 0 186 0 0.463525 0.886084<96.8766 514.611 650.524 650.524>
LayerCount: 2
Fore
SplineSet
1769 0 m 1
 930 0 l 1
 930 371 l 1
 378 371 l 1
 186 0 l 1
 -23 0 l 1
 803 1579 l 1
 1741 1579 l 1
 1741 1436 l 1
 1093 1436 l 1
 1093 891 l 1
 1698 891 l 1
 1698 764 l 1
 1095 764 l 1
 1095 143 l 1
 1769 143 l 1
 1769 0 l 1
928 1459 m 1
 438 493 l 1
 928 493 l 1
 928 1459 l 1
EndSplineSet
EndChar

StartChar: Eth
Encoding: 145 208 146
Width: 1448
VWidth: 0
GlyphClass: 2
Flags: HW
HStem: 0 143<366 933.759> 764 131<10 172 366 600> 1436 143<366 932.758>
VStem: 172 194<143 764 895 1436> 1183 201<441.069 1134.41>
LayerCount: 2
Fore
SplineSet
725 1579 m 2
 1218 1579 1384 1231 1384 788 c 0
 1384 338 1221 0 725 0 c 2
 172 0 l 1
 172 764 l 1
 10 764 l 1
 10 895 l 1
 172 895 l 1
 172 1579 l 1
 725 1579 l 2
600 764 m 1
 366 764 l 1
 366 143 l 1
 725 143 l 2
 1118 143 1183 465 1183 789 c 0
 1183 1111 1114 1436 725 1436 c 2
 366 1436 l 1
 366 895 l 1
 600 895 l 1
 600 764 l 1
EndSplineSet
EndChar

StartChar: multiply
Encoding: 152 215 153
Width: 901
VWidth: 0
GlyphClass: 2
Flags: HW
HStem: 444 204<341 545>
VStem: 341 204<444 648>
DStem2: 126 965 24 863 0.707107 -0.707107<0 448.306 592.555 1040.86> 24 229 126 127 0.707107 0.707107<0 448.306 592.555 1040.86>
LayerCount: 2
Fore
SplineSet
24 863 m 1
 126 965 l 1
 443 648 l 1
 760 965 l 1
 862 863 l 1
 545 546 l 1
 862 229 l 1
 760 127 l 1
 443 444 l 1
 126 127 l 1
 24 229 l 1
 341 546 l 1
 24 863 l 1
EndSplineSet
EndChar

StartChar: Oslash
Encoding: 153 216 154
Width: 1431
VWidth: 0
GlyphClass: 2
Flags: HW
HStem: -41 152<519.17 904.932> 1458 152<509.523 917.388>
VStem: 54 201<425.584 1133.63> 1164 201<426.546 1149.2>
DStem2: 280 -113 381 -159 0.411547 0.911389<0 177.688 353.553 1608.18 1812.13 2000.99>
LayerCount: 2
Fore
SplineSet
1365 784 m 0
 1365 345 1210 -41 709 -41 c 0
 622 -41 535 -30 453 0 c 1
 381 -159 l 1
 280 -113 l 1
 353 49 l 1
 104 215 54 503 54 784 c 0
 54 1214 210 1610 695 1610 c 0
 809 1610 925 1592 1027 1538 c 1
 1105 1710 l 1
 1206 1668 l 1
 1120 1477 l 1
 1319 1317 1365 1024 1365 784 c 0
710 1458 m 0
 318 1458 255 1101 255 784 c 0
 255 592 277 348 426 209 c 1
 960 1390 l 1
 887 1439 797 1458 710 1458 c 0
1164 784 m 0
 1164 953 1146 1167 1043 1307 c 1
 519 147 l 1
 521 147 l 1
 581 121 645 111 710 111 c 0
 1100 111 1164 470 1164 784 c 0
EndSplineSet
EndChar

StartChar: Thorn
Encoding: 159 222 160
Width: 1254
VWidth: 0
GlyphClass: 2
Flags: HW
HStem: 0 21G<123 317> 504 145<317 793.503> 1300 144<317 786.673> 1559 20G<123 317>
VStem: 123 194<0 504 649 1300 1444 1579> 1030 182<796.859 1159.97>
LayerCount: 2
Fore
SplineSet
1212 973 m 0
 1212 523.066914498 762.066914498 503.83185694 412.092705774 503.83185694 c 0
 379.371539918 503.83185694 347.524163569 504 317 504 c 1
 317 0 l 1
 123 0 l 1
 123 1579 l 1
 317 1579 l 1
 317 1444 l 1
 375.826797386 1444 437.696879405 1445.10879363 500.287577058 1445.10879363 c 0
 845.20227263 1445.10879363 1212 1411.4379085 1212 973 c 0
479 649 m 2
 713 649 1030 655 1030 959 c 0
 1030 1289 807 1300 526 1300 c 2
 317 1300 l 1
 317 649 l 1
 479 649 l 2
EndSplineSet
EndChar

StartChar: germandbls
Encoding: 160 223 161
Width: 1303
VWidth: 0
GlyphClass: 2
Flags: HW
HStem: -129 156<481 841.86> -6 21G<110.981 287.364> 774 131<449 777.826> 1436 143<411.859 804.789>
VStem: 111 194<16 1324.31> 901 172<1024.51 1343.15> 1073 182<227.709 596.326>
LayerCount: 2
Fore
SplineSet
901 1200 m 0xbc
 901 1399 748 1436 580 1436 c 0
 306 1436 305 1240 305 1018 c 2
 305 16 l 1
 111 -6 l 1
 110 1046 l 2
 110 1381 221 1579 580 1579 c 0
 856 1579 1073 1484 1073 1176 c 0x7c
 1073 1015 1002 864 827 844 c 1
 1100 844 1255 661 1255 395 c 0
 1255 -37 831 -129 481 -129 c 1
 481 27 l 1
 797 27 1073 62 1073 432 c 0xba
 1073 759 690 774 449 774 c 1
 449 905 l 1
 478.03422823 903.663696609 506.684750876 902.784888336 534.616310238 902.784888336 c 0
 736.60795168 902.784888336 901 948.743888175 901 1200 c 0xbc
EndSplineSet
EndChar

StartChar: ae
Encoding: 167 230 168
Width: 1802
VWidth: 0
GlyphClass: 2
Flags: HW
HStem: -23 142<303.58 637.656 1148.64 1497.81> 567 115<976 1576> 590 125<324.247 770.861> 1047 143<306.129 711.581 1111.39 1470.1>
VStem: 38 191<190.88 502.903> 786 190<302.884 567 682 894.695> 1576 168<682 920.172>
LayerCount: 2
Fore
SplineSet
786 665 m 1xbe
 786 713 l 2
 786 924 775 1047 534 1047 c 0
 424 1047 261 1001 171 935 c 1
 104 1057 l 1
 196 1135 405 1190 524 1190 c 0
 697 1190 851 1154 906 970 c 1
 979 1121 1140 1190 1301 1190 c 0
 1608 1190 1744 958 1744 676 c 0
 1744 640 1741 603 1736 567 c 1
 976 567 l 1xde
 976 322 1041 127 1322 127 c 0
 1436 127 1542 170 1628 244 c 1
 1690 99 l 1
 1596 30 1427 -23 1310 -23 c 0
 1129 -23 969 45 877 207 c 1
 773 68 604 -23 430 -23 c 0
 191 -23 38 95 38 343 c 0
 38 603 246 715 482 715 c 0
 568 715 706 698 786 665 c 1xbe
477 119 m 0
 596 119 702 193 786 271 c 1
 786 569 l 1
 708 582 630 590 551 590 c 0xbe
 379 590 229 556 229 356 c 0
 229 183 309 119 477 119 c 0
1576 717 m 2
 1576 902 1506 1057 1302 1057 c 0
 1075 1057 976 896 976 682 c 1
 1576 682 l 1xde
 1576 717 l 2
EndSplineSet
EndChar

StartChar: eth
Encoding: 176 240 177
Width: 1131
VWidth: 0
GlyphClass: 2
Flags: HW
HStem: -20 143<364.441 694.023> 1047 143<366.55 696.941> 1573 20G<955.706 1032.33>
VStem: 34 182<305.995 863.473> 867 184<343.93 868.164>
DStem2: 375 1401 417 1311 0.958798 0.284088<14.7016 211.681 419.385 675.846>
LayerCount: 2
Fore
SplineSet
1051 690 m 0
 1051 324 944 -20 518 -20 c 0
 168 -20 34 275 34 584 c 0
 34 870 164 1190 496 1190 c 0
 622 1190 780 1129 861 1028 c 1
 818 1158 741 1277 652 1380 c 1
 417 1311 l 1
 375 1401 l 1
 578 1461 l 1
 511 1528 438 1590 357 1641 c 1
 441 1743 l 1
 556 1679 644 1599 737 1508 c 1
 1023 1593 l 1
 1065 1503 l 1
 805 1426 l 1
 971 1200 1051 973 1051 690 c 0
867 666 m 0
 867 869 759 1047 540 1047 c 0
 265 1047 216 822 216 587 c 0
 216 384 258 123 514 123 c 0
 829 123 867 412 867 666 c 0
EndSplineSet
EndChar

StartChar: divide
Encoding: 183 247 184
Width: 724
VWidth: 0
GlyphClass: 2
Flags: HW
HStem: 215 230<257.535 432.618> 508 131<9 691> 700 230<259.535 434.618>
VStem: 234 220<238.291 421.709 724.995 905.005>
LayerCount: 2
Fore
SplineSet
691 508 m 1
 9 508 l 1
 9 639 l 1
 691 639 l 1
 691 508 l 1
348 930 m 0
 413 930 456 877 456 815 c 0
 456 753 413 700 348 700 c 0
 284 700 236 752 236 815 c 0
 236 877 285 930 348 930 c 0
346 445 m 0
 411 445 454 392 454 330 c 0
 454 268 411 215 346 215 c 0
 282 215 234 267 234 330 c 0
 234 392 283 445 346 445 c 0
EndSplineSet
EndChar

StartChar: oslash
Encoding: 184 248 185
Width: 1161
VWidth: 0
GlyphClass: 2
Flags: HW
HStem: -20 137<461.514 734.223> 1051 139<396.204 674.371>
VStem: 35 182<317.741 842.405> 913 183<321.979 846.618>
DStem2: 261 -168 349 -198 0.3262 0.945301<0.346548 211.969 356.406 1261.47 1411.94 1619.77>
LayerCount: 2
Fore
SplineSet
261 -168 m 1
 328 28 l 1
 112 131 35 357 35 582 c 0
 35 914 205 1190 565 1190 c 0
 618 1190 672 1184 723 1170 c 1
 790 1365 l 1
 871 1335 l 1
 804 1140 l 1
 1017 1032 1096 809 1096 582 c 0
 1096 247 926 -20 565 -20 c 0
 515 -20 464 -15 415 -2 c 1
 349 -198 l 1
 261 -168 l 1
217 582 m 0
 217 434 246 259 377 169 c 1
 676 1035 l 1
 640 1047 602 1051 565 1051 c 0
 294 1051 217 812 217 582 c 0
565 117 m 0
 837 117 913 351 913 582 c 0
 913 729 884 905 755 996 c 1
 460 130 l 1
 494 120 530 117 565 117 c 0
EndSplineSet
EndChar

StartChar: thorn
Encoding: 190 254 191
Width: 1361
GlyphClass: 2
Flags: HW
LayerCount: 2
Fore
SplineSet
1143 584 m 0
 1143 257 1001 -20 674 -20 c 0
 508 -20 388 26 315 117 c 1
 315 -465 l 1
 129 -487 l 1
 129 1565 l 1
 313 1565 l 1
 313 1004 l 1
 388 1097 514 1190 674 1190 c 0
 1005 1190 1143 914 1143 584 c 0
961 543 m 0
 961 787 916 1047 674 1047 c 0
 525 1047 411 963 338 890 c 1
 322 244 l 1
 397 180 545 123 682 123 c 0
 887 123 961 339 961 543 c 0
EndSplineSet
EndChar

StartChar: OE
Encoding: 192 338 193
Width: 2269
GlyphClass: 2
Flags: HW
HStem: -41 152<561.024 959.069> 0 143<1905 2694> 776 115<1905 2583> 1436 143<1905 2681> 1458 152<554.725 963.353>
VStem: 103 200<426.217 1145.77> 1213 200<418.441 1143.52> 1711 194<143 776 891 1436>
LayerCount: 2
Fore
SplineSet
2215 0 m 1x77
 1232 0 l 1x77
 1232 169 l 1
 1135 37 988 -41 778 -41 c 0
 300 -41 124 301 124 784 c 0
 124 1260 298 1610 764 1610 c 0xaf
 982 1610 1133 1532 1232 1397 c 1
 1232 1579 l 1
 2202 1579 l 1
 2202 1436 l 1
 1426 1436 l 1
 1426 891 l 1
 2104 891 l 1
 2104 776 l 1
 1426 776 l 1
 1426 143 l 1
 2215 143 l 1
 2215 0 l 1x77
1232 878 m 1
 1217 1210 1115 1458 780 1458 c 0
 412 1458 324 1154 324 784 c 0
 324 409 417 111 780 111 c 0xaf
 1115 111 1217 367 1232 692 c 1
 1232 878 l 1
EndSplineSet
EndChar

StartChar: oe
Encoding: 193 339 194
Width: 2041
GlyphClass: 2
Flags: HW
HStem: -40 137<459.093 804.473> -20 137<1746.16 2134.28> 567 115<1587 2187> 1039 137<459.093 804.907> 1053 137<1751.7 2064.69>
VStem: 101 183<304.065 831.935> 980 183<303.18 831.935> 1397 190<300.065 567 682 848.306> 2187 168<682.002 918.951>
LayerCount: 2
Fore
SplineSet
656 -20 m 0x6f80
 301 -20 126 228 126 582 c 0
 126 935 303 1190 656 1190 c 0
 863 1190 1009 1104 1095 961 c 1
 1179 1103 1320 1190 1519 1190 c 0
 1814 1190 1962 976 1962 676 c 0
 1962 644 1959 608 1954 567 c 1
 1194 567 l 1
 1194 301 1273 127 1540 127 c 0
 1653 127 1755 166 1846 244 c 1
 1908 99 l 1
 1827 40 1657 -23 1528 -23 c 0
 1324 -23 1179 62 1094 204 c 1
 1008 64 862 -20 656 -20 c 0x6f80
656 117 m 0
 915 117 1004 322 1004 582 c 0
 1004 842 914 1051 656 1051 c 0
 397 1051 308 841 308 582 c 0
 308 322 397 117 656 117 c 0
1794 717 m 2
 1794 920 1717 1057 1520 1057 c 0
 1299 1057 1194 908 1194 682 c 1
 1794 682 l 1
 1794 717 l 2
EndSplineSet
EndChar

StartChar: circumflex
Encoding: 199 710 200
Width: 1428
GlyphClass: 2
Flags: HW
HStem: 809 202<565 863>
VStem: 374 680
DStem2: 374 510 502 432 0.503549 0.863966<0 429.533> 762 1011 714 809 0.503549 -0.863966<150.351 579.884>
LayerCount: 2
Fore
SplineSet
714 809 m 1
 502 432 l 1
 374 510 l 1
 666 1011 l 1
 762 1011 l 1
 1054 510 l 1
 926 432 l 1
 714 809 l 1
EndSplineSet
EndChar

StartChar: caron
Encoding: 200 711 201
Width: 1428
GlyphClass: 2
Flags: HW
HStem: 431 202<565 863>
VStem: 374 680
DStem2: 502 1010 374 932 0.503549 -0.863966<2.93507 432.468> 714 633 762 431 0.503549 0.863966<0 429.533>
LayerCount: 2
Fore
SplineSet
714 633 m 1
 926 1010 l 1
 1054 932 l 1
 762 431 l 1
 666 431 l 1
 374 932 l 1
 502 1010 l 1
 714 633 l 1
EndSplineSet
EndChar

StartChar: ring
Encoding: 201 730 202
Width: 1707
GlyphClass: 2
Flags: HW
HStem: 1035 91<749.516 958.484> 1424 91<749.516 958.484>
VStem: 612 97<1166.59 1383.41> 999 97<1166.59 1383.41>
LayerCount: 2
Fore
SplineSet
854 1035 m 256
 710 1035 612 1131 612 1275 c 256
 612 1419 710 1515 854 1515 c 256
 998 1515 1096 1419 1096 1275 c 256
 1096 1131 998 1035 854 1035 c 256
854 1126 m 0
 939 1126 999 1190 999 1275 c 256
 999 1360 939 1424 854 1424 c 0
 768 1424 709 1360 709 1275 c 256
 709 1190 768 1126 854 1126 c 0
EndSplineSet
EndChar

StartChar: tilde
Encoding: 202 732 203
Width: 1707
GlyphClass: 2
Flags: HW
HStem: 1035 139<895.673 1066.83> 1154 145<639.276 803.467>
VStem: 471 156<1039 1128.72> 1075 156<1176.3 1285>
DStem2: 775 1279.5 750.5 1135.5 0.896577 -0.442888<-23.4522 261.733>
LayerCount: 2
Fore
SplineSet
1231 1285 m 1
 1231 1149 1172 1035 1039 1035 c 0
 891 1035 808 1154 686 1154 c 0
 634 1154 627 1104 627 1039 c 1
 471 1039 l 1
 471 1212 538 1299 672 1299 c 0
 823 1299 883 1174 1016 1174 c 0
 1055 1174 1075 1211 1075 1285 c 1
 1231 1285 l 1
EndSplineSet
EndChar

StartChar: acutecomb
Encoding: 203 769 204
Width: 1097
GlyphClass: 2
Flags: HW
HStem: 1639 637
VStem: 489 391
LayerCount: 2
Fore
SplineSet
546 1639 m 1
 489 1665 l 1
 648 2276 l 1
 880 2185 l 1
 546 1639 l 1
EndSplineSet
EndChar

StartChar: uni0306
Encoding: 204 774 205
Width: 780
GlyphClass: 2
Flags: HW
HStem: 1399 110<275.177 492.929>
VStem: 123 117<1544.58 1638> 526 117<1544.58 1638>
LayerCount: 2
Fore
SplineSet
385 1509 m 256
 470 1509 526 1555 526 1638 c 1
 643 1638 l 1
 643 1478 553 1399 385 1399 c 0
 221 1399 123 1476 123 1638 c 1
 240 1638 l 1
 240 1555 301 1509 385 1509 c 256
EndSplineSet
EndChar

StartChar: uni0E81
Encoding: 205 3713 206
Width: 1395
GlyphClass: 2
Flags: HW
HStem: 0 94<210.373 358.509> 283 84<208.594 376.126> 748 93<217.239 376.188> 1009 95<200.5 358.344 723.581 1047.39>
VStem: 71 123<110.549 269.098 856.862 1000.52> 377 158<110.981 283 352 766 849 879.734> 1121 159<0 933.975>
DStem2: 687.5 1056.5 764.5 981 0.94539 0.325941<-192.696 163.783>
AnchorPoint: "top" 885 1192 mark 0
LayerCount: 2
Fore
SplineSet
514 952 m 1
 615 1019 721 1104 884 1104 c 0
 1185 1104 1280 958 1280 658 c 2
 1280 0 l 1
 1121 0 l 1
 1121 711 l 2
 1121 910 1079 1006 879 1006 c 0
 737 1006 622 914 535 848 c 1
 535 334 l 2
 535 147 476 0 287 0 c 0
 157 0 71 51 71 182 c 0
 71 295 156 364 267 367 c 0
 302 367 340 356 377 352 c 1
 377 766 l 1
 350 757 320 748 284 748 c 0
 158 748 70 800 70 927 c 0
 70 1046 162 1104 281 1104 c 0
 407 1104 480 1047 514 952 c 1
377 867 m 1
 377 938 360 1009 288 1009 c 0
 233 1009 193 986 193 931 c 0
 193 873 224 841 281 841 c 0
 319 841 348 853 377 867 c 1
194 182 m 0
 194 128 227 94 281 94 c 0
 366 94 377 169 377 253 c 2
 377 283 l 1
 304 283 l 2
 231 283 194 249 194 182 c 0
EndSplineSet
EndChar

StartChar: uni0E82
Encoding: 206 3714 207
Width: 1225
GlyphClass: 2
Flags: HW
HStem: 0 123<255.618 466.594> 220 125<759.552 943.979> 571 86<240.311 396.317> 851 86<286.688 401.305> 1007 95<334.32 863.13>
VStem: 83 157<138.237 302.782> 97 117<685.535 850.049> 413 121<675.914 836.394> 961 156<0 195.248 696.242 922.157>
DStem2: 257.5 420 350 335 0.933497 0.358584<-73.9883 748.768> 526 194 477 49 0.908557 0.417761<-208.895 341.917>
LayerCount: 2
Fore
SplineSet
941 345 m 1
 1062 342 1117 264 1117 141 c 2
 1117 0 l 1
 961 0 l 1
 961 140 l 2
 961 185 938 220 891 220 c 0
 850 220 815 206 788 192 c 1
 477 49 l 2
 420 23 365 0 298 0 c 0
 175 0 83 79 83 202 c 0
 83 368 233 414 356 458 c 1
 579 540 l 2
 720 592 958 623 958 807 c 0
 958 983 773 1007 598 1007 c 0
 455 1007 351 983 286 934 c 1
 301 936 316 937 332 937 c 0
 455 937 534 871 534 748 c 256
 534 625 442 571 320 571 c 0
 172 571 97 649 97 797 c 0
 97 1039 354 1102 597 1102 c 0
 851 1102 1118 1058 1118 804 c 0
 1118 614 929 554 790 502 c 2
 350 335 l 2
 292 312 240 289 240 210 c 0
 240 153 272 123 328 123 c 0
 393 123 459 163 526 194 c 2
 756 299 l 2
 817 327 871 341 941 345 c 1
326 657 m 0
 387 657 413 698 413 759 c 0
 413 836 354 851 278 851 c 2
 223 851 l 1
 217 832 214 812 214 793 c 0
 214 711 248 657 326 657 c 0
EndSplineSet
EndChar

StartChar: uni0E84
Encoding: 207 3716 208
Width: 1186
GlyphClass: 2
Flags: HW
HStem: 0 95<272.512 414.753> 283 83<249 419.32> 546 112<356.509 553> 1005 99<335.103 814.992>
VStem: 95 154<116.697 283 352 475.485 710.746 931.322> 431 123<111.302 270.23> 935 159<0 886.227>
LayerCount: 2
Fore
SplineSet
585 1005 m 0
 433 1005 248 980 248 828 c 0
 248 723 323 658 428 658 c 2
 553 658 l 1
 553 546 l 1
 428 546 l 2
 312 546 257 471 249 360 c 1
 249 352 l 1
 310 362 l 2
 328 365 340 366 360 366 c 0
 475 366 554 307 554 191 c 0
 554 59 469 0 337 0 c 0
 172 0 95 139 95 303 c 0
 95 481 197 580 355 602 c 1
 215 605 95 681 95 824 c 0
 95 1055 352 1104 585 1104 c 0
 926 1104 1094 999 1094 658 c 2
 1094 0 l 1
 935 0 l 1
 935 654 l 2
 935 912 842 1005 585 1005 c 0
343 95 m 0
 403 95 431 129 431 192 c 0
 431 264 381 283 310 283 c 2
 249 283 l 1
 249 263 l 1
 251 151 282 95 343 95 c 0
EndSplineSet
EndChar

StartChar: uni0E87
Encoding: 208 3719 209
Width: 991
GlyphClass: 2
Flags: HW
HStem: -428 100<257.787 635.753> 736 85<179.441 322.519> 1008 96<183.53 338 421 638.507>
VStem: 39 124<837.625 981.123> 59 121<-251.473 -119> 338 110<848.849 1005.51> 762 156<-178.639 846.943>
LayerCount: 2
Fore
SplineSet
918 133 m 2
 918 -222 806 -428 452 -428 c 0
 213 -428 59 -345 59 -119 c 1
 180 -119 l 1
 183 -275 290 -328 448 -328 c 0
 726 -328 762 -145 762 131 c 2
 762 598 l 2
 762 852 705 1008 452 1008 c 2
 421 1008 l 1
 439 955 448 918 448 899 c 0
 445 782 366 736 247 736 c 0
 135 736 39 794 39 907 c 0
 39 1075 239 1104 407 1104 c 0
 739 1104 918 932 918 603 c 2
 918 133 l 2
163 910 m 0
 163 851 195 821 256 821 c 0
 317 821 338 862 338 924 c 2
 338 1008 l 1
 259 1005 163 993 163 910 c 0
EndSplineSet
EndChar

StartChar: uni0E88
Encoding: 209 3720 210
Width: 1264
GlyphClass: 2
Flags: HW
HStem: 438 83<499.524 650> 724 88<484.999 627.59> 1005 99<351.534 877.236>
VStem: 30 141<678 853.778> 343 123<540.284 705.613> 649 149<521.189 687.378> 1005 157<64 876.75>
LayerCount: 2
Fore
SplineSet
30 722 m 2
 30 1007 329 1104 614 1104 c 0
 983 1104 1162 992 1162 626 c 2
 1162 2 l 1
 1017 -65 l 1
 974 -46 l 1
 802 42 686 217 657 450 c 1
 615 443 l 2
 598 441 579 438 561 438 c 0
 428 438 343 490 343 620 c 0
 343 747 438 812 567 812 c 0
 724 812 798 717 798 554 c 0
 798 345 871 145 1005 64 c 1
 1005 631 l 2
 1005 910 909 1005 630 1005 c 0
 370 1005 176 930 171 698 c 1
 171 678 l 1
 31 678 l 1
 30 692 30 702 30 708 c 130
 30 722 l 2
559 724 m 0
 497 724 466 686 466 622 c 0
 466 542 515 521 599 521 c 2
 650 521 l 1
 649 525 649 531 649 538 c 130
 649 565 l 2
 649 657 636 724 559 724 c 0
EndSplineSet
EndChar

StartChar: uni0E8A
Encoding: 210 3722 211
Width: 1219
GlyphClass: 2
Flags: HW
HStem: 0 122<243.11 457.855> 221 111<755.969 946.859> 560 95<235.973 397.35> 851 87<285.623 399.58> 1007 97<335.272 862.02>
VStem: 83 145<139.585 295.945 677.75 850.213> 413 124<672.743 834.895> 982 136<708.535 909.105>
DStem2: 292.5 434.5 523 402 0.934534 0.355875<-123.742 733.92> 520 194 502 57.5 0.913164 0.407592<-219.436 350.123> 1092 86 953.5 145.5 0.111384 -0.993777<-154.001 271.094>
LayerCount: 2
Fore
SplineSet
537 753 m 0
 537 628 441 560 314 560 c 0
 165 560 94 647 94 797 c 0
 94 1030 350 1104 591 1104 c 0
 845 1104 1118 1043 1118 799 c 0
 1118 613 957 567 814 512 c 2
 523 402 l 2
 354 338 228 339 228 213 c 0
 228 153 256 127 311 122 c 1
 519 130 693 332 902 332 c 0
 1060 332 1075 231 1092 86 c 2
 1126 -198 l 1
 992 -198 l 1
 961 86 l 2
 954 146 957 221 892 221 c 256
 692 221 513 0 298 0 c 0
 175 0 83 81 83 204 c 0
 83 378 273 430 402 476 c 1
 585 543 l 2
 720 592 982 644 982 799 c 0
 982 958 792 1007 608 1007 c 0
 470 1007 360 989 285 933 c 1
 305 935 322 938 339 938 c 0
 458 935 537 874 537 753 c 0
323 655 m 0
 393 655 410 692 413 759 c 1
 413 820 369 851 282 851 c 2
 223 851 l 1
 217 832 214 812 214 792 c 0
 214 706 238 655 323 655 c 0
EndSplineSet
EndChar

StartChar: uni0E8D
Encoding: 211 3725 212
Width: 1172
GlyphClass: 2
Flags: HW
HStem: 0 97<319.562 803.494> 445 113<342.915 540> 445 56<309.499 342> 737 84<236.844 389.693> 752 69<236 324.5> 1008 96<260.787 406.355>
VStem: 82 154<171.399 393.409 620.234 752 821 972.413> 418 123<838.647 999.978> 922 159<213.25 1104>
LayerCount: 2
Fore
SplineSet
541 920 m 0
 541 801 467 741 347 737 c 0
 329 737 310 740 290 742 c 1
 236 752 l 1
 236 732 l 2
 236 630 303 558 406 558 c 2
 540 558 l 1
 540 445 l 1
 406 445 l 2
 307 445 235 377 235 278 c 0
 235 137 388 97 552 97 c 0
 811 97 922 172 922 431 c 2
 922 1104 l 1
 1081 1104 l 1
 1081 446 l 2
 1081 109 910 0 572 0 c 0
 320 0 82 58 82 280 c 0
 82 417 202 501 342 501 c 1
 176 519 82 617 82 800 c 0
 82 973 160 1104 331 1104 c 0
 457 1104 541 1044 541 920 c 0
299 821 m 2
 379 821 415 842 418 913 c 1
 415 976 388 1007 337 1008 c 1
 266 1008 236 948 236 870 c 2
 236 821 l 1
 299 821 l 2
EndSplineSet
EndChar

StartChar: uni0E94
Encoding: 212 3732 213
Width: 1199
GlyphClass: 2
Flags: HW
HStem: 0 94<269.739 422.418> 283 83<253.859 403.022> 1005 99<375.172 820.605>
VStem: 95 158<108.29 283 352 882.217> 435 124<102.947 265.688> 948 158<0 878.62>
LayerCount: 2
Fore
SplineSet
347 366 m 0
 468 366 559 310 559 191 c 0
 559 64 483 0 332 0 c 0
 174 0 95 108 95 324 c 2
 95 658 l 2
 95 992 260 1104 596 1104 c 0
 933 1104 1106 993 1106 658 c 2
 1106 0 l 1
 948 0 l 1
 948 654 l 2
 948 905 848 1005 596 1005 c 0
 347 1005 253 904 253 654 c 2
 253 352 l 1
 308 363 l 1
 327 365 340 366 347 366 c 0
253 245 m 2
 253 157 267 97 349 94 c 1
 406 96 434 128 435 191 c 1
 435 267 385 283 303 283 c 2
 253 283 l 1
 253 245 l 2
EndSplineSet
EndChar

StartChar: uni0E95
Encoding: 213 3733 214
Width: 1433
GlyphClass: 2
Flags: HW
HStem: 0 94<272.151 425.143> 283 83<253.594 402.992> 1005 99<316.695 577.157 864.182 1111.83>
VStem: 95 158<110.451 283 354 932.713> 436 123<102.019 264.348> 639 159<512 883.983> 1182 158<0 927.206>
LayerCount: 2
Fore
SplineSet
718 884 m 1
 740 1034 821 1104 989 1104 c 0
 1260 1104 1340 928 1340 654 c 2
 1340 0 l 1
 1182 0 l 1
 1182 662 l 2
 1182 832 1167 1004 997 1004 c 0
 804 1004 798 836 798 636 c 2
 798 512 l 1
 639 512 l 1
 639 636 l 2
 639 819 636 1005 462 1005 c 0
 276 1005 253 880 253 690 c 2
 253 354 l 1
 291 362 l 1
 311 364 327 366 345 366 c 0
 469 366 559 313 559 191 c 0
 559 52 477 0 334 0 c 0
 165 0 95 127 95 307 c 2
 95 658 l 2
 95 938 178 1104 455 1104 c 0
 617 1104 697 1027 718 884 c 1
436 191 m 1
 436 263 384 283 307 283 c 2
 253 283 l 1
 253 228 l 2
 253 139 286 94 353 94 c 0
 407 94 435 126 436 191 c 1
EndSplineSet
EndChar

StartChar: uni0E96
Encoding: 214 3734 215
Width: 1275
GlyphClass: 2
Flags: HW
HStem: 0 94<456.51 600.776> 283 81<436.5 585.507> 749 97<112.046 277.253> 1005 99<100.403 261.013 626.687 946.944>
VStem: -28 123<861.298 1002.89> 279 157<130.104 283 353 769 853.91 877.914> 618 124<114.116 261.852> 1027 157<-311 920.603>
LayerCount: 2
Fore
SplineSet
789 1104 m 0
 1073 1104 1184 959 1184 675 c 2
 1184 -311 l 1
 1027 -311 l 1
 1027 692 l 2
 1027 895 980 1005 779 1005 c 0
 643 1005 537 915 436 851 c 1
 436 353 l 1
 468 360 l 2
 486 364 506 364 528 364 c 0
 655 364 742 313 742 191 c 1
 735 61 657 0 518 0 c 0
 339 0 279 131 279 322 c 2
 279 769 l 1
 239 756 204 749 173 749 c 0
 39 749 -19 806 -28 929 c 1
 -28 1052 61 1104 192 1104 c 0
 308 1104 383 1055 416 958 c 0
 416 957 416 956 417 955 c 1
 528 1029 623 1104 789 1104 c 0
95 931 m 1
 98 876 126 846 183 846 c 0
 212 846 244 854 279 871 c 1
 279 879 l 2
 279 964 259 1010 182 1010 c 0
 125 1010 96 984 95 931 c 1
523 94 m 0
 584 94 615 119 618 178 c 1
 618 191 l 2
 618 265 569 283 490 283 c 2
 436 283 l 1
 436 241 l 2
 436 159 452 94 523 94 c 0
EndSplineSet
EndChar

StartChar: uni0E97
Encoding: 215 3735 216
Width: 1384
GlyphClass: 2
Flags: HW
HStem: 0 98<363.467 588.537> 738 83<166.914 281> 1008 96<152.523 307.404 871.639 1078.32>
VStem: 13 124<843.695 986.854> 165 159<144.42 490.305> 325 139<822.088 989.654> 654 159<170.751 943.109> 1135 156<0 946.992>
DStem2: 183 381 364.5 494.5 0.257836 0.966189<-51.1712 382.758 455.29 559.23>
LayerCount: 2
Fore
SplineSet
654 686 m 2
 654 943 734 1104 973 1104 c 0
 1223 1104 1291 936 1291 683 c 2
 1291 0 l 1
 1135 0 l 1
 1135 748 l 2
 1135 884 1102 1005 980 1005 c 0
 852 1005 813 901 813 758 c 2
 813 463 l 2
 813 182 753 0 477 0 c 0
 281 0 165 85 165 276 c 0
 165 444 238 599 281 751 c 1
 212 738 l 1
 92 738 13 801 13 921 c 0
 13 1043 85 1104 229 1104 c 0
 361 1104 464 1047 464 917 c 0
 464 896 460 870 453 839 c 1
 404 661 363 515 330 334 c 128
 326 314 324 299 324 290 c 0
 324 169 362 98 474 98 c 0
 641 98 654 265 654 430 c 2
 654 686 l 2
232 1008 m 0
 169 1008 137 985 137 925 c 2
 137 919 l 2
 137 843 179 821 257 821 c 2
 300 821 l 1
 311 857 325 887 325 922 c 0
 325 974 286 1008 232 1008 c 0
EndSplineSet
EndChar

StartChar: uni0E99
Encoding: 216 3737 217
Width: 1316
GlyphClass: 2
Flags: HW
HStem: 0 98<39 202.398 589.389 972.907> 737 84<162.946 313.129> 1008 96<148.88 295.712>
VStem: 9 123<837.011 991.215> 315 156<237.875 763 821 971.895> 1067 157<195.728 1104>
LayerCount: 2
Fore
SplineSet
210 737 m 0
 92 737 12 799 9 914 c 1
 10 1041 82 1104 225 1104 c 0
 402 1104 471 984 471 797 c 2
 471 403 l 2
 471 192 576 98 787 98 c 0
 980 98 1067 182 1067 372 c 2
 1067 1104 l 1
 1224 1104 l 1
 1224 428 l 2
 1224 137 1078 0 786 0 c 0
 584 0 434 73 395 235 c 1
 359 81 232 0 39 0 c 1
 39 99 l 1
 221 99 315 214 315 400 c 2
 315 763 l 1
 275 746 240 737 210 737 c 0
227 1008 m 0
 161 1008 132 980 132 913 c 0
 132 837 177 821 257 821 c 2
 315 821 l 1
 315 858 l 2
 315 943 301 1008 227 1008 c 0
EndSplineSet
EndChar

StartChar: uni0E9A
Encoding: 217 3738 218
Width: 1218
GlyphClass: 2
Flags: HW
HStem: 0 98<411.017 855.694> 736 85<149.75 282.505> 1008 96<153.893 306.57>
VStem: 14 124<833.465 992.709> 167 157<172.55 492.359> 326 139<822.413 988.626> 968 157<211.285 1104>
DStem2: 180 384 337 377 0.271414 0.962463<-71.6902 379.526 453.98 548.648>
LayerCount: 2
Fore
SplineSet
14 921 m 0
 14 1054 109 1103 249 1104 c 0
 368 1104 465 1030 465 912 c 0
 465 889 456 842 438 772 c 2
 337 377 l 2
 337 376 336 374 336 373 c 0
 329 341 324 307 324 268 c 0
 324 131 495 98 640 98 c 0
 881 98 968 195 968 436 c 2
 968 1104 l 1
 1125 1104 l 1
 1125 463 l 2
 1125 133 975 0 645 0 c 0
 414 0 167 66 167 290 c 0
 167 329 171 355 180 384 c 2
 284 749 l 1
 252 740 227 736 210 736 c 0
 95 736 14 806 14 921 c 0
224 1008 m 0
 167 1008 139 977 138 921 c 1
 138 839 185 821 267 821 c 2
 303 821 l 1
 321 884 l 2
 324 895 326 903 326 913 c 0
 326 974 288 1008 224 1008 c 0
EndSplineSet
EndChar

StartChar: uni0E9B
Encoding: 218 3739 219
Width: 1219
GlyphClass: 2
Flags: HW
HStem: 0 98<421.12 856.13> 736 85<169.946 282.535> 1008 96<149.909 310.573>
VStem: 15 124<838.629 994.548> 168 157<178.004 495.578> 327 139<821.741 992.101> 970 157<215.18 1427>
DStem2: 181 389 338 376 0.273951 0.961744<-66.7023 373.483 449.169 554.259>
LayerCount: 2
Fore
SplineSet
206 736 m 0
 96 736 15 811 15 921 c 0
 15 1038 92 1099 245 1104 c 1
 364 1104 466 1048 466 931 c 0
 466 886 459 843 446 802 c 1
 338 376 l 2
 329 344 325 314 325 278 c 0
 325 134 501 98 652 98 c 0
 889 98 970 207 970 444 c 2
 970 1427 l 1
 1127 1427 l 1
 1127 483 l 2
 1127 142 989 0 649 0 c 0
 415 0 168 64 168 290 c 0
 168 330 172 359 181 389 c 2
 284 748 l 1
 253 740 227 736 206 736 c 0
327 924 m 0
 327 979 292 1008 234 1008 c 1
 173 1002 142 974 139 923 c 1
 139 840 180 821 265 821 c 2
 304 821 l 1
 322 884 l 1
 324 897 327 910 327 924 c 0
EndSplineSet
EndChar

StartChar: uni0E9C
Encoding: 219 3740 220
Width: 1553
GlyphClass: 2
Flags: HW
HStem: 0 98<312.707 560.18 868.645 1105.79> 737 83<252.937 423.171 1004.67 1174> 1008 96<273.547 417.463 1008.24 1152.95>
VStem: 95 157<165.882 758 821 969.319> 434 125<833.165 990.734> 633 159<228.475 473> 868 124<833.547 991.513> 1174 157<195.163 743> 1355 117<898.73 1238>
LayerCount: 2
Fore
SplineSet
868 917 m 0
 868 1053 956 1100 1095 1104 c 1
 1220 1103 1295 1034 1318 897 c 1
 1343 934 1355 986 1355 1053 c 2
 1355 1238 l 1
 1472 1238 l 1
 1472 1053 l 2
 1472 922 1413 849 1330 794 c 1
 1331 776 1331 761 1331 750 c 130
 1331 482 l 2
 1331 199 1248 0 989 0 c 0
 831 0 735 85 713 226 c 1
 694 82 602 0 440 0 c 0
 159 0 95 180 95 465 c 2
 95 804 l 2
 95 987 165 1104 339 1104 c 0
 476 1104 559 1046 559 914 c 0
 559 801 474 737 359 737 c 0
 319 737 286 746 252 758 c 1
 252 410 l 2
 252 234 272 98 442 98 c 0
 600 98 633 238 633 417 c 2
 633 473 l 1
 792 473 l 1
 792 416 l 2
 792 245 833 98 985 98 c 0
 1142 98 1174 228 1174 403 c 2
 1174 743 l 1
 1148 739 1119 737 1087 737 c 0
 955 737 868 791 868 917 c 0
992 919 m 0
 992 833 1046 820 1133 820 c 0
 1146 820 1160 821 1174 823 c 1
 1174 858 l 2
 1174 947 1159 1008 1081 1008 c 0
 1024 1008 992 976 992 919 c 0
434 913 m 0
 434 974 405 1007 347 1008 c 1
 269 1008 252 943 252 858 c 2
 252 821 l 1
 304 821 l 2
 383 821 434 835 434 913 c 0
EndSplineSet
EndChar

StartChar: uni0E9D
Encoding: 220 3741 221
Width: 1431
GlyphClass: 2
Flags: HW
HStem: 0 98<315.166 568.143 868.533 1116.65> 737 84<252.871 424.177> 1008 96<271.367 418.252>
VStem: 94 157<169.272 763 821 970.349> 434 124<833.897 982.214> 637 157<228.962 475> 1180 159<174.75 1427>
LayerCount: 2
Fore
SplineSet
251 405 m 2
 251 228 277 101 447 98 c 1
 603 98 637 232 637 405 c 2
 637 475 l 1
 794 475 l 1
 794 405 l 2
 794 244 835 98 980 98 c 0
 1154 98 1180 227 1180 405 c 2
 1180 1427 l 1
 1339 1427 l 1
 1339 482 l 2
 1339 195 1279 0 997 0 c 1
 840 2 747 77 716 226 c 1
 684 81 609 3 444 0 c 1
 159 3 94 179 94 470 c 2
 94 777 l 2
 94 979 155 1097 338 1104 c 1
 471 1102 558 1053 558 924 c 0
 558 802 479 737 356 737 c 0
 326 737 291 746 251 763 c 1
 251 405 l 2
434 914 m 0
 434 971 409 1008 352 1008 c 0
 267 1008 251 949 251 858 c 2
 251 821 l 1
 304 821 l 2
 384 821 434 836 434 914 c 0
EndSplineSet
EndChar

StartChar: uni0E9E
Encoding: 221 3742 222
Width: 1446
GlyphClass: 2
Flags: HW
HStem: 0 98<356.944 590.825 891.705 1133.18> 736 85<147 279.536> 1008 96<151.839 305.566>
VStem: 12 124<832.447 992.309> 161 160<134.602 480.25> 324 139<821.859 982.731> 657 158<233.307 1104> 1198 157<172.515 1104>
DStem2: 178 384 344 409 0.271878 0.962332<-92.0856 378.292 453.98 557.17>
LayerCount: 2
Fore
SplineSet
321 247 m 0
 321 151 373 98 470 98 c 0
 623 98 657 227 657 397 c 2
 657 1104 l 1
 815 1104 l 1
 815 397 l 2
 815 228 862 98 1016 98 c 0
 1169 98 1198 231 1198 402 c 2
 1198 1104 l 1
 1355 1104 l 1
 1355 483 l 2
 1355 196 1298 0 1016 0 c 0
 843 0 770 90 736 231 c 1
 709 75 627 0 445 0 c 0
 262 0 161 93 161 275 c 0
 161 308 167 345 178 384 c 2
 281 748 l 1
 250 740 225 736 208 736 c 0
 87 736 12 805 12 926 c 0
 12 1054 109 1104 247 1104 c 0
 367 1104 463 1030 463 910 c 0
 463 887 458 857 449 821 c 2
 344 409 l 2
 330 355 321 304 321 247 c 0
223 1008 m 0
 166 1008 137 978 136 923 c 1
 136 840 178 821 260 821 c 2
 301 821 l 1
 317 876 l 2
 321 891 320 907 324 922 c 1
 324 977 282 1008 223 1008 c 0
EndSplineSet
EndChar

StartChar: uni0E9F
Encoding: 222 3743 223
Width: 1526
GlyphClass: 2
Flags: HW
HStem: 0 98<357.165 599.102 886.651 1138.14> 741 81<168.008 280.879> 1010 94<145.177 303.824>
VStem: 12 123<839.714 1001.78> 160 159<142.868 481.688> 324 139<822.316 990.139> 657 158<232.462 1104> 1196 157<172.297 1428>
DStem2: 177 387 347 426 0.268515 0.963275<-81.0773 381.716 452.052 559.308>
LayerCount: 2
Fore
SplineSet
236 1104 m 0
 361 1104 463 1042 463 919 c 0
 463 885 454 855 446 822 c 2
 347 426 l 1
 337 394 319 329 319 263 c 0
 319 163 366 98 464 98 c 0
 636 98 657 222 657 397 c 2
 657 1104 l 1
 815 1104 l 1
 815 397 l 2
 815 225 853 98 1021 98 c 0
 1179 98 1196 239 1196 401 c 2
 1196 1428 l 1
 1353 1428 l 1
 1353 483 l 2
 1353 196 1296 0 1015 0 c 0
 839 0 767 85 736 231 c 1
 711 76 626 0 453 0 c 2
 442 0 l 1
 275 3 160 104 160 274 c 0
 160 315 167 351 177 387 c 2
 282 754 l 1
 244 745 229 741 195 741 c 0
 85 741 12 811 12 922 c 0
 12 1050 100 1104 236 1104 c 0
324 927 m 0
 324 977 276 1010 222 1010 c 0
 165 1010 136 979 135 916 c 1
 135 840 185 822 265 822 c 2
 300 822 l 1
 311 862 l 1
 316 885 324 905 324 927 c 0
EndSplineSet
EndChar

StartChar: uni0EA1
Encoding: 223 3745 224
Width: 1495
GlyphClass: 2
Flags: HW
HStem: 0 94<114.056 269.766 779.569 1131> 283 84<123.759 255.452>
VStem: -17 124<103.638 265.259> 272 110<110.992 258.76> 494 157<240.163 1104> 1245 158<219.07 1104>
LayerCount: 2
Fore
SplineSet
651 415 m 2
 651 199 751 101 962 98 c 1
 1143 98 1245 192 1245 374 c 2
 1245 1104 l 1
 1403 1104 l 1
 1403 467 l 2
 1403 161 1264 0 963 0 c 0
 753 0 620 76 573 236 c 1
 533 79 414 0 216 0 c 0
 88 0 -17 56 -17 185 c 0
 -17 300 61 367 180 367 c 0
 301 367 382 321 382 206 c 0
 382 184 374 152 359 109 c 1
 449 142 494 243 494 414 c 2
 494 1104 l 1
 651 1104 l 1
 651 415 l 2
191 283 m 0
 130 283 107 244 107 182 c 0
 107 103 155 94 235 94 c 0
 247 94 260 95 272 95 c 1
 272 191 l 2
 272 248 246 283 191 283 c 0
EndSplineSet
EndChar

StartChar: uni0EA2
Encoding: 224 3746 225
Width: 1224
GlyphClass: 2
Flags: HW
HStem: 1 96<339.894 820.475> 445 113<362.94 560> 445 56<330.179 362> 737 84<256.844 409.693> 752 69<256 344.5> 1008 96<281.472 428.04>
VStem: 102 154<171.385 392.345 619.6 752 821 972.413> 438 123<837.385 1000.83> 942 159<215.736 1380.66>
LayerCount: 2
Fore
SplineSet
572 97 m 0
 579 97 585 98 592 98 c 0
 839 98 942 184 942 431 c 2
 942 1073 l 2
 942 1212 957 1314 1000 1415 c 1
 1151 1415 l 1
 1120 1299 1101 1186 1101 1050 c 2
 1101 446 l 2
 1101 110 929 1 592 1 c 0
 341 1 102 58 102 280 c 0
 102 418 222 501 362 501 c 1
 194 519 102 616 102 800 c 0
 102 973 180 1104 351 1104 c 0
 475 1104 561 1042 561 920 c 0
 561 801 487 740 367 737 c 0
 349 737 330 740 310 742 c 1
 256 752 l 1
 256 732 l 2
 256 631 324 558 426 558 c 2
 560 558 l 1
 560 445 l 1
 426 445 l 2
 327 445 255 376 255 276 c 0
 255 137 409 97 572 97 c 0
319 821 m 2
 400 821 435 840 438 913 c 1
 436 976 409 1007 357 1008 c 1
 286 1008 256 948 256 870 c 2
 256 821 l 1
 319 821 l 2
EndSplineSet
EndChar

StartChar: uni0EA3
Encoding: 225 3747 226
Width: 1253
GlyphClass: 2
Flags: HW
HStem: 0 96<336.346 894.821> 174 79<260.895 388.91> 447 88<228.513 385.96> 1005 99<306.971 916.153>
VStem: 82 118<254.117 416.501> 104 158<806.506 960.661> 401 123<265.671 431.354> 1005 158<185.32 421.444> 1018 126<764 920.754>
DStem2: 393 764.5 393 637 0.946139 -0.323762<-149.62 685.66>
LayerCount: 2
Fore
SplineSet
82 307 m 0
 82 459 159 534 310 535 c 0
 440 535 524 480 524 353 c 0
 524 246 449 177 345 174 c 1
 257 189 l 1
 334 123 455 96 605 96 c 0
 806 96 1003 126 1005 296 c 1
 1005 430 919 456 815 492 c 2
 393 637 l 2
 264 682 104 718 104 878 c 1
 101 1073 355 1104 591 1104 c 0
 886 1104 1144 1070 1144 785 c 2
 1144 764 l 1
 1018 764 l 1
 1018 789 l 2
 1018 994 809 1005 596 1005 c 0
 591.751937984 1005 587.446187128 1005.00192296 583.090409463 1005.00192296 c 0
 446.97235743 1005.00192296 262 1003.12403101 262 882 c 0
 262 777 436 747 529 716 c 2
 656 674 l 1
 861 608 1163 572 1163 312 c 1
 1165 63 887 0 601 0 c 0
 356 0 82 72 82 307 c 0
247 253 m 2
 345 253 398 260 401 352 c 1
 401 409 378 447 323 447 c 0
 241 447 200 396 200 312 c 0
 200 293 204 273 211 253 c 1
 247 253 l 2
EndSplineSet
EndChar

StartChar: uni0EA5
Encoding: 226 3749 227
Width: 1298
GlyphClass: 2
Flags: HW
HStem: 0 94<239.094 385.783 854.079 1004.55> 283 87<226.781 374.087> 508 104<275.285 473.369> 1005 99<399.019 926.48>
VStem: 68 153<106.305 283> 94 137<713 862.119> 404 123<109.668 262.688> 1048 158<140.335 884.133>
DStem2: 679 398 514 413 0.529101 -0.848559<-229.694 371.532>
LayerCount: 2
Fore
SplineSet
68 266 m 0
 68 457 188 612 378 612 c 0
 653 612 711 276 856 138 c 128
 878 117 896 104 932 104 c 0
 1041 104 1048 242 1048 351 c 2
 1048 623 l 2
 1048 920 957 1005 660 1005 c 2
 656 1005 l 2
 419 1005 234 930 231 713 c 1
 94 713 l 1
 94 1009 350 1104 679 1104 c 0
 1034 1104 1206 989 1206 636 c 2
 1206 413 l 2
 1206 177 1153 0 923 0 c 0
 683 0 601 342 465 472 c 128
 441 495 420 508 381 508 c 0
 280 508 238 435 226 339 c 1
 261 350 295 370 327 370 c 0
 448 370 527 302 527 181 c 0
 527 50 437 0 299 0 c 0
 151 0 68 116 68 266 c 0
316 94 m 0
 378 94 400 128 404 192 c 1
 404 262 357 277 288 283 c 1
 221 283 l 1
 221 264 l 2
 221 173 228 94 316 94 c 0
EndSplineSet
EndChar

StartChar: uni0EA7
Encoding: 227 3751 228
Width: 1300
GlyphClass: 2
Flags: HW
HStem: 0 96<372.287 871.418> 174 79<317.966 438.833> 446 89<277.706 434.996> 1005 99<395.38 922.897>
VStem: 100 137<713 866.984> 106 147<253.543 419.196> 451 125<268.59 430.334> 1050 157<263.273 878.564>
LayerCount: 2
Fore
SplineSet
361 535 m 0
 492 535 576 480 576 353 c 0
 576 236 517 174 400 174 c 1
 297 192 l 1
 357 128 469 96 634 96 c 0
 911 96 1050 219 1050 464 c 2
 1050 623 l 2
 1050 925 947 1005 645 1005 c 0
 411 1005 243 928 237 713 c 1
 100 713 l 1
 100 1003 356 1104 653 1104 c 0
 999 1104 1207 1019 1207 677 c 2
 1207 450 l 2
 1207 126 967 0 638 0 c 0
 394 0 106 70 106 303 c 0
 106 456 207 535 361 535 c 0
278 253 m 2
 379 253 451 255 451 352 c 0
 451 418 423 446 358 446 c 0
 284 446 253 390 253 312 c 0
 253 293 256 273 261 253 c 1
 278 253 l 2
EndSplineSet
EndChar

StartChar: uni0EAA
Encoding: 228 3754 229
Width: 1379
GlyphClass: 2
Flags: HW
HStem: 0 94<257.714 403.273 862.646 1041.41> 283 84<298.656 385.928> 464 94<294.165 515.25> 619 102<339.105 942.262> 1005 99<379.244 948.979>
VStem: 105 133<110.242 282.844> 124 155<773.311 928.058> 421 123<111.318 266.504> 1088 159<146.3 757.031> 1150 126<1000.26 1229>
LayerCount: 2
Fore
SplineSet
321 0 m 0
 170 0 105 111 105 272 c 256
 105 452 210 558 392 558 c 0
 719 558 680 232 890 122 c 128
 911 111 934 105 961 105 c 0
 1080 105 1088 236 1088 355 c 2
 1088 758 l 1
 1047 653 825 619 675 619 c 0
 414 619 124 641 124 844 c 0
 124 1062 445 1104 675 1104 c 0
 860 1104 999 1070 1104 994 c 1
 1132 1047 1150 1140 1150 1229 c 1
 1276 1229 l 1
 1276 1111 1232 978 1190 892 c 1
 1231 846 1247 736 1247 649 c 2
 1247 401 l 2
 1247 162 1178 1 958 1 c 0
 678 1 662 291 510 424 c 128
 482 449 451 464 402 464 c 0
 304 464 260 422 244 339 c 1
 356 367 l 1
 470 367 544 303 544 189 c 0
 544 56 460 0 321 0 c 0
279 844 m 0
 279 725 507 721 675 721 c 0
 866 721 1010 757 1056 885 c 1
 983 973 845 1005 675 1005 c 0
 519 1005 279 987 279 844 c 0
421 193 m 256
 421 272 365 283 279 283 c 2
 239 283 l 1
 238 280 238 277 238 274 c 2
 238 253 l 2
 238 167 251 100 329 94 c 1
 392 95 421 126 421 193 c 256
EndSplineSet
EndChar

StartChar: uni0EAB
Encoding: 229 3755 230
Width: 1860
GlyphClass: 2
Flags: HW
HStem: 0 97<414.889 803.906> 737 84<150.85 281.89 739.821 895.767> 1008 96<156.831 307.557 729.203 880.452 1270.75 1511.9>
VStem: 16 122<834.734 989.814> 174 157<175.688 516.344> 325 140<823.374 990.613> 589 123<848.567 994.311> 897 157<195.953 749 827.699 849.791> 1563 156<0 945.443>
DStem2: 189 410 345 408 0.265102 0.96422<-57.2096 357.841 426.251 530.866> 1050 931 1133 874.5 0.825438 0.564493<0 330.414>
LayerCount: 2
Fore
SplineSet
1054 463 m 2
 1054 143 942 0 619 0 c 0
 387 0 174 79 174 306 c 0
 174 339 179 374 189 410 c 2
 284 755 l 1
 239 743 214 737 210 737 c 0
 92 737 16 805 16 923 c 0
 16 1049 98 1104 229 1104 c 0
 355 1104 465 1047 465 923 c 0
 465 894 457 849 442 788 c 2
 345 408 l 2
 336 376 331 347 331 311 c 0
 331 155 442 97 611 97 c 0
 840 97 897 207 897 438 c 2
 897 749 l 1
 869 740 843 736 818 736 c 0
 678 736 589 790 589 923 c 0
 589 1054 696 1102 826 1102 c 0
 950 1102 1025 1045 1050 931 c 1
 1144 993 1258 1104 1405 1104 c 0
 1658 1104 1719 919 1719 662 c 2
 1719 0 l 1
 1563 0 l 1
 1563 658 l 2
 1563 669.733333333 1563.02666667 681.444444444 1563.02666667 693.084148148 c 0
 1563.02666667 856.04 1557.8 1005 1401 1005 c 0
 1260 1005 1150 878 1054 822 c 1
 1054 463 l 2
815 1010 m 0
 755 1010 712 987 712 931 c 1
 715 861 756 827 826 824 c 1
 849 825 872 831 897 842 c 1
 897 916 l 2
 897 973 871 1010 815 1010 c 0
236 1008 m 0
 176 1008 141 976 138 921 c 1
 138 838 189 821 273 821 c 2
 302 821 l 1
 317 872 325 907 325 924 c 0
 325 973 287 1008 236 1008 c 0
EndSplineSet
EndChar

StartChar: uni0EAD
Encoding: 230 3757 231
Width: 1300
GlyphClass: 2
Flags: HW
HStem: 0 96<365.244 893.072> 174 79<298.278 437.45> 446 89<276.116 432.525> 607 104<317.61 943.803> 1005 99<346.363 917.923>
VStem: 105 148<253.196 418.903 768.952 929.184> 451 124<267.926 421.276> 1052 156<273.667 693>
LayerCount: 2
Fore
SplineSet
636 1104 m 0
 978 1104 1208 1009 1208 696 c 2
 1208 506 l 2
 1208 144 1003 0 633 0 c 0
 394 0 105 74 105 303 c 0
 105 453 205 535 358 535 c 0
 488 535 575 482 575 356 c 0
 575 252 509 177 407 174 c 1
 371 174 337 181 297 188 c 1
 354 127 466 96 631 96 c 0
 1016 96 1052 295 1052 684 c 2
 1052 693 l 1
 976 617 795 607 637 607 c 0
 382 607 104 638 104 844 c 0
 104 1064 402 1104 636 1104 c 0
636 1005 m 0
 460 1005 260 985 260 844 c 1
 262 714 461 711 636 711 c 0
 778 711 1022 723 1030 844 c 1
 1026 979 786 1005 636 1005 c 0
451 353 m 0
 451 415 417 445 355 446 c 1
 282 445 253 392 253 312 c 0
 253 290 256 269 261 253 c 1
 308 253 l 2
 396 253 451 267 451 353 c 0
EndSplineSet
EndChar

StartChar: uni0EAE
Encoding: 231 3758 232
Width: 1240
GlyphClass: 2
Flags: HW
HStem: 0 96<363.785 881.407> 175 78<312.373 425.083> 446 89<280.776 438.67> 786 104<770.656 1003.38> 991 113<254.671 475.399>
VStem: 98 141<813.109 975.584> 107 148<253.775 417.826> 455 123<270.823 429.195> 976 156<178.837 410.523> 1021 111<904.212 1104>
DStem2: 485 723 453.5 616.5 0.933346 -0.358979<-275.792 567.635> 596 1011 476 946 0.91944 -0.393231<-239.661 385.59>
LayerCount: 2
Fore
SplineSet
315 1104 m 0
 526 1104 710 907 917 890 c 1
 922 890 l 2
 988 890 1021 934 1021 1022 c 2
 1021 1104 l 1
 1132 1104 l 1
 1132 1023 l 2
 1132 888 1065 786 931 786 c 0
 832 786 530 933 392 978 c 128
 365 987 343 991 326 991 c 0
 268 991 239 959 239 900 c 0
 239 786 389 759 485 723 c 2
 770 616 l 2
 920 560 1132 507 1132 307 c 0
 1132 65 875 0 625 0 c 0
 372 0 107 63 107 307 c 0
 107 455 208 535 358 535 c 0
 492 535 578 480 578 350 c 0
 578 244 502 175 396 175 c 1
 291 193 l 1
 346 128 460 96 633 96 c 0
 826 96 976 135 976 303 c 0
 976 643 98 572 98 905 c 0
 98 1035 185 1104 315 1104 c 0
323 253 m 2
 408 253 455 269 455 345 c 0
 455 411 431 446 367 446 c 0
 287 446 255 390 255 306 c 0
 255 285 257 267 262 253 c 1
 323 253 l 2
EndSplineSet
EndChar

StartChar: uni0EAF
Encoding: 232 3759 233
Width: 1299
GlyphClass: 2
Flags: HW
HStem: 392 116<276.586 623.603> 676 97<417.536 536.239> 976 128<405 511.32>
VStem: 49 157<578.447 883.606> 304 101<796.206 963.56> 550 131<786.996 951.385>
DStem2: 549 -332 680 -387 0.393015 0.919532<0.910677 1223.12>
LayerCount: 2
Fore
SplineSet
339 964 m 1
 257 932 206 831 206 717 c 0
 206 575 294 508 442 508 c 0
 650 508 792 655 900 797 c 2
 1089 1047 l 1
 1257 963 l 1
 680 -387 l 1
 549 -332 l 1
 1029 793 l 1
 990 734 l 2
 883 571 715 392 458 392 c 0
 229 392 49 477 49 702 c 0
 49 933 187 1104 416 1104 c 0
 564 1104 681 1033 681 887 c 0
 681 757 608 676 478 676 c 0
 384 676 304 730 304 823 c 0
 304 865 330 924 339 964 c 1
405 854 m 2
 405 807 429 773 475 773 c 0
 529 773 550 808 550 867 c 0
 550 951 491 974 405 976 c 1
 405 854 l 2
EndSplineSet
EndChar

StartChar: uni0EB0
Encoding: 233 3760 234
Width: 1181
GlyphClass: 2
Flags: HW
HStem: 160 120<230.101 389 438 879.031> 470 106<203.236 368.97> 686 123<231.649 389 443 876.558> 999 105<200.57 369.036>
VStem: 82 112<305.656 460.398 837.127 990.755> 389 87<281.219 442.15 809.984 970.115> 979 109<378.203 575 910.516 1104>
LayerCount: 2
Fore
SplineSet
284 1104 m 0
 398 1104 475 1050 475 939 c 0
 475 918 471 896 463 872 c 2
 443 809 l 1
 671 809 l 2
 887 809 975 891 978 1104 c 1
 1089 1104 l 1
 1086 809 969 686 671 686 c 2
 451 686 l 2
 246 686 82 717 82 916 c 0
 82 1034 165 1104 284 1104 c 0
389 875 m 2
 389 957 364 999 288 999 c 0
 225 999 194 972 194 918 c 0
 194 843 257 809 339 809 c 2
 389 809 l 1
 389 875 l 2
293 576 m 0
 390 576 476 512 476 416 c 0
 476 397 473 377 466 358 c 2
 438 280 l 1
 671 280 l 2
 888 280 976 361 979 575 c 1
 1088 575 l 1
 1088 292 984 160 702 160 c 2
 480 160 l 2
 276 160 82 186 82 381 c 0
 82 508 162 576 293 576 c 0
389 364 m 2
 389 431 355 470 289 470 c 0
 226 470 194 441 194 382 c 0
 194 313 254 280 330 280 c 2
 389 280 l 1
 389 364 l 2
EndSplineSet
EndChar

StartChar: uni0EB1
Encoding: 234 3761 235
Width: 0
GlyphClass: 2
Flags: HW
HStem: 1205 118<-934.898 -777 -727 -295.445> 1512 106<-953.448 -796.394>
VStem: -1083 112<1347.56 1496.45> -777 85<1324.11 1485.7> -203 110<1414.52 1605>
LayerCount: 2
Fore
SplineSet
-873 1618 m 0
 -772 1618 -692 1560 -692 1460 c 0
 -692 1437 -696 1415 -703 1394 c 2
 -727 1323 l 1
 -501 1323 l 2
 -293 1323 -203 1398 -203 1605 c 1
 -93 1605 l 1
 -93 1294 -229 1205 -541 1205 c 2
 -687 1205 l 2
 -893 1205 -1083 1228 -1083 1427 c 0
 -1083 1551 -1002 1618 -873 1618 c 0
-877 1512 m 0
 -935 1512 -971 1484 -971 1427 c 0
 -971 1354 -913 1323 -834 1323 c 2
 -777 1323 l 1
 -777 1411 l 2
 -777 1477 -812 1512 -877 1512 c 0
EndSplineSet
EndChar

StartChar: uni0EB2
Encoding: 235 3762 236
Width: 943
GlyphClass: 2
Flags: HW
HStem: 0 21G<694 851> 676 94<244.529 424.911> 1008 96<273.64 436>
VStem: 95 122<798.79 973.118> 436 89<780.731 1002.78> 694 157<0 916.628>
LayerCount: 2
Fore
SplineSet
95 891 m 0
 95 1039 277 1104 432 1104 c 0
 711 1104 851 978 851 725 c 2
 851 0 l 1
 694 0 l 1
 694 732 l 2
 694 890 640 984 508 1004 c 1
 516 954 521 920 525 869 c 1
 525 738 463 676 333 676 c 0
 193 676 95 751 95 891 c 0
217 896 m 1
 217 820 259 770 335 770 c 0
 427 770 436 818 436 911 c 2
 436 1008 l 1
 321 1005 222 991 217 896 c 1
EndSplineSet
EndChar

StartChar: uni0EB3
Encoding: 236 3763 237
Width: 1640
GlyphClass: 2
Flags: HW
HStem: 0 21G<1392 1549> 678 93<942.03 1122.03> 1010 94<970.609 1134> 1185 87<224.604 419.101> 1523 89<223.971 418.38>
VStem: 95 97<1303.39 1490.86> 450 91<1301.6 1492.37> 793 122<799.039 973.937> 1134 90<778.947 937.5> 1392 157<0 917.946>
LayerCount: 2
Fore
SplineSet
541 1397 m 0
 541 1270 444 1188 318 1185 c 1
 192 1185 95 1273 95 1399 c 0
 95 1522 194 1612 318 1612 c 256
 445 1612 541 1524 541 1397 c 0
322 1272 m 0
 396 1272 447 1323 450 1396 c 1
 450 1468 395 1523 322 1523 c 0
 249 1523 192 1469 192 1396 c 0
 192 1325 250 1272 322 1272 c 0
793 891 m 0
 793 1039 975 1104 1129 1104 c 0
 1400 1104 1549 991 1549 727 c 2
 1549 0 l 1
 1392 0 l 1
 1392 732 l 2
 1392 886 1336 985 1206 1005 c 1
 1213 954 1217 921 1224 869 c 1
 1224 741 1162 678 1031 678 c 0
 890 678 793 750 793 891 c 0
915 896 m 1
 915 820 957 771 1033 771 c 0
 1125 771 1134 820 1134 913 c 2
 1134 1010 l 1
 1017 1007 920 991 915 896 c 1
EndSplineSet
Substitution2: "'liga' Standard Ligatures lookup 0 subtable" uni0ECD_uni0EB2
EndChar

StartChar: uni0EB4
Encoding: 237 3764 238
Width: 0
GlyphClass: 2
Flags: HW
HStem: 1205 97<-924.159 -704 -466 -249.833> 1567 103<-875.057 -295.737>
VStem: -1077 127<1331.47 1503.33> -221 128<1333.75 1503.82>
LayerCount: 2
Fore
SplineSet
-422 1302 m 2
 -321 1302 -221 1317 -221 1419 c 0
 -221 1518 -342 1567 -585 1567 c 0
 -828 1567 -950 1517 -950 1418 c 0
 -950 1315 -851 1302 -748 1302 c 2
 -704 1302 l 1
 -704 1205 l 1
 -767 1205 l 2
 -947 1205 -1077 1259 -1077 1424 c 0
 -1077 1637 -800 1670 -585 1670 c 0
 -358 1670 -93 1632 -93 1405 c 0
 -93 1247 -249 1205 -426 1205 c 2
 -466 1205 l 1
 -466 1302 l 1
 -422 1302 l 2
EndSplineSet
EndChar

StartChar: uni0EB5
Encoding: 238 3765 239
Width: 0
GlyphClass: 2
Flags: HW
HStem: 1205 97<-1072.16 -852 -617 -396.794 -317 -90> 1567 103<-1023.48 -443.191>
VStem: -1225 127<1331.47 1503.33> -369 128<1332.9 1503.67>
LayerCount: 2
Fore
SplineSet
-241 1418 m 0
 -241 1361 -279 1326 -317 1302 c 1
 -90 1302 l 1
 -90 1205 l 1
 -617 1205 l 1
 -617 1302 l 1
 -570 1302 l 2
 -469 1302 -369 1317 -369 1419 c 0
 -369 1518 -490 1567 -733 1567 c 0
 -976 1567 -1098 1517 -1098 1418 c 0
 -1098 1315 -999 1302 -896 1302 c 2
 -852 1302 l 1
 -852 1205 l 1
 -915 1205 l 2
 -1095 1205 -1225 1259 -1225 1424 c 0
 -1225 1637 -948 1670 -733 1670 c 0
 -513 1670 -241 1636 -241 1418 c 0
EndSplineSet
EndChar

StartChar: uni0EB6
Encoding: 239 3766 240
Width: 0
GlyphClass: 2
Flags: HW
HStem: 1205 97<-924.399 -704 -466 -270.514> 1324 144<-642.67 -515.724> 1567 103<-875.958 -299.369>
VStem: -1077 126<1330.87 1503.33> -670 178<1346.69 1446.34> -221 128<1329.46 1502.41>
LayerCount: 2
Fore
SplineSet
-422 1302 m 2
 -305 1302 -221 1315 -221 1419 c 0
 -221 1516 -342 1566 -585 1567 c 1
 -829 1567 -951 1517 -951 1418 c 0
 -951 1314 -856 1302 -748 1302 c 2
 -704 1302 l 1
 -704 1205 l 1
 -767 1205 l 2
 -947 1205 -1077 1259 -1077 1424 c 0
 -1077 1634 -797 1670 -585 1670 c 0
 -359 1670 -93 1640 -93 1418 c 0
 -93 1250 -242 1205 -426 1205 c 2
 -466 1205 l 1
 -466 1302 l 1
 -422 1302 l 2
-581 1468 m 0
 -537 1468 -492 1443 -492 1399 c 0
 -492 1352 -530 1324 -581 1324 c 0
 -628 1324 -670 1352 -670 1399 c 0
 -670 1441 -627 1468 -581 1468 c 0
EndSplineSet
EndChar

StartChar: uni0EB7
Encoding: 240 3767 241
Width: 0
GlyphClass: 2
Flags: HW
HStem: 1205 97<-1072.4 -852 -617 -418.514 -317 -90> 1324 144<-800.67 -674.239> 1567 103<-1023.93 -443.56>
VStem: -1225 126<1330.87 1502.93> -828 179<1346.17 1445.83> -369 128<1328.78 1503.78>
LayerCount: 2
Fore
SplineSet
-241 1418 m 0
 -241 1361 -277 1326 -317 1302 c 1
 -90 1302 l 1
 -90 1205 l 1
 -617 1205 l 1
 -617 1302 l 1
 -570 1302 l 2
 -453 1302 -369 1315 -369 1419 c 0
 -369 1518 -490 1567 -733 1567 c 0
 -977 1567 -1099 1517 -1099 1418 c 0
 -1099 1314 -1004 1302 -896 1302 c 2
 -852 1302 l 1
 -852 1205 l 1
 -915 1205 l 2
 -1095 1205 -1225 1259 -1225 1424 c 0
 -1225 1644 -956 1670 -733 1670 c 0
 -507 1670 -241 1640 -241 1418 c 0
-739 1468 m 0
 -694 1468 -649 1443 -649 1399 c 0
 -650 1352 -688 1324 -739 1324 c 0
 -786 1324 -828 1352 -828 1399 c 0
 -828 1441 -786 1468 -739 1468 c 0
EndSplineSet
EndChar

StartChar: uni0EB8
Encoding: 241 3768 242
Width: 0
GlyphClass: 2
Flags: HW
HStem: -161 75<-387.829 -219.722>
VStem: -498 99<-303.521 -170.992> -207 117<-309.747 -171.667>
LayerCount: 2
Fore
SplineSet
-303 -86 m 1
 -195 -88 -90 -131 -90 -233 c 0
 -90 -289 -114 -382 -172 -440 c 1
 -213 -494 -255 -540 -299 -578 c 1
 -324 -598 l 1
 -390 -538 l 1
 -337 -478 l 2
 -304 -440 -277 -402 -256 -365 c 1
 -329 -381 l 2
 -341.090909091 -383.672727273 -352.841652893 -384.952396694 -364.142966191 -384.952396694 c 0
 -441.63768595 -384.952396694 -498 -324.781818182 -498 -241 c 0
 -498 -138 -419 -86 -303 -86 c 1
-228 -312 m 1
 -215 -282 -208 -257 -207 -236 c 1
 -212 -187 -245 -162 -306 -161 c 1
 -367 -163 -398 -190 -399 -241 c 1
 -397.040016013 -288.039615692 -365.308118493 -312.030008005 -302.863138508 -312.030008005 c 0
 -301.588230583 -312.030008005 -300.300520416 -312.020008006 -299 -312 c 2
 -228 -312 l 1
EndSplineSet
EndChar

StartChar: uni0EB9
Encoding: 242 3769 243
Width: 0
GlyphClass: 2
Flags: HW
HStem: -649 99<-374.308 -205.568> -468 79<-643.867 -484.967> -231 91<-639.132 -490.329>
VStem: -749 94<-376.783 -245.128> -493 102<-528.855 -448> -473 114<-388.188 -254.209> -198 116<-545.442 -140>
LayerCount: 2
Fore
SplineSet
-289 -550 m 0
 -199.835051546 -550 -197.996599001 -503.119460091 -197.996599001 -416.408940552 c 0
 -197.996599001 -412.67945584 -198 -408.87628866 -198 -405 c 2
 -198 -140 l 1
 -82 -140 l 1
 -82 -394 l 2
 -82 -556 -126 -649 -286 -649 c 0
 -405 -649 -493 -615 -493 -506 c 0
 -493 -496 -492 -485 -489 -472 c 2
 -484 -448 l 1
 -505 -461 -532 -468 -565 -468 c 0
 -671 -468 -749 -413 -749 -308 c 0
 -749 -202 -668 -140 -560 -140 c 0
 -445 -140 -359 -203 -359 -318 c 0
 -359 -368 -391 -418 -391 -471 c 0
 -391 -528 -350 -550 -289 -550 c 0
-655 -305 m 0
 -655 -372 -605 -389 -535 -389 c 0
 -515 -389 -494 -386 -473 -381 c 1
 -474 -324 l 2
 -475 -264 -501 -231 -560 -231 c 0
 -615 -231 -655 -253 -655 -305 c 0
EndSplineSet
EndChar

StartChar: uni0EBB
Encoding: 243 3771 244
Width: 0
GlyphClass: 2
Flags: HW
HStem: 1205 106<-934.636 -763.54> 1502 116<-905.382 -750 -700 -289.688>
VStem: -1056 112<1320.7 1477.12> -750 88<1324.36 1500.97> -204 110<1205 1414.92>
LayerCount: 2
Fore
SplineSet
-845 1205 m 0
 -972 1205 -1056 1273 -1056 1400 c 0
 -1056 1598 -858 1618 -653 1618 c 2
 -512 1618 l 2
 -202 1618 -94 1515 -94 1205 c 1
 -204 1205 l 1
 -204 1423 -277 1502 -495 1502 c 2
 -700 1502 l 1
 -676 1436 l 2
 -667 1410 -662 1386 -662 1365 c 0
 -662 1265 -744 1205 -845 1205 c 0
-800 1502 m 2
 -883 1502 -941 1473 -944 1399 c 1
 -942 1342 -911 1312 -852 1311 c 1
 -789 1311 -755 1343 -750 1406 c 1
 -750 1502 l 1
 -800 1502 l 2
EndSplineSet
EndChar

StartChar: uni0EBC
Encoding: 244 3772 245
Width: 0
GlyphClass: 2
Flags: HW
HStem: -438 98<-891.438 -763.047 -380.623 -255.689> -190 102<-892.008 -749>
VStem: -1008 107<-328.442 -207.956> -749 62<-311.634 -199.516> -242 117<-329.621 -88>
DStem2: -479 -204 -617 -263 0.756823 -0.65362<-171.218 220.771>
LayerCount: 2
Fore
SplineSet
-687 -296 m 0
 -687 -380 -745 -438 -832 -438 c 0
 -940 -438 -1008 -373 -1008 -264 c 256
 -1008 -136 -879 -88 -747 -88 c 0
 -633 -88 -547 -140 -479 -204 c 2
 -416 -263 l 2
 -379 -298 -347 -342 -306 -342 c 0
 -237.897637795 -342 -228.781573563 -260.491660983 -228.781573563 -176.796142128 c 0
 -228.781573563 -146.197780396 -230 -115.307086614 -230 -88 c 1
 -116 -88 l 1
 -116 -274 -126 -440 -305 -440 c 0
 -398 -440 -468 -391 -529 -339 c 2
 -617 -263 l 1
 -644 -236 -672 -213 -703 -199 c 1
 -695 -232 l 2
 -690 -252 -687 -273 -687 -296 c 0
-901 -265 m 0
 -901 -309 -883 -340 -840 -340 c 0
 -766 -340 -749 -303 -749 -229 c 2
 -749 -190 l 1
 -850 -192 -901 -217 -901 -265 c 0
EndSplineSet
EndChar

StartChar: uni0EBD
Encoding: 245 3773 246
Width: 1137
GlyphClass: 2
Flags: HW
HStem: -378 99<335.648 720.229> 5 74<253 412.727> 284 81<276.705 413.971> 1007 111<789.266 953.419> 1187 117<330.111 552.761>
VStem: 95 158<-193.624 13 79 240.676> 165 142<974.594 1163.54> 432 122<92.4503 266.025> 824 158<-173.881 558.492> 998 105<1209 1314>
DStem2: 724 784 348 833 0.89964 -0.436633<-479.423 126.034> 684 1209 537 1149.5 0.917111 -0.398631<-236.467 239.758> 961 1185 1056 1152 0.278634 0.960397<-79.3435 134.201>
LayerCount: 2
Fore
SplineSet
517 -279 m 0
 751 -279 824 -177 824 58 c 2
 824 349 l 2
 824 520 764 620 655 684 c 1
 348 833 l 2
 247 883 165 927 165 1071 c 0
 165 1220 266 1304 416 1304 c 0
 491 1304 791 1118 906 1118 c 0
 930 1118 948 1140 961 1185 c 2
 998 1314 l 1
 1103 1314 l 1
 1056 1152 l 2
 1035 1077 1011 1007 937 1007 c 0
 774 1007 610 1129 468 1176 c 128
 446 1183 429 1187 416 1187 c 0
 343 1187 307 1145 307 1069 c 0
 307 990 361 960 424 930 c 2
 724 784 l 2
 893 701 982 598 982 348 c 2
 982 85 l 2
 982 -241 842 -378 516 -378 c 0
 246 -378 95 -261 95 2 c 0
 95 216 147 365 339 365 c 0
 471 365 554 312 554 183 c 0
 554 64 483 5 340 5 c 0
 311 5 287 9 253 13 c 1
 253 0 l 2
 253 -193 324 -279 517 -279 c 0
432 183 m 0
 432 246 407 283 348 284 c 1
 264 284 253 207 253 112 c 2
 253 79 l 1
 299 79 l 2
 386 79 432 97 432 183 c 0
EndSplineSet
EndChar

StartChar: uni0EC0
Encoding: 246 3776 247
Width: 650
GlyphClass: 2
Flags: HW
HStem: 0 93<294.11 445.702> 278 84<277.37 424.569> 1003 101<321.378 541.023>
VStem: 116 159<107.912 278 338 956.946> 455 124<101.232 262.9>
LayerCount: 2
Fore
SplineSet
398 1104 m 0
 451 1104 501 1097 543 1083 c 1
 543 987 l 1
 482 998 441 1003 421 1003 c 0
 277 1003 275 844 275 693 c 2
 275 338 l 1
 326 354 370 362 408 362 c 0
 510 362 579 291 579 188 c 0
 579 59 499 0 365 0 c 0
 189 0 116 121 116 307 c 2
 116 615 l 2
 116 872 140 1104 398 1104 c 0
455 187 m 1
 455 265 411 278 328 278 c 2
 275 278 l 1
 275 232 l 2
 275 139 306 93 368 93 c 0
 425 93 454 124 455 187 c 1
EndSplineSet
EndChar

StartChar: uni0EC2
Encoding: 248 3778 249
Width: 779
GlyphClass: 2
Flags: HW
HStem: 0 94<398.925 548.83> 283 84<378.092 528.024> 1619 127<-44.8718 126.723>
VStem: -201 145<1476.25 1608.48> 219 158<128.041 283 339 1126.29> 560 130<102.376 264.668>
DStem2: 173 1327 -134 1405 0.778198 -0.628019<-317.29 168.83> 189 1683 180 1542 0.84708 -0.531466<-117.899 551.103>
LayerCount: 2
Fore
SplineSet
464 0 m 0
 268 0 219 143 219 356 c 2
 219 874 l 2
 219 1094 158 1180 34 1276 c 2
 -134 1405 l 2
 -177 1437 -201 1479 -201 1543 c 0
 -201 1663 -116 1746 5 1746 c 0
 109 1746 183 1688 249 1646 c 2
 656 1390 l 1
 588 1282 l 1
 180 1542 l 2
 119 1581 72 1619 9 1619 c 0
 -33 1619 -56 1592 -56 1549 c 0
 -56 1514 -24 1485 2 1465 c 2
 173 1327 l 2
 313 1214 377 1124 377 871 c 2
 377 339 l 1
 413 351 447 367 486 367 c 0
 598 367 690 302 690 191 c 0
 690 64 615 0 464 0 c 0
472 94 m 0
 533 94 560 128 560 191 c 0
 560 262 511 283 436 283 c 2
 377 283 l 1
 377 232 l 2
 377 150 398 94 472 94 c 0
EndSplineSet
EndChar

StartChar: uni0EC3
Encoding: 249 3779 250
Width: 823
GlyphClass: 2
Flags: HW
HStem: 0 94<380.838 523.115> 283 84<361.061 512.634> 1165 101<128.133 334.926> 1656 116<173.627 534.411>
VStem: -32 128<1296.79 1580.42> 200 160<128.556 283 339 865.381> 359 120<1287.32 1481.57> 541 133<111.62 265.7> 635 140<1210.79 1559.99>
LayerCount: 2
Fore
SplineSet
347 1656 m 0
 186 1656 96 1586 96 1428 c 0
 96 1320 143 1266 236 1266 c 0
 309 1266 359 1295 359 1366 c 0
 359 1407 342 1447 314 1482 c 1
 440 1482 l 1
 462 1452 479 1415 479 1365 c 0
 479 1233 372 1165 238 1165 c 0
 80 1165 -32 1267 -32 1425 c 0
 -32 1653 121 1772 350 1772 c 0
 609 1772 775 1647 775 1389 c 0
 775 1232 690 1089 519 962 c 0
 417 886 360 860 360 691 c 2
 360 339 l 1
 395 351 429 367 467 367 c 0
 581 367 674 304 674 191 c 0
 674 57 589 0 450 0 c 0
 259 0 200 135 200 339 c 2
 200 645 l 2
 200 856 247 943 371 1026 c 2
 463 1088 l 2
 566 1158 635 1230 635 1397 c 0
 635 1570 539 1656 347 1656 c 0
449 94 m 0
 514 94 541 129 541 197 c 0
 541 259 497 283 430 283 c 2
 360 283 l 1
 360 233 l 2
 360 153 378 94 449 94 c 0
EndSplineSet
EndChar

StartChar: uni0EC4
Encoding: 250 3780 251
Width: 769
GlyphClass: 2
Flags: HW
HStem: 0 95<346.656 491.033> 283 84<326.309 495.909> 1370 114<-21.4832 150.066> 1611 118<426.539 602>
VStem: -158 128<1502.05 1728> 167 158<128.948 283 339 1132.77> 508 131<114.081 271.307> 605 138<1478.19 1605.83>
DStem2: 189 1552 271 1464 0.847998 0.529999<-169.435 325.771>
LayerCount: 2
Fore
SplineSet
428 367 m 0
 546 367 639 308 639 191 c 0
 639 64 564 0 415 0 c 0
 250 1 167 114 167 337 c 2
 167 916 l 2
 167 1165 275 1263 422 1372 c 1
 494 1426 l 2
 541 1461 599 1485 605 1548 c 1
 604 1585 581 1606 537 1611 c 1
 444 1607 328 1499 271 1464 c 128
 198 1419 135 1370 37 1370 c 0
 -81 1370 -158 1424 -158 1542 c 2
 -158 1728 l 1
 -30 1728 l 1
 -30 1539 l 2
 -30 1506 -5 1484 31 1484 c 0
 87 1484 140 1521 189 1552 c 2
 281 1610 l 1
 407 1688 400 1729 543 1729 c 0
 661 1729 743 1668 743 1550 c 0
 743 1371 449 1263 374 1140 c 128
 337 1078 325 1014 325 916 c 2
 325 339 l 1
 363 352 395 367 428 367 c 0
423 95 m 1
 480 98 508 129 508 191 c 0
 508 252 473 283 402 283 c 2
 325 283 l 1
 325 229 l 2
 325 144 348 99 423 95 c 1
EndSplineSet
EndChar

StartChar: uni0EC6
Encoding: 251 3782 252
Width: 1299
GlyphClass: 2
Flags: HW
HStem: -364 110<470.752 885.83> 405 93<240.121 389.165> 686 85<224.905 395.223> 1006 98<259.469 448.734 785.732 987.288>
VStem: 66 158<514.43 686 742 965.777> 406 129<514.165 673.667> 1038 156<-64.6583 945.835>
LayerCount: 2
Fore
SplineSet
909 1104 m 0
 1132 1104 1194 916 1194 665 c 2
 1194 272 l 2
 1194 -114 1087 -364 707 -364 c 0
 520 -364 376 -302 277 -179 c 1
 325 -137 l 1
 433 -204 549 -254 707 -254 c 0
 991 -254 1038 -21 1038 270 c 2
 1038 734 l 2
 1038 915 991 1006 896 1006 c 0
 753 1006 742 830 622 830 c 0
 505 830 470 1006 336 1006 c 0
 261 1006 224 931 224 780 c 2
 224 742 l 1
 254 756 287 771 323 771 c 0
 444 771 535 713 535 593 c 0
 535 462 453 405 317 405 c 0
 136 405 66 535 66 731 c 0
 66 938 134 1104 337 1104 c 0
 473 1104 563 1026 620 946 c 1
 681 1022 774 1104 909 1104 c 0
406 583 m 0
 406 586 405 587 405 590 c 0
 405 674 354 686 270 686 c 2
 224 686 l 1
 224 638 l 2
 224 555 241 501 319 498 c 1
 373 499 406 527 406 583 c 0
EndSplineSet
EndChar

StartChar: uni0EC8
Encoding: 252 3784 253
Width: 0
GlyphClass: 2
Flags: HW
HStem: 1270 410<-533 -395>
VStem: -533 138<1270 1680>
LayerCount: 2
Fore
SplineSet
-533 1270 m 1
 -533 1680 l 1
 -395 1680 l 1
 -395 1270 l 1
 -533 1270 l 1
EndSplineSet
EndChar

StartChar: uni0EC9
Encoding: 253 3785 254
Width: 0
GlyphClass: 2
Flags: HW
HStem: 1270 114<-859 -381.553> 1270 85<-1118 -947.466> 1449 76<-1032.55 -924.25> 1687 91<-1075.32 -903.734>
VStem: -1174 94<1549.47 1677.93> -898 113<1525.81 1681.82> -296 126<1460.61 1713>
LayerCount: 2
Fore
SplineSet
-170 1631 m 2
 -170 1352 -340 1270 -622 1270 c 2
 -1118 1270 l 1
 -1118 1355 l 1
 -1064 1355 -1004 1376 -946 1386 c 1
 -924 1450 l 1
 -929 1449 -935 1449 -940 1449 c 2
 -964 1449 l 2
 -1086 1449 -1174 1493 -1174 1608 c 0
 -1174 1717 -1098 1778 -985 1778 c 0
 -865 1778 -785 1716 -785 1596 c 0
 -785 1528 -818 1457 -849 1404 c 1
 -859 1384 l 1
 -613 1384 l 2
 -423 1384 -296 1424 -296 1609 c 2
 -296 1713 l 1
 -170 1713 l 1
 -170 1631 l 2
-898 1576 m 2
 -898 1647 -907 1687 -978 1687 c 0
 -1046 1687 -1080 1663 -1080 1615 c 0
 -1080 1539 -987 1526 -898 1525 c 1
 -898 1576 l 2
EndSplineSet
EndChar

StartChar: uni0ECA
Encoding: 254 3786 255
Width: 0
GlyphClass: 2
Flags: HW
HStem: 1233 77<-919.113 -814 -627 -505.62 -466 -278> 1513 80<-931.177 -785.305 -640.797 -489.362>
VStem: -1047 99<1334.22 1497.69> -763 98<1405 1482.06> -479 97<1342.61 1505.77>
LayerCount: 2
Fore
SplineSet
-1047 1430 m 0
 -1047 1529 -981 1593 -881 1593 c 0
 -792 1593 -737 1552 -715 1489 c 1
 -693 1548 -642 1593 -558 1593 c 0
 -453 1593 -382 1532 -382 1428 c 0
 -382 1362 -413 1324 -466 1310 c 1
 -278 1310 l 1
 -278 1233 l 1
 -627 1233 l 1
 -627 1310 l 1
 -544 1310 -479 1338 -479 1421 c 0
 -479 1482 -508 1513 -565 1513 c 0
 -626 1513 -665 1467 -665 1405 c 1
 -763 1405 l 1
 -763 1468 -806 1513 -867 1513 c 0
 -916 1513 -948 1479 -948 1428 c 0
 -948 1341 -908 1310 -814 1310 c 1
 -814 1234 l 1
 -951 1234 -1047 1293 -1047 1430 c 0
EndSplineSet
EndChar

StartChar: uni0ECB
Encoding: 255 3787 256
Width: 0
GlyphClass: 2
Flags: HW
HStem: 1369 106<-982 -868 -754 -639> 1568 20G<-868 -754>
VStem: -868 114<1257 1369 1475 1588>
LayerCount: 2
Fore
SplineSet
-754 1257 m 1
 -868 1257 l 1
 -868 1369 l 1
 -982 1369 l 1
 -982 1475 l 1
 -868 1475 l 1
 -868 1588 l 1
 -754 1588 l 1
 -754 1475 l 1
 -639 1475 l 1
 -639 1369 l 1
 -754 1369 l 1
 -754 1257 l 1
EndSplineSet
EndChar

StartChar: uni0ECC
Encoding: 256 3788 257
Width: 0
GlyphClass: 2
Flags: HW
HStem: 1251 98<-868.498 -741.888> 1463 101<-670.266 -409.319> 1501 100<-850.603 -728 -672 -608.348>
VStem: -986 106<1361.32 1485.43> -728 63<1372.21 1493> -398 84<1593.4 1672>
DStem2: -588 1582.5 -561 1476 0.9905 -0.13751<-181.452 -127.188 -70.8949 132.698>
LayerCount: 2
Fore
SplineSet
-665 1383 m 1
 -665 1298 -728 1251 -815 1251 c 0
 -917 1251 -986 1323 -986 1425 c 0
 -986 1538 -885 1601 -770 1601 c 0
 -659 1601 -556 1564 -456 1564 c 0
 -401 1564 -399 1614 -398 1672 c 1
 -314 1672 l 1
 -314 1546 -326 1463 -449 1463 c 0
 -527 1463 -586 1479 -672 1493 c 1
 -665 1383 l 1
-769 1501 m 2
 -833 1501 -880 1481 -880 1421 c 0
 -880 1377 -854 1349 -809 1349 c 0
 -754 1349 -728 1381 -728 1436 c 2
 -728 1499 l 1
 -735 1500 -742 1501 -749 1501 c 130
 -769 1501 l 2
EndSplineSet
EndChar

StartChar: uni0ECD
Encoding: 257 3789 258
Width: 0
GlyphClass: 2
Flags: HW
HStem: 1226 98<-669.553 -486.479> 1555 90<-666.57 -489.596>
VStem: -796 103<1347.93 1528.89> -463 103<1347.82 1528.86>
LayerCount: 2
Fore
SplineSet
-360 1435 m 0
 -360 1314 -455 1226 -577 1226 c 0
 -699 1226 -796 1313 -796 1435 c 0
 -796 1557 -700 1645 -577 1645 c 0
 -457 1645 -360 1556 -360 1435 c 0
-579 1324 m 0
 -512 1324 -463 1372 -463 1439 c 0
 -463 1503 -514 1555 -579 1555 c 0
 -642 1555 -693 1502 -693 1439 c 0
 -693 1374 -645 1324 -579 1324 c 0
EndSplineSet
EndChar

StartChar: uni0ED0
Encoding: 258 3792 259
Width: 1184
GlyphClass: 2
Flags: HW
HStem: 0 100<433.875 752.168> 1007 97<439.158 746.49>
VStem: 117 143<309.716 799.87> 926 141<310.67 799.141>
LayerCount: 2
Fore
SplineSet
1067 571 m 0
 1067 249 910 0 592 0 c 0
 274 0 117 249 117 571 c 0
 117 876 290 1104 592 1104 c 0
 893 1104 1067 874 1067 571 c 0
260 575 m 0
 260 324 349 100 593 100 c 0
 838 100 926 325 926 575 c 0
 926 800 815 1007 593 1007 c 256
 371 1007 260 801 260 575 c 0
EndSplineSet
EndChar

StartChar: uni0ED1
Encoding: 259 3793 260
Width: 1303
GlyphClass: 2
Flags: HW
HStem: -92 87<486 669.752> 266 97<554 718.5> 551 85<570.753 719.777> 995 109<394.21 836.894>
VStem: 83 158<484.436 846.885> 445 110<368.185 530.371> 732 123<382.035 540.857> 1055 157<330.049 772.977>
LayerCount: 2
Fore
SplineSet
641 636 m 0
 769 636 855 576 855 449 c 0
 855 322 748 276 614 269 c 2
 554 266 l 1
 286 266 83 385 83 651 c 0
 83 954 305 1104 612 1104 c 0
 975 1104 1212 904 1212 543 c 0
 1212 149 863 -79 486 -92 c 1
 486 -5 l 1
 787 31 1055 206 1055 537 c 0
 1055 831 903 995 609 995 c 0
 372 995 241 885 241 652 c 0
 241 485 336 391 486 367 c 1
 469 401 445 438 445 474 c 0
 445 585 523 636 641 636 c 0
554 363 m 1
 646 363 729 369 732 454 c 1
 731 519 699 551 637 551 c 0
 586 551 558 523 555 475 c 1
 555 456 l 130
 555 426 554 402 554 363 c 1
EndSplineSet
EndChar

StartChar: uni0ED2
Encoding: 260 3794 261
Width: 1329
GlyphClass: 2
Flags: HW
HStem: 0 98<447.288 953.963> 352 85<628.167 776.009> 627 97<652.294 787>
VStem: 93 158<264.165 581.271> 486 124<454.376 602.144> 787 109<444.94 621.513> 1026 106<1258.85 1401> 1092 158<221.33 533.639>
DStem2: 394.5 852 513 773 0.878153 0.47838<-175.568 644.911>
LayerCount: 2
Fore
SplineSet
486 533 m 0
 486 676 644 724 806 724 c 0
 1055 724 1250 627 1250 382 c 0
 1250 88 1004 0 685 0 c 0
 384 0 93 116 93 409 c 0
 93 941 830 933 998 1290 c 128
 1014 1323 1023 1360 1026 1401 c 1
 1132 1401 l 1
 1132 888 487 897 289 572 c 128
 264 530 251 483 251 430 c 0
 251 184 459 98 710 98 c 0
 941 98 1092 170 1092 384 c 0
 1092 537 1001 610 854 624 c 1
 882 571 896 536 896 519 c 0
 896 404 820 352 698 352 c 0
 573 352 486 410 486 533 c 0
610 531 m 0
 610 470 641 437 704 437 c 1
 759 438 787 471 787 536 c 2
 787 627 l 1
 691 625 610 612 610 531 c 0
EndSplineSet
EndChar

StartChar: uni0ED3
Encoding: 261 3795 262
Width: 1536
GlyphClass: 2
Flags: HW
HStem: 0 98<141.633 310.812 805.665 1174.49> 283 84<151.121 295.491> 1631 114<789.119 998.669>
VStem: 12 124<104.609 270.948> 311 110<113.992 272.783> 535 156<238.133 1104> 1285 158<213.432 957.375>
DStem2: 860 1427 739 1368.5 0.841311 -0.540552<-138.376 521.722> 1222 1582 1220 1455 0.810679 -0.585491<-276.759 244.24>
LayerCount: 2
Fore
SplineSet
219 367 m 0
 343 367 421 325 421 206 c 0
 421 186 414 155 400 112 c 1
 507 152 535 267 535 425 c 2
 535 1104 l 1
 691 1104 l 1
 691 427 l 2
 691 208 779 98 997 98 c 0
 1203 98 1285 209 1285 418 c 2
 1285.00065519 437.83402825 l 2
 1285.00065519 793.834892815 1283.07239819 1005.80542986 1070 1158 c 128
 1031 1186 988 1213 941 1242 c 2
 825 1312 l 2
 746 1359 635 1412 635 1528 c 0
 635 1673 720 1745 868 1745 c 0
 1056 1745 1257 1565 1379 1470 c 1
 1420 1439 l 1
 1364 1359 l 1
 1220 1455 l 2
 1107 1530 987 1631 871 1631 c 0
 807 1631 772 1600 767 1542 c 1
 771 1486 815 1456 860 1427 c 2
 1026 1323 l 2
 1195 1217 1380 1111 1426 888 c 0
 1437 831 1443 731 1443 588 c 2
 1443 462 l 2
 1443 162 1305 0 1010 0 c 0
 805 0 655 73 613 236 c 1
 576 77 454 0 256 0 c 0
 113 0 12 51 12 185 c 0
 12 302 97 367 219 367 c 0
136 182 m 1
 136 98 194 94 279 94 c 0
 297 94 308 94 311 95 c 1
 311 185 l 1
 306 247 279 280 230 283 c 1
 169 281 138 247 136 182 c 1
EndSplineSet
EndChar

StartChar: uni0ED4
Encoding: 262 3796 263
Width: 1284
GlyphClass: 2
Flags: HW
HStem: 0 162<1054.86 1225> 0 98<403.983 1014> 525 85<810.339 959.147> 799 94<824.181 974.482>
VStem: 95 158<259.651 813.998> 646 157<610.157 782.291> 987 123<629.452 788.155>
DStem2: 348 1007 416 904 0.906408 0.422404<-147.725 677.048>
LayerCount: 2
Fore
SplineSet
809 552 m 1
 839 327 994 181 1230 162 c 1
 1243 162 l 1
 1225 0 l 1
 579 0 l 2
 274 0 95 159 95 464 c 0
 95 759 143 912 348 1007 c 2
 760 1199 l 1
 859 1244 942 1312 1003 1397 c 1
 1079 1333 l 1
 1008 1221 922 1140 804 1085 c 2
 416 904 l 1
 265 835 253 716 253 489 c 0
 253 248 352 98 592 98 c 2
 1014 98 l 1
 959 126 l 1
 803 216 646 358 646 596 c 0
 646 779 714 893 889 893 c 0
 1022 893 1110 842 1110 715 c 0
 1110 598 1034 525 917 525 c 0
 878 525 850 537 809 552 c 1
901 799 m 1
 836 798 803 749 803 652 c 2
 803 625 l 130
 803 618 803 613 804 610 c 1
 870 610 l 2
 948 610 987 637 987 711 c 1
 981 766 952 796 901 799 c 1
EndSplineSet
EndChar

StartChar: uni0ED5
Encoding: 263 3797 264
Width: 1284
GlyphClass: 2
Flags: HW
HStem: 0 162<1064.42 1225> 0 98<406.094 1016> 525 85<810.154 974.709> 797 96<821.665 973.834> 1255 113<456.683 614.185>
VStem: 95 158<251.957 782.194> 322 114<1112.04 1237.76> 626 117<1172.61 1245.71> 646 158<610 783.919> 988 123<623.191 783.778>
DStem2: 740 1172 745 1055.5 0.927042 0.374957<-502.504 -369.167 0 167.028>
LayerCount: 2
Fore
SplineSet
322 1183 m 0
 322 1300 433 1368 552 1368 c 0
 665 1368 743 1310 743 1198 c 0
 743 1189 742 1181 740 1172 c 1
 760 1181 l 1
 852 1228 912 1308 993 1404 c 1
 1066 1348 l 1
 969 1193 847 1074 645 1025 c 1
 548 915 373 936 304 794 c 128
 261 706 253 593 253 451 c 0
 253 228 376 98 599 98 c 2
 1016 98 l 1
 962 126 l 2
 799 211 646 356 646 596 c 0
 646 777 718 893 892 893 c 0
 1038 893 1111 836 1111 721 c 0
 1111 603 1031 525 912 525 c 0
 877 525 844 540 809 552 c 1
 842 327 1004 181 1243 162 c 1
 1225 0 l 1
 587 0 l 2
 290 0 95 151 95 447 c 0
 95 749 150 928 357 1018 c 1
 398 1033 l 1
 351 1061 322 1109 322 1183 c 0
436 1172 m 0
 436 1116 480 1098 541 1096 c 1
 597 1096 626 1139 626 1200 c 1
 623 1238 593 1255 550 1255 c 0
 487 1255 436 1232 436 1172 c 0
902 797 m 1
 811 797 806 722 804 631 c 1
 804 610 l 1
 856 610 l 2
 942 610 985 628 988 710 c 1
 982 765 953 794 902 797 c 1
EndSplineSet
EndChar

StartChar: uni0ED6
Encoding: 264 3798 265
Width: 1444
GlyphClass: 2
Flags: HW
HStem: 1 97<311.047 557.958 863.421 1103.96> 737 84<252.556 425.603> 1008 96<269.977 425.942> 1574 114<887.596 1052.55>
VStem: 93 158<167.562 766 821 990.418> 434 124<832.484 1001.37> 633 157<226.551 467> 724 144<1436 1564.04> 1172 157<184.967 1023.7>
DStem2: 909.5 1439 865.5 1296.5 0.752346 -0.658768<-78.6648 462.666> 1312 1502 1090 1505 0.82495 -0.565205<-351.206 291.904>
LayerCount: 2
Fore
SplineSet
358 737 m 0
 323 737 295 751 251 766 c 1
 251 383 l 2
 251 217 279 98 441 98 c 0
 586 98 633 227 633 388 c 2
 633 467 l 1
 790 467 l 1
 790 384 l 2
 790 225 837 98 983 98 c 0
 1167 98 1172 281 1172 473 c 0
 1172 482.688311688 1172.00202395 492.282172373 1172.00202395 501.78270355 c 0
 1172.00202395 858.052622702 1169.15584416 1083.07792208 950 1236 c 1
 862 1296 724 1371 724 1512 c 0
 724 1613 810 1688 912 1688 c 0
 1091 1688 1196 1587 1312 1502 c 2
 1548 1330 l 1
 1487 1233 l 1
 1090 1505 l 2
 1037 1542 994 1574 935 1574 c 0
 896 1574 868 1551 868 1512 c 0
 868 1410 1099 1302 1163 1234 c 128
 1321 1065 1329 797 1329 462 c 0
 1329 185 1247 0 993 0 c 0
 829 0 732 80 711 226 c 1
 686 76 596 1 441 1 c 0
 159 1 93 178 93 463 c 2
 93 799 l 2
 93 987 164 1104 343 1104 c 0
 477 1104 558 1050 558 921 c 0
 558 802 477 737 358 737 c 0
290 821 m 2
 378 821 434 828 434 914 c 0
 434 977 407 1008 352 1008 c 0
 285 1007 251 963 251 878 c 2
 251 821 l 1
 290 821 l 2
EndSplineSet
EndChar

StartChar: uni0ED7
Encoding: 265 3799 266
Width: 1414
GlyphClass: 2
Flags: HW
HStem: 0 95<204.771 357.596> 283 83<221.82 375.656> 748 93<200.888 375.644> 1005 99<199.98 357.478 729.486 1050.55>
VStem: 70 125<102.331 266.588 848.305 999.148> 377 156<129.557 283 338 777> 1124 159<-133.402 929.358>
DStem2: 628.5 1024 667 931.5 0.904321 0.426853<-132.804 228.65>
LayerCount: 2
Fore
SplineSet
513 952 m 5
 623 1026 725 1100 892 1104 c 5
 1184 1104 1283 956 1283 662 c 6
 1283 154 l 6
 1283 28 1296 -89 1320 -188 c 5
 1189 -188 l 5
 1148 -94 1124 27 1124 166 c 6
 1124 684 l 6
 1124 885 1094 1005 891 1005 c 4
 753 1005 638 919 531 860 c 5
 532 843 533 827 533 809 c 6
 533 328 l 6
 533 136 463 0 285 0 c 4
 149 0 70 58 70 191 c 4
 70 300 155 366 265 366 c 6
 278 366 l 134
 282 366 286 366 291 365 c 6
 377 338 l 5
 377 777 l 5
 336 758 303 748 278 748 c 4
 155 748 70 803 70 923 c 4
 70 1047 153 1104 284 1104 c 4
 408 1104 480 1046 513 952 c 5
286 1009 m 4
 233 1009 193 980 193 927 c 4
 193 870 223 841 283 841 c 4
 318 841 349 854 377 868 c 5
 377 887 l 6
 377 957 351 1009 286 1009 c 4
304 283 m 6
 234 283 195 261 195 195 c 4
 195 130 221 96 274 95 c 5
 361 95 377 145 377 237 c 6
 377 283 l 5
 304 283 l 6
EndSplineSet
EndChar

StartChar: uni0ED8
Encoding: 266 3800 267
Width: 1467
GlyphClass: 2
Flags: HW
HStem: -603 94<832.998 975.089> -592 127<245.892 496.495> 0 94<307.567 456.68> 283 84<287.868 432.927> 1005 99<355.089 607.372 894.034 1144.06>
VStem: 95 139<-455.062 -289.058> 128 158<127.006 283 350 928.359> 468 123<102.509 265.717> 670 158<630 877.467> 990 108<-495.143 -367.466> 1210 158<118.033 929.5>
DStem2: 270.5 -159 352 -259 0.95921 0.282693<-84.1336 109.566> 829 -238 1004 -272 0.84715 0.531354<130.185 414.031>
LayerCount: 2
Fore
SplineSet
711 -439 m 1
 593 -503 479 -592 328 -592 c 0
 189 -592 95 -519 95 -381 c 0
 95 -203 237 -167 375 -126 c 2
 1207 117 l 1
 1209 139 1210 163 1210 189 c 2
 1210 692 l 2
 1210 867 1184 1005 1014 1005 c 0
 853 1005 828 860 828 696 c 2
 828 630 l 1
 670 630 l 1
 670 696 l 2
 670 858 648 1005 492 1005 c 0
 327 1005 286 889 286 722 c 2
 286 350 l 1
 326 361 356 367 377 367 c 0
 499 367 591 310 591 190 c 0
 591 63 517 0 369 0 c 0
 196 0 128 130 128 315 c 2
 128 642 l 2
 128 920 201 1104 474 1104 c 0
 650 1104 726 1031 749 878 c 1
 767 1031 849 1104 1016 1104 c 0
 1291 1104 1368 925 1368 647 c 2
 1368 201 l 2
 1368 16 1329 -59 1218 -132 c 2
 1004 -272 l 1
 1059 -302 1098 -352 1098 -434 c 0
 1098 -535 1007 -603 906 -603 c 0
 798 -603 729 -535 711 -439 c 1
286 213 m 2
 286 144 315 94 382 94 c 0
 438 94 467 126 468 191 c 1
 468 271 412 283 324 283 c 2
 286 283 l 1
 286 213 l 2
234 -364 m 1
 235 -431 266 -465 327 -465 c 0
 437 -465 507 -416 588 -378 c 1
 1115 -56 l 2
 1139 -42 1157 -24 1172 -3 c 1
 352 -259 l 2
 292 -277 234 -292 234 -364 c 1
990 -434 m 0
 990 -387 957 -351 910 -351 c 0
 857 -351 818 -375 818 -432 c 0
 818 -485 851 -509 904 -509 c 0
 954 -509 990 -483 990 -434 c 0
EndSplineSet
EndChar

StartChar: uni0ED9
Encoding: 267 3801 268
Width: 1411
GlyphClass: 2
Flags: HW
HStem: 0 98<271.72 425.625 885.277 1105.91> 283 84<252.339 402.539> 1005 99<335.761 582.438>
VStem: 94 157<128.043 283 339 903.664> 434 124<102.616 265.679> 663 158<168.19 914.3> 1163 158<163.5 1104>
LayerCount: 2
Fore
SplineSet
821 351 m 2
 821 208 870 98 1003 98 c 0
 1125 98 1163 214 1163 352 c 2
 1163 1104 l 1
 1321 1104 l 1
 1321 426 l 2
 1321 169 1255 0 1003 0 c 0
 753 0 663 160 663 420 c 2
 663 687 l 2
 663 869 618 1005 455 1005 c 0
 301 1005 251 858 251 685 c 2
 251 339 l 1
 288 351 319 367 348 367 c 0
 471 367 558 309 558 188 c 0
 558 56 477 0 342 0 c 0
 153 0 94 126 94 326 c 2
 94 657 l 2
 94 916 200 1104 456 1104 c 0
 722 1104 821 935 821 659 c 2
 821 351 l 2
251 240 m 2
 251 150 270 94 349 94 c 0
 404 94 433 126 434 191 c 1
 434 264 387 283 311 283 c 2
 251 283 l 1
 251 240 l 2
EndSplineSet
EndChar

StartChar: uni0EDC
Encoding: 268 3804 269
Width: 2544
GlyphClass: 2
Flags: HW
HStem: 0 98<422.098 808.908 1168 1391.73 1818.51 2193.78> 720 92<735.255 895.905> 735 86<181.915 299.283 821.342 897> 1008 96<167.471 321.642 731.416 879.31 1232.18 1456.19>
VStem: 28 124<838.375 993.802> 181 157<171.361 503.943> 340 139<822.338 989.027> 589 123<833.732 990.521> 897 159<190.424 730 813.969 855.605> 1522 159<237.747 934.798> 2287 158<201.148 1104>
DStem2: 202 415 356 394.5 0.247682 0.968841<-99.1519 350.772 422.576 523.793>
LayerCount: 2
Fore
SplineSet
589 923 m 0
 589 1048 693 1104 829 1104 c 0
 956 1104 1022 1040 1047 933 c 1
 1127 1006 1214 1103 1362 1103 c 0
 1625 1103 1681 912 1681 644 c 2
 1681 384 l 2
 1681 206 1815 98 1995 98 c 0
 2214 98 2287 187 2287 406 c 2
 2287 1104 l 1
 2445 1104 l 1
 2445 434 l 2
 2445 135 2294 0 1994 0 c 0
 1783 0 1650 78 1599 236 c 1
 1567 80 1423 1 1168 0 c 1
 1168 98 l 1
 1383 98 1522 177 1522 382 c 2
 1522 638 l 2
 1522 828 1517 1006 1335 1006 c 0
 1224 1006 1118 876 1056 812 c 1
 1056 451 l 2
 1056 141 949 0 641 0 c 0
 412 0 181 67 181 289 c 0
 181 404 226 510 265 638 c 2
 300 752 l 1
 270 744 246 735 214 735 c 0
 101 735 28 807 28 921 c 0
 28 1054 118 1104 259 1104 c 0
 379 1104 479 1028 479 908 c 0
 479 717 338 460 338 277 c 0
 338 139 487 98 630 98 c 0
 839 98 897 206 897 417 c 2
 897 730 l 1
 874 723 849 720 820 720 c 0
 676 720 589 782 589 923 c 0
897 870 m 2
 897 949 884 1008 817 1008 c 0
 753 1008 712 980 712 917 c 0
 712 846 756 812 826 812 c 0
 849 812 873 817 897 826 c 1
 897 870 l 2
245 1008 m 0
 182 1008 152 983 152 921 c 0
 152 841 192 821 274 821 c 2
 320 821 l 1
 333 874 340 908 340 921 c 0
 340 973 300 1008 245 1008 c 0
EndSplineSet
EndChar

StartChar: uni0EDD
Encoding: 269 3805 270
Width: 2669
GlyphClass: 2
Flags: HW
HStem: 0 98<419.236 810.735 1306.04 1558 1941.98 2320.45> 173 82<1265.86 1410.57> 449 94<1271.32 1431.52> 720 92<181.399 299.971 735.989 898> 1008 96<167.435 321.558 731.939 882.482 1304.89 1556.37>
VStem: 28 124<839.148 991.953> 181 158<171.429 503.099> 340 139<823.007 988.967> 590 122<834.54 989.197> 898 159<192.202 728 813.815 830.874> 1125 125<255 433.361> 1443 122<274.752 438.211> 1649 157<236.674 905.033> 2412 158<210.332 1104>
DStem2: 1052 910 1057 798 0.823278 0.567639<0 364.556>
LayerCount: 2
Back
SplineSet
1785.09960938 952 m 5
 1895.29726528 1026.03905006 1997.13312424 1100.11705849 2164.09960938 1104 c 5
 2456.37331032 1104 2555.09960938 955.899831239 2555.09960938 662 c 6
 2555.09960938 154 l 6
 2555.09960938 27.7684659256 2568.41861565 -88.9703899141 2592.09960938 -188 c 5
 2461.09960938 -188 l 5
 2420.31003814 -93.5399402972 2396.09960938 26.9665492341 2396.09960938 166 c 6
 2396.09960938 684 l 6
 2396.09960938 885.341064627 2366.02336575 1005 2163.09960938 1005 c 4
 2025.46246623 1005 1910.2188687 919.052925013 1803.09960938 860 c 5
 1804.40410705 843.041530294 1805.09960938 826.956400863 1805.09960938 809 c 6
 1805.09960938 328 l 6
 1805.09960938 135.962340278 1735.45839249 0 1557.09960938 0 c 4
 1421.33599089 0 1342.09960938 57.7161060682 1342.09960938 191 c 4
 1342.09960938 300.086613093 1426.76967518 366 1537.09960938 366 c 4
 1544.09960938 366 1544.09960938 366 1550.09960938 366 c 132
 1554.09960938 366 1558.43294271 365.666666667 1563.09960938 365 c 6
 1649.09960938 338 l 5
 1649.09960938 777 l 5
 1608.43294271 757.666666667 1575.43294271 748 1550.09960938 748 c 4
 1427.58883101 748 1342.09960938 802.788553597 1342.09960938 923 c 4
 1342.09960938 1046.69557461 1425.49923622 1104 1556.09960938 1104 c 4
 1680.03801654 1104 1752.05483785 1046.05050356 1785.09960938 952 c 5
1558.09960938 1009 m 4
 1505.32233659 1009 1465.09960938 980.247538995 1465.09960938 927 c 4
 1465.09960938 869.666666667 1495.09960938 841 1555.09960938 841 c 4
 1590.33219995 841 1621.57914128 854.239765954 1649.09960938 868 c 5
 1649.09960938 887 l 6
 1649.09960938 957.11499115 1622.99049189 1009 1558.09960938 1009 c 4
1576.09960938 283 m 6
 1506.57196853 283 1467.09960938 260.567377329 1467.09960938 195 c 4
 1467.09960938 129.666666667 1493.43294271 96.3333333333 1546.09960938 95 c 5
 1632.68354038 95 1649.09960938 145.434322766 1649.09960938 237 c 6
 1649.09960938 283 l 5
 1576.09960938 283 l 6
EndSplineSet
Fore
SplineSet
1378 1011 m 0
 1246 1011 1132 878 1057 798 c 1
 1057 471 l 2
 1057 154 961 0 646 0 c 0
 419 0 181 69 181 288 c 0
 181 398 222 496 258 613 c 2
 301 751 l 1
 268 743 241 735 210 735 c 0
 98 735 28 808 28 921 c 0
 28 1053 124 1104 263 1104 c 0
 385 1104 479 1030 479 908 c 0
 479 853 339 411 339 290 c 0
 339 162 438 98 637 98 c 0
 852 98 898 219 898 437 c 2
 898 728 l 1
 873 723 849 720 821 720 c 0
 686 720 590 783 590 916 c 0
 590 1043 692 1104 828 1104 c 0
 960 1104 1035 1030 1052 910 c 1
 1148 1009 1219 1108 1397 1108 c 0
 1601 1108 1706 925 1706 642 c 2
 1706 260 l 17
 1771 190 1916 98 2044 98 c 0
 2262 98 2312 219 2312 439 c 2
 2312 1104 l 1
 2470 1104 l 1
 2470 445 l 2
 2470 148 2344 0 2093 0 c 0
 1863 0 1744 86 1664 170 c 1
 1654 56 1569 0 1454 0 c 0
 1303 0 1242 75 1242 190 c 0
 1242 302 1318 380 1441 380 c 1
 1441 380 1497 376 1549 351 c 9
 1549 638 l 2
 1549 819 1523 1011 1378 1011 c 0
818 1008 m 0
 754 1008 712 979 712 917 c 0
 712 848 757 812 827 812 c 0
 847 812 871 816 898 823 c 1
 898 871 l 2
 898 962 871 1008 818 1008 c 0
239 1008 m 0
 183 1008 152 978 152 921 c 0
 152 845 192 821 270 821 c 2
 322 821 l 1
 334 865 340 897 340 917 c 0
 340 975 302 1008 239 1008 c 0
1488 280 m 2
 1473 287 1459 289 1446 289 c 0
 1397 289 1368 246 1366 192 c 1
 1368 127 1397 95 1454 95 c 0
 1546 95 1549 161 1549 254 c 1
 1488 280 l 2
EndSplineSet
EndChar

StartChar: endash
Encoding: 273 8211 274
Width: 1265
GlyphClass: 2
Flags: HW
HStem: 555 144<362 832>
VStem: 362 470<555 699>
LayerCount: 2
Fore
SplineSet
832 555 m 1
 362 555 l 1
 362 699 l 1
 832 699 l 1
 832 555 l 1
EndSplineSet
EndChar

StartChar: emdash
Encoding: 274 8212 275
Width: 1265
GlyphClass: 2
Flags: HW
HStem: 555 144<127 1067>
LayerCount: 2
Fore
SplineSet
1067 555 m 1
 127 555 l 1
 127 699 l 1
 1067 699 l 1
 1067 555 l 1
EndSplineSet
EndChar

StartChar: quoteleft
Encoding: 275 8216 276
Width: 778
GlyphClass: 2
Flags: HW
HStem: 330 644
VStem: 68 395
LayerCount: 2
Fore
SplineSet
463 356 m 1
 396 330 l 1
 68 885 l 1
 310 974 l 1
 463 356 l 1
EndSplineSet
EndChar

StartChar: quoteright
Encoding: 276 8217 277
Width: 537
GlyphClass: 2
Flags: HW
HStem: 1033 546
VStem: 114 281<1288.28 1579> 245 150<1172.12 1286>
LayerCount: 2
Fore
SplineSet
114 1286 m 1
 114 1579 l 1
 395 1579 l 1
 395 1330 l 2
 395 1163 302 1072 166 1033 c 1
 115 1127 l 1
 193 1154 245 1184 245 1286 c 1
 114 1286 l 1
EndSplineSet
EndChar

StartChar: quotesinglbase
Encoding: 277 8218 278
Width: 647
GlyphClass: 2
Flags: HW
HStem: -253 546
VStem: 224 281<2.28125 293> 355 150<-113.881 0>
LayerCount: 2
Fore
SplineSet
224 0 m 1
 224 293 l 1
 505 293 l 1
 505 44 l 2
 505 -123 412 -214 276 -253 c 1
 225 -159 l 1
 303 -132 355 -102 355 0 c 1
 224 0 l 1
EndSplineSet
EndChar

StartChar: quotedblleft
Encoding: 278 8220 279
Width: 939
GlyphClass: 2
Flags: HW
HStem: 1063 293<291 422 660 791> 1589 20G<314 380.851 683 749.851>
VStem: 141 281<1063 1353.72> 141 150<1356 1472.47> 510 281<1063 1353.72> 510 150<1356 1472.47>
LayerCount: 2
Fore
SplineSet
791 1356 m 1
 791 1063 l 1
 510 1063 l 1
 510 1312 l 2
 510 1479 603 1570 739 1609 c 1
 790 1515 l 1
 711 1488 660 1460 660 1356 c 1
 791 1356 l 1
422 1356 m 1
 422 1063 l 1
 141 1063 l 1
 141 1312 l 2
 141 1479 234 1570 370 1609 c 1
 421 1515 l 1
 342 1488 291 1460 291 1356 c 1
 422 1356 l 1
EndSplineSet
EndChar

StartChar: quotedblright
Encoding: 279 8221 280
Width: 831
GlyphClass: 2
Flags: HW
HStem: 1286 293<112 243 481 612>
VStem: 112 281<1288.28 1579> 243 150<1172.12 1286> 481 281<1288.28 1579> 612 150<1172.12 1286>
LayerCount: 2
Fore
SplineSet
481 1286 m 1
 481 1579 l 1
 762 1579 l 1
 762 1330 l 2
 762 1163 669 1072 533 1033 c 1
 482 1127 l 1
 560 1154 612 1184 612 1286 c 1
 481 1286 l 1
112 1286 m 1
 112 1579 l 1
 393 1579 l 1
 393 1330 l 2
 393 1163 300 1072 164 1033 c 1
 113 1127 l 1
 191 1154 243 1184 243 1286 c 1
 112 1286 l 1
EndSplineSet
EndChar

StartChar: quotedblbase
Encoding: 280 8222 281
Width: 1112
GlyphClass: 2
Flags: HW
HStem: 0 293<290 421 659 790>
VStem: 290 281<2.28125 293> 421 150<-113.881 0> 659 281<2.28125 293> 790 150<-113.881 0>
LayerCount: 2
Fore
SplineSet
659 0 m 1
 659 293 l 1
 940 293 l 1
 940 44 l 2
 940 -123 847 -214 711 -253 c 1
 660 -159 l 1
 738 -132 790 -102 790 0 c 1
 659 0 l 1
290 0 m 1
 290 293 l 1
 571 293 l 1
 571 44 l 2
 571 -123 478 -214 342 -253 c 1
 291 -159 l 1
 369 -132 421 -102 421 0 c 1
 290 0 l 1
EndSplineSet
EndChar

StartChar: dagger
Encoding: 281 8224 282
Width: 1070
GlyphClass: 2
Flags: HW
HStem: 0 21G<448 638> 1020 141<112 447 640 966>
VStem: 448 190<0 1020 1161 1468>
LayerCount: 2
Fore
SplineSet
966 1020 m 1
 638 1020 l 1
 638 0 l 1
 448 0 l 1
 448 1020 l 1
 112 1020 l 1
 112 1161 l 1
 447 1161 l 1
 447 1468 l 1
 640 1468 l 1
 640 1161 l 1
 966 1161 l 1
 966 1020 l 1
EndSplineSet
EndChar

StartChar: daggerdbl
Encoding: 282 8225 283
Width: 1237
GlyphClass: 2
Flags: HW
HStem: 0 21G<537 728> 305 139<202 537 728 1054> 1020 141<202 537 730 1056>
VStem: 537 191<0 305 444 1020 1161 1468>
LayerCount: 2
Fore
SplineSet
1056 1020 m 1
 728 1020 l 1
 728 444 l 1
 1054 444 l 1
 1054 305 l 1
 728 305 l 1
 728 0 l 1
 537 0 l 1
 537 305 l 1
 202 305 l 1
 202 444 l 1
 537 444 l 1
 537 1020 l 1
 202 1020 l 1
 202 1161 l 1
 537 1161 l 1
 537 1468 l 1
 730 1468 l 1
 730 1161 l 1
 1056 1161 l 1
 1056 1020 l 1
EndSplineSet
EndChar

StartChar: bullet
Encoding: 283 8226 284
Width: 1361
GlyphClass: 2
Flags: HW
HStem: 358 670<473.473 823.46>
VStem: 301 698<527.22 856.828>
LayerCount: 2
Fore
SplineSet
999 692 m 0
 999 503 841 358 649 358 c 0
 451 358 301 495 301 692 c 256
 301 890 450 1028 649 1028 c 0
 846 1028 999 889 999 692 c 0
EndSplineSet
EndChar

StartChar: ellipsis
Encoding: 284 8230 285
Width: 1554
GlyphClass: 2
Flags: HW
HStem: -17 230<155.309 322.058 673.309 840.058 1191.31 1358.06>
VStem: 133 220<17.5504 178.45> 651 220<17.5504 178.45> 1169 220<17.5504 178.45>
CounterMasks: 1 70
LayerCount: 2
Fore
SplineSet
1169 98 m 256
 1169 164 1215 213 1281 213 c 0
 1345 213 1389 162 1389 98 c 256
 1389 34 1345 -17 1281 -17 c 0
 1214 -17 1169 32 1169 98 c 256
651 98 m 256
 651 164 697 213 763 213 c 0
 827 213 871 162 871 98 c 256
 871 34 827 -17 763 -17 c 0
 696 -17 651 32 651 98 c 256
133 98 m 256
 133 164 179 213 245 213 c 0
 309 213 353 162 353 98 c 256
 353 34 309 -17 245 -17 c 0
 178 -17 133 32 133 98 c 256
EndSplineSet
EndChar

StartChar: guilsinglleft
Encoding: 286 8249 287
Width: 768
GlyphClass: 2
Flags: HW
HStem: 99 207<481 688> 842 207<481 688>
VStem: 80 608
DStem2: 241 577 80 481 0.846744 -0.532<0 522.667>
LayerCount: 2
Fore
SplineSet
688 842 m 1
 241 577 l 1
 688 306 l 1
 688 99 l 1
 80 481 l 1
 80 666 l 1
 688 1049 l 1
 688 842 l 1
EndSplineSet
EndChar

StartChar: guilsinglright
Encoding: 287 8250 288
Width: 768
GlyphClass: 2
Flags: HW
HStem: 99 207<80 287> 842 207<80 287>
VStem: 80 608
DStem2: 80 306 80 99 0.846744 0.532<0 521.82>
LayerCount: 2
Fore
SplineSet
80 1049 m 1
 688 666 l 1
 688 481 l 1
 80 99 l 1
 80 306 l 1
 526 577 l 1
 80 842 l 1
 80 1049 l 1
EndSplineSet
EndChar

StartChar: Euro
Encoding: 288 8364 289
Width: 1162
GlyphClass: 2
Flags: HW
HStem: -38 140<563.562 936.174> 574 122<64 224 398 751> 809 122<48 228 414 808> 1308 131<560.674 991.598>
VStem: 228 169<313.841 574 696 809> 252 162<931 1148.49>
DStem2: 854 1433 855 1299.5 0.97844 -0.20653<-74.2004 194.432>
LayerCount: 2
Fore
SplineSet
252 931 m 1
 271 1239 427 1439 753 1439 c 0
 875 1439 979 1416 1058 1376 c 1
 1015 1254 l 1
 944 1254 852 1308 750 1308 c 0
 519 1308 414 1169 414 931 c 1
 808 931 l 1
 808 809 l 1
 403 809 l 1
 398 776 399 740 398 696 c 1
 751 696 l 1
 751 574 l 1
 397 574 l 1
 397 319 479 106 716 102 c 1
 830 102 931 139 1001 178 c 1
 1053 55 l 1
 986 -12 822 -38 683 -38 c 0
 378 -38 240 266 228 574 c 1
 64 574 l 1
 64 696 l 1
 224 696 l 1
 225 740 226 775 228 809 c 1
 48 809 l 1
 48 931 l 1
 252 931 l 1
EndSplineSet
EndChar

StartChar: uni20AD
Encoding: 289 8365 290
Width: 932
GlyphClass: 2
Flags: HW
HStem: 0 21G<101 251 649.4 833> 500 102<420 833>
VStem: 101 150<0 500 602 1060> 666 167<0 167 893 1060>
DStem2: 251 602 420 602 0.669681 0.742649<113.176 616.042> 418 500 251 500 0.638669 -0.769481<0 543.131>
LayerCount: 2
Fore
SplineSet
251 602 m 1
 663 1060 l 1
 833 1060 l 1
 420 602 l 1
 833 602 l 1
 833 500 l 1
 418 500 l 1
 833 0 l 1
 666 0 l 1
 251 500 l 1
 251 0 l 1
 101 0 l 1
 101 1060 l 1
 251 1060 l 1
 251 602 l 1
EndSplineSet
EndChar

StartChar: trademark
Encoding: 290 8482 291
Width: 1634
GlyphClass: 2
Flags: HW
HStem: 624 134<1060 1238> 1310 103<72 282 417 626>
VStem: 282 135<624 1310> 736 128<624 1288> 1435 127<624 1288>
DStem2: 965 1413 864 1288 0.283105 -0.959089<91.2926 680.295> 1149 758 1238 624 0.284432 0.958696<0 589.457>
LayerCount: 2
Fore
SplineSet
1149 758 m 1
 1333 1413 l 1
 1562 1413 l 1
 1562 624 l 1
 1435 624 l 1
 1435 1288 l 1
 1238 624 l 1
 1060 624 l 1
 864 1288 l 1
 864 624 l 1
 736 624 l 1
 736 1413 l 1
 965 1413 l 1
 1149 758 l 1
626 1310 m 1
 417 1310 l 1
 417 624 l 1
 282 624 l 1
 282 1310 l 1
 72 1310 l 1
 72 1413 l 1
 626 1413 l 1
 626 1310 l 1
EndSplineSet
EndChar

StartChar: uni25CC
Encoding: 291 9676 292
Width: 1170
GlyphClass: 2
Flags: HW
HStem: 1 83<493 677> 904 83<493 677>
VStem: 493 184<1 84 904 987>
DStem2: 88 559 167 533 0.3097 0.950834<0 183.739> 167 455 88 429 0.3097 -0.950834<0.255367 183.995> 221 839 270 771 0.809675 0.586879<0 183.568> 270 216 221 149 0.809675 -0.586879<0 183.215> 800 947 752 880 0.809675 -0.586879<0.456461 184.024> 752 108 800 41 0.809675 0.586879<0 183.215> 1026 734 946 708 0.3097 -0.950834<0 183.739> 946 280 1026 254 0.3097 0.950834<0.0543334 183.794>
LayerCount: 2
Fore
SplineSet
677 904 m 1
 493 904 l 1
 493 987 l 1
 677 987 l 1
 677 904 l 1
800 947 m 1
 949 839 l 1
 900 771 l 1
 752 880 l 1
 800 947 l 1
418 880 m 1
 270 771 l 1
 221 839 l 1
 370 947 l 1
 418 880 l 1
1026 734 m 1
 1082 559 l 1
 1003 533 l 1
 946 708 l 1
 1026 734 l 1
224 708 m 1
 167 533 l 1
 88 559 l 1
 144 734 l 1
 224 708 l 1
1082 429 m 1
 1026 254 l 1
 946 280 l 1
 1003 455 l 1
 1082 429 l 1
167 455 m 1
 224 280 l 1
 144 254 l 1
 88 429 l 1
 167 455 l 1
949 149 m 1
 800 41 l 1
 752 108 l 1
 900 216 l 1
 949 149 l 1
270 216 m 1
 418 108 l 1
 370 41 l 1
 221 149 l 1
 270 216 l 1
677 1 m 1
 493 1 l 1
 493 84 l 1
 677 84 l 1
 677 1 l 1
EndSplineSet
EndChar

StartChar: macron
Encoding: 316 -1 316
Width: 1428
GlyphClass: 2
Flags: HW
HStem: 932 115<502 924>
VStem: 500 426
LayerCount: 2
Fore
SplineSet
926 1047 m 1
 924 932 l 1
 500 932 l 1
 502 1047 l 1
 926 1047 l 1
EndSplineSet
EndChar

StartChar: asciicircum.001
Encoding: 317 -1 317
Width: 1428
GlyphClass: 2
Flags: HW
HStem: 809 202<565 863>
VStem: 374 680
DStem2: 374 510 502 432 0.503549 0.863966<0 429.533> 762 1011 714 809 0.503549 -0.863966<150.351 579.884>
LayerCount: 2
Fore
SplineSet
714 809 m 1
 502 432 l 1
 374 510 l 1
 666 1011 l 1
 762 1011 l 1
 1054 510 l 1
 926 432 l 1
 714 809 l 1
EndSplineSet
EndChar

StartChar: dotlessi
Encoding: 351 305 351
Width: 634
Flags: HW
LayerCount: 2
Fore
SplineSet
406 0 m 1
 224 0 l 1
 224 1169 l 1
 406 1169 l 1
 406 0 l 1
EndSplineSet
EndChar

